<svg width="199" height="308" viewBox="0 0 199 308" fill="none" xmlns="http://www.w3.org/2000/svg">
<g clip-path="url(#clip0)">
<path d="M22.41 230.04C14.09 233.14 6.57999 235.95 5.51999 246.04C4.52999 255.47 10.88 263.36 18.65 267.87C35.56 277.67 59.71 278.06 76.07 267.63C95.27 255.39 112.98 247.85 135.15 242.52C153.94 238 169.8 226.66 173.68 206.65C177.7 185.91 165.54 165.98 168.4 145.15C169.75 135.33 173.82 126.03 179.69 118.09C184.88 111.07 196.26 102.65 189.95 93.05C184.9 85.37 171.81 83.79 163.58 82.86C151.84 81.54 139.76 82.71 128.35 85.64C111.55 89.95 94.65 98.82 84.55 113.35C77.89 122.93 76.75 133.35 74.53 144.49C72.19 156.22 66.28 166.28 60.4 176.54C49.36 195.76 45.47 221.45 22.41 230.04Z" fill="#F2CB05"/>
<path d="M44 170.62C42.42 179.2 37.33 187.85 31.84 194.52C29.15 197.78 26.29 200.81 22.91 203.38C19.35 206.08 14.64 207.8 11.62 211.08C11.16 211.58 11.29 212.57 12.05 212.71C20.64 214.33 30.71 204.54 35.55 198.36C42.03 190.08 44.11 180.96 44.84 170.75C44.87 170.26 44.08 170.15 44 170.62Z" fill="white"/>
<path d="M182.26 190.74C183.72 200.03 181.74 209.88 178.65 218.66C175.54 227.51 169.69 233.64 164.1 240.91C163.11 242.2 164.95 243.44 166.1 242.91C174.85 238.88 180.66 228.84 183.78 220.08C187.29 210.25 186.23 200.21 182.84 190.58C182.72 190.2 182.2 190.36 182.26 190.74Z" fill="white"/>
<path d="M1.78999 269.72C2.81999 273.51 5.14999 276.42 8.55999 278.36C11.6 280.09 15.92 281.88 19.44 280.99C20.59 280.7 20.36 279.26 19.44 278.87C16.34 277.59 13.21 277.33 10.3 275.38C7.59999 273.57 5.06999 271.41 2.70999 269.18C2.30999 268.82 1.63999 269.18 1.78999 269.72Z" fill="white"/>
<path d="M1.18 124.95C1.18 121.7 25.3 119.07 55.06 119.07C84.82 119.07 108.94 121.7 108.94 124.95C108.94 125.19 108.79 125.42 108.54 125.66H108.78L100.31 190.18C100.31 190.18 98.22 194.78 98.01 197.5C97.8 200.22 88.81 274.04 88.81 274.04L68.32 282.61L38.62 282.19L17.08 274.24L10.81 196.23C10.81 196.23 7.46 187.24 7.25 184.1C7.05 181.14 2.4 131.56 1.86 125.87C1.42 125.58 1.18 125.27 1.18 124.95Z" fill="white"/>
<path d="M105.06 135.7C105.02 135.64 104.95 135.58 104.82 135.49C104.34 135.19 102.35 135.75 101.76 135.81C97.24 136.26 92.7 136.44 88.15 136.43C69.99 136.42 51.91 133.59 33.73 134.32C28.15 134.54 22.58 135.1 17 135.06C15.09 135.04 13.18 134.95 11.27 134.83C10.15 134.76 7.47 134.01 6.68 135C6 135.86 6.77 138.64 6.88 139.65C7.46 144.9 8.03 150.14 8.54 155.4C8.92 159.29 9.6 163.38 9.38 167.3C9.16 171.46 10.73 184.84 11.18 186.3C11.63 187.76 15.34 193.16 15.45 202.26C15.56 211.37 18.6 254.64 18.6 254.64C18.6 254.64 16.8 268.92 35.12 270.04L36.92 268.69L37.71 268.8C37.71 268.8 39.4 272.51 52.55 271.95L63.9 271.84C63.9 271.84 67.95 270.83 69.3 268.8L71.66 269.7C71.66 269.7 80.32 270.37 81.44 269.92C82.56 269.47 85.71 267.9 86.72 264.3C87.73 260.7 91.1 232.83 91.44 223.61C91.78 214.39 94.92 196.63 94.92 196.63C94.92 196.63 98.4 186.06 98.63 183.59C98.86 181.12 102.68 151.44 102.68 151.44C102.7 151.31 102.72 151.18 102.74 151.05C103.38 146.92 104.03 142.79 104.67 138.66C104.78 137.96 105.12 136.99 105.04 136.28C105.02 135.98 105.15 135.86 105.06 135.7Z" fill="#53D7E2"/>
<path d="M37.75 192.68C35.33 192.05 32.94 191.24 30.72 190.09C25.72 187.51 21.63 183.22 19.29 178.11C16.95 173 16.39 167.09 17.71 161.63C18.63 157.82 20.42 154.28 22.42 150.9C23.37 149.29 24.38 147.7 25.69 146.37C26.75 145.29 27.98 144.4 29.21 143.52C32.16 141.39 35.19 139.28 38.55 137.84L39.35 139.33C39.32 139.34 39.28 139.35 39.25 139.37C36.01 140.73 33.1 142.77 30.26 144.81C29.11 145.64 27.95 146.48 26.95 147.49C25.72 148.74 24.77 150.24 23.87 151.76C21.99 154.93 20.31 158.27 19.44 161.85C18.2 166.99 18.73 172.55 20.93 177.36C23.13 182.17 26.98 186.21 31.68 188.63C33.06 189.34 34.5 189.9 35.97 190.38C36.74 190.63 37.51 190.86 38.29 191.06C41.89 191.99 45.62 192.51 49.34 192.31C54.85 192.01 60.26 189.95 64.63 186.61L65.37 188L65.46 188.17C60.87 191.6 55.23 193.72 49.49 194.03C45.55 194.22 41.58 193.67 37.75 192.68Z" fill="#53D7E2"/>
<path d="M38.3 191.05C37.52 190.85 36.74 190.61 35.98 190.37C34.51 189.89 33.06 189.33 31.69 188.62C26.99 186.2 23.14 182.16 20.94 177.35C18.74 172.54 18.21 166.98 19.45 161.84C20.32 158.26 22 154.92 23.88 151.75C24.77 150.24 25.73 148.74 26.96 147.48C27.96 146.47 29.12 145.63 30.27 144.8C33.11 142.76 36.02 140.72 39.26 139.36C39.29 139.35 39.33 139.34 39.36 139.32L61.63 180.94L64.65 186.58C60.28 189.92 54.87 191.99 49.36 192.28C45.63 192.5 41.9 191.99 38.3 191.05Z" fill="#FEFDF8"/>
<path d="M65.44 188.22C60.86 191.63 55.22 193.7 49.5 194.01C45.55 194.22 41.58 193.68 37.76 192.68C35.34 192.05 32.95 191.24 30.73 190.09C25.73 187.51 21.64 183.22 19.3 178.11C16.96 173 16.4 167.09 17.72 161.63C18.64 157.82 20.43 154.28 22.43 150.9C23.38 149.29 24.39 147.7 25.7 146.37C26.76 145.29 27.99 144.4 29.22 143.52C30.89 142.32 32.58 141.12 34.35 140.04C35.77 139.17 37.24 138.38 38.78 137.74L65.44 188.22Z" stroke="#001726" stroke-width="0.8017" stroke-miterlimit="10" stroke-linecap="round" stroke-linejoin="round"/>
<path d="M39.27 139.41C38.08 139.91 36.94 140.5 35.83 141.14C33.91 142.26 32.09 143.54 30.3 144.83C29.15 145.66 27.99 146.49 27 147.51C25.77 148.76 24.82 150.26 23.93 151.77C22.06 154.94 20.37 158.26 19.51 161.84C18.27 166.97 18.8 172.51 20.99 177.32C23.18 182.12 27.03 186.15 31.72 188.57C33.81 189.65 36.05 190.41 38.32 191C41.91 191.93 45.64 192.44 49.35 192.24C54.74 191.95 60.06 189.99 64.37 186.77L39.27 139.41Z" stroke="#001726" stroke-width="0.8017" stroke-miterlimit="10" stroke-linecap="round" stroke-linejoin="round"/>
<path d="M40.48 170.32C39.01 171.18 37.55 172.03 36.08 172.89C34.87 173.6 33.65 174.31 32.35 174.84C31.86 175.04 31.35 175.21 30.89 175.49C30.31 175.84 29.83 176.34 29.5 176.92C29.18 177.48 29 178.15 29.12 178.78C29.25 179.44 29.7 179.99 30.13 180.5C31.39 182 32.65 183.5 34.15 184.75C35.66 186 37.43 186.98 39.36 187.27C39.91 187.35 40.52 187.36 40.96 187.01C41.15 186.85 41.29 186.64 41.42 186.42C43.86 182.34 44 177.27 45.98 172.94C46.5 171.81 47.14 170.73 47.46 169.53C47.67 168.75 47.69 167.81 47.11 167.25C46.72 166.88 46.13 166.77 45.59 166.84C44.37 167.01 44.04 167.61 43.23 168.4C42.43 169.18 41.45 169.75 40.48 170.32Z" fill="#53D7E2"/>
<path d="M41.95 185.88C41.73 186.59 41.45 187.39 40.76 187.68C40.17 187.93 39.5 187.72 38.91 187.48C36.74 186.59 34.72 185.32 32.98 183.75C32.11 182.97 31.3 182.11 30.57 181.19C29.85 180.29 29.43 179.37 28.95 178.32C28.91 178.24 28.87 178.15 28.86 178.06C28.85 177.97 28.86 177.87 28.89 177.78C28.97 177.53 29.19 177.34 29.39 177.17C30.02 176.65 30.61 176.03 31.38 175.72C32.12 175.42 32.76 175.07 33.45 174.65C35.21 173.57 36.98 172.5 38.74 171.42C40.22 170.51 41.66 169.54 43.13 168.61C44.05 168.03 45.84 166.51 47.03 166.77C47.36 166.84 47.64 167.13 47.71 167.47C47.82 167.98 47.45 168.36 47.25 168.78C47.04 169.21 46.86 169.71 46.72 170.17C46.2 171.91 45.67 173.64 45.15 175.38C44.07 178.87 43.01 182.38 41.95 185.88Z" stroke="#001726" stroke-width="0.8017" stroke-miterlimit="10" stroke-linecap="round" stroke-linejoin="round"/>
<path d="M45.06 170.52C43.29 175.22 42.14 180.3 39.11 184.3C39.01 184.44 38.89 184.58 38.74 184.66C38.3 184.9 37.78 184.54 37.4 184.21" stroke="#001726" stroke-width="0.8017" stroke-miterlimit="10" stroke-linecap="round" stroke-linejoin="round"/>
<path d="M31.81 160.15C30.6 159.69 29.4 159.2 28.15 158.88C27.82 158.79 27.48 158.72 27.14 158.75C26.52 158.81 25.98 159.21 25.63 159.71C25.28 160.22 25.09 160.82 24.95 161.42C24.36 163.95 24.49 166.59 24.88 169.14C25.07 170.36 25.42 171.56 25.62 172.77C25.76 173.63 26.04 174.28 27.1 174.31C27.75 174.33 28.37 174.05 28.96 173.78C31.21 172.75 33.45 171.72 35.7 170.69C38.6 169.36 41.64 168.34 44.63 167.22C45.64 166.84 47.11 166.11 46.32 165C45.86 164.36 44.46 163.82 43.73 163.7C41.15 163.27 38.59 162.46 36.11 161.66C34.66 161.2 33.23 160.7 31.81 160.15Z" fill="#53D7E2"/>
<path d="M28.74 173.94C28.06 174.24 27.27 174.55 26.6 174.23C26.03 173.95 25.75 173.3 25.54 172.7C24.79 170.48 24.43 168.12 24.47 165.78C24.49 164.61 24.61 163.43 24.82 162.28C25.03 161.15 25.45 160.23 25.93 159.17C25.97 159.09 26.01 159 26.07 158.93C26.13 158.86 26.21 158.8 26.3 158.77C26.55 158.67 26.83 158.71 27.09 158.75C27.9 158.88 28.75 158.92 29.49 159.3C30.2 159.66 30.88 159.92 31.65 160.16C33.62 160.79 35.59 161.41 37.56 162.04C39.22 162.57 40.89 163.02 42.56 163.51C43.6 163.82 45.92 164.17 46.51 165.25C46.67 165.55 46.63 165.94 46.43 166.22C46.12 166.63 45.59 166.61 45.14 166.73C44.67 166.85 44.18 167.05 43.74 167.25C42.09 167.99 40.43 168.73 38.78 169.47C35.42 170.94 32.08 172.44 28.74 173.94Z" stroke="#001726" stroke-width="0.8017" stroke-miterlimit="10" stroke-linecap="round" stroke-linejoin="round"/>
<path d="M26.56 168.42C27.18 169.22 27.33 170.47 28.27 170.85C28.62 170.99 29.01 170.97 29.38 170.93C29.99 170.86 30.6 170.72 31.18 170.51C32.21 170.15 33.15 169.6 34.14 169.15C36.67 167.99 39.46 167.47 41.94 166.2" stroke="#001726" stroke-width="0.8017" stroke-miterlimit="10" stroke-linecap="round" stroke-linejoin="round"/>
<path d="M38.21 144.13C37.48 144.02 36.75 144.33 36.08 144.64C35.22 145.03 34.37 145.42 33.55 145.89C31.08 147.32 29.06 149.51 27.83 152.09C27.48 152.82 27.21 153.7 27.6 154.4C27.78 154.72 28.09 154.96 28.39 155.18C30.95 157.06 33.77 158.6 36.74 159.74C37.34 159.97 37.95 160.19 38.53 160.49C39.29 160.89 39.97 161.43 40.68 161.92C41.93 162.78 43.3 163.48 44.72 163.99C45.25 164.18 45.75 164.41 46.02 163.8C46.25 163.28 46.32 162.61 46.2 162.05C46.07 161.43 45.76 160.86 45.55 160.26C45.22 159.33 45.13 158.32 44.74 157.41C44.57 157 44.34 156.61 44.13 156.23C43.42 154.95 42.98 153.52 42.27 152.25C41.99 151.76 41.65 151.45 41.47 150.88C41.26 150.23 41.16 149.55 40.99 148.9C40.82 148.28 40.66 147.65 40.59 147C40.55 146.58 40.62 146.14 40.4 145.76C39.99 145.06 39.03 144.25 38.21 144.13Z" fill="#53D7E2"/>
<path d="M28.5 155.51C27.84 155.16 27.11 154.73 26.96 154C26.82 153.38 27.16 152.76 27.51 152.22C28.79 150.25 30.43 148.52 32.3 147.1C33.24 146.39 34.23 145.76 35.27 145.21C36.29 144.68 37.27 144.44 38.4 144.16C38.49 144.14 38.58 144.12 38.67 144.12C38.76 144.12 38.86 144.15 38.94 144.2C39.17 144.33 39.32 144.58 39.45 144.81C39.85 145.53 40.34 146.22 40.5 147.03C40.65 147.81 40.87 148.51 41.16 149.26C41.88 151.19 42.61 153.13 43.33 155.06C43.94 156.69 44.62 158.29 45.26 159.9C45.66 160.91 46.81 162.96 46.33 164.08C46.19 164.39 45.86 164.61 45.52 164.61C45 164.62 44.69 164.19 44.32 163.91C43.93 163.62 43.48 163.35 43.05 163.13C41.45 162.29 39.84 161.44 38.24 160.6C34.98 158.92 31.74 157.22 28.5 155.51Z" stroke="#001726" stroke-width="0.8017" stroke-miterlimit="10" stroke-linecap="round" stroke-linejoin="round"/>
<path d="M31.11 151.36C30.69 151.53 30.51 152.07 30.62 152.52C30.73 152.96 31.05 153.32 31.38 153.64C34.54 156.73 39.16 157.96 42.35 161.03" stroke="#001726" stroke-width="0.8017" stroke-miterlimit="10" stroke-linecap="round" stroke-linejoin="round"/>
<path d="M46.84 174.53C46.57 176.21 46.3 177.89 46.04 179.56C45.82 180.95 45.6 182.34 45.18 183.68C45.02 184.19 44.83 184.69 44.76 185.22C44.66 185.89 44.74 186.58 44.99 187.21C45.22 187.81 45.62 188.38 46.19 188.68C46.78 189 47.49 189 48.16 188.99C50.11 188.97 52.08 188.95 54 188.58C55.92 188.21 57.81 187.46 59.25 186.15C59.66 185.78 60.06 185.31 60.06 184.75C60.06 184.5 59.98 184.26 59.9 184.02C58.29 179.54 54.46 176.22 52.37 171.95C51.82 170.84 51.39 169.65 50.67 168.64C50.2 167.98 49.48 167.37 48.68 167.47C48.14 167.54 47.69 167.92 47.4 168.39C46.75 169.44 47.01 170.08 47.11 171.2C47.19 172.3 47.01 173.43 46.84 174.53Z" fill="#53D7E2"/>
<path d="M59.68 183.39C60.09 184.01 60.52 184.74 60.32 185.45C60.14 186.06 59.55 186.45 58.99 186.75C56.92 187.86 54.66 188.6 52.34 188.95C51.18 189.13 50 189.2 48.83 189.18C47.68 189.16 46.7 188.9 45.58 188.6C45.49 188.58 45.4 188.55 45.32 188.51C45.24 188.46 45.17 188.39 45.12 188.31C44.98 188.08 44.97 187.8 44.97 187.53C44.96 186.71 44.87 185.86 45.11 185.07C45.35 184.31 45.49 183.59 45.6 182.8C45.89 180.76 46.18 178.71 46.47 176.67C46.71 174.95 46.88 173.22 47.1 171.5C47.23 170.42 47.2 168.07 48.16 167.32C48.43 167.11 48.82 167.08 49.13 167.24C49.59 167.48 49.65 168.01 49.84 168.43C50.04 168.87 50.31 169.32 50.58 169.72C51.58 171.23 52.59 172.74 53.59 174.25C55.62 177.3 57.65 180.34 59.68 183.39Z" stroke="#001726" stroke-width="0.8017" stroke-miterlimit="10" stroke-linecap="round" stroke-linejoin="round"/>
<path d="M55.35 186.2C56.09 186.29 56.72 185.57 56.81 184.83C56.9 184.09 56.59 183.37 56.28 182.7C54.43 178.66 52.28 174.75 49.85 171.03" stroke="#001726" stroke-width="0.8017" stroke-miterlimit="10" stroke-linecap="round" stroke-linejoin="round"/>
<path d="M82.91 147.75C82.7 147.39 82.52 147.01 82.35 146.63C82.32 146.51 82.29 146.39 82.27 146.26L82.91 147.75Z" fill="#EAF2AE"/>
<path d="M50.19 160.94C50.33 159.76 50.78 158.65 51.23 157.55C51.33 157.3 51.44 157.05 51.54 156.8C51.57 156.69 51.61 156.57 51.64 156.46C51.93 155.43 52.25 154.37 52.9 153.52C53.51 152.04 54.14 150.54 55.22 149.35C58.52 145.7 64.52 146.37 68.67 143.74C70.13 142.82 71.31 141.52 72.71 140.51C74.11 139.5 75.89 138.78 77.55 139.27C79.21 139.76 80.32 141.33 80.99 142.93C81.5 144.14 81.84 145.43 82.35 146.63C82.69 148.07 84.07 149.08 85.11 150.18C87.15 152.34 88.04 155.33 89.65 157.83C90.54 159.21 91.67 160.47 92.3 161.99C93.1 163.9 93.03 166.16 92.11 168.01C91.67 168.9 91.05 169.71 90.79 170.66C90.55 171.53 90.62 172.48 90.32 173.34C89.85 174.65 88.6 175.5 87.39 176.17C87.3 176.22 87.21 176.27 87.12 176.32C87.04 176.37 86.95 176.41 86.87 176.46C81.82 179.15 76.08 180.65 71.63 184.24C70.3 185.31 68.99 186.61 67.29 186.82C65.01 187.09 63.03 185.26 61.73 183.37C59.28 179.82 57.94 175.61 55.54 172.03C54.37 170.28 52.96 168.7 51.86 166.91C50.75 165.11 49.95 163.03 50.19 160.94Z" fill="#FEFDF8"/>
<path d="M82.91 147.75C82.04 146.26 81.66 144.53 80.99 142.93C80.32 141.33 79.21 139.76 77.55 139.27C75.9 138.78 74.11 139.5 72.71 140.51C71.31 141.52 70.13 142.82 68.67 143.74C64.51 146.37 58.52 145.7 55.22 149.35C54.14 150.55 53.5 152.08 52.88 153.57C52.33 154.9 51.78 156.23 51.24 157.55C50.79 158.65 50.33 159.76 50.2 160.94C49.96 163.03 50.76 165.11 51.86 166.9C52.96 168.69 54.37 170.27 55.54 172.02C57.94 175.6 59.29 179.81 61.73 183.36C63.03 185.25 65.01 187.08 67.29 186.81C68.99 186.61 70.3 185.31 71.63 184.23C76.24 180.51 82.22 179.04 87.39 176.17C88.6 175.5 89.86 174.65 90.32 173.34C90.62 172.49 90.55 171.54 90.79 170.66C91.05 169.71 91.68 168.9 92.11 168.01C93.03 166.15 93.1 163.9 92.3 161.99C91.67 160.47 90.54 159.22 89.65 157.83C88.04 155.33 87.15 152.34 85.11 150.18C83.98 148.98 82.43 147.9 82.27 146.26" stroke="#001726" stroke-width="0.8017" stroke-miterlimit="10" stroke-linecap="round" stroke-linejoin="round"/>
<path d="M75.66 152.94C73.99 151.88 71.75 151.18 70.07 152.24C69.49 152.61 69.04 153.15 68.53 153.62C65.24 156.64 59.95 156.09 56.2 158.51C55.5 158.96 54.86 159.51 54.23 160.05C53.03 161.08 51.84 162.12 50.64 163.15" stroke="#001726" stroke-width="0.8017" stroke-miterlimit="10" stroke-linecap="round" stroke-linejoin="round"/>
<path d="M86.03 176.75C88.55 176.12 90.06 173.36 88.83 171C88.22 169.83 87.13 168.99 86.01 168.31C84.89 167.63 83.69 167.05 82.66 166.23C81.57 165.35 80.7 164.18 80.18 162.88C79.47 161.13 79.31 159.07 77.99 157.72" stroke="#001726" stroke-width="0.8017" stroke-miterlimit="10" stroke-linecap="round" stroke-linejoin="round"/>
<path d="M54.19 162.73C55.34 163.6 56.26 164.79 56.81 166.12C57.05 166.7 57.22 167.31 57.49 167.87C58.59 170.21 61.15 171.6 62.22 173.94C62.78 175.17 62.93 176.65 63.87 177.62" stroke="#001726" stroke-width="0.8017" stroke-miterlimit="10" stroke-linecap="round" stroke-linejoin="round"/>
<path d="M73.93 163.01C74.31 163.38 74.28 164.06 73.93 164.46C73.58 164.86 72.98 164.98 72.47 164.84C72.1 164.73 71.76 164.49 71.54 164.18C71.12 163.58 71.08 162.71 70.49 162.28" stroke="#001726" stroke-width="0.8017" stroke-miterlimit="10" stroke-linecap="round" stroke-linejoin="round"/>
<path d="M72.15 176.88C72.32 177.34 72.17 177.9 71.79 178.2C71.41 178.51 70.83 178.53 70.42 178.27C70.08 178.05 69.88 177.67 69.74 177.29C69.35 176.24 69.29 175 68.48 174.23" stroke="#001726" stroke-width="0.8017" stroke-miterlimit="10" stroke-linecap="round" stroke-linejoin="round"/>
<path d="M89.73 165.92C89.99 166.19 90.14 166.56 90.15 166.93C90.15 167.08 90.12 167.24 90.02 167.36C89.87 167.53 89.62 167.55 89.4 167.5C88.66 167.35 88.14 166.69 87.7 166.07" stroke="#001726" stroke-width="0.8017" stroke-miterlimit="10" stroke-linecap="round" stroke-linejoin="round"/>
<path d="M87.46 160.47C85.58 158.59 85.09 155.77 83.83 153.42C83.11 152.07 82.12 150.88 81.14 149.7" stroke="#001726" stroke-width="0.8017" stroke-miterlimit="10" stroke-linecap="round" stroke-linejoin="round"/>
<path d="M75.14 142.31C73.35 144.03 71.41 145.65 69.15 146.68C66.72 147.8 64.03 148.2 61.42 148.82C58.3 149.56 54.96 150.86 52.92 153.47C52.25 154.33 51.94 155.41 51.64 156.45C51.32 157.58 51 158.7 50.68 159.83" stroke="#001726" stroke-width="0.8017" stroke-miterlimit="10" stroke-linecap="round" stroke-linejoin="round"/>
<path d="M84.71 170.09C84.68 171.35 83.94 172.58 82.83 173.19C81.46 173.95 79.56 173.86 78.6 175.1C78.39 175.37 78.24 175.69 78.06 175.99C77.56 176.81 76.8 177.48 75.91 177.85" stroke="#001726" stroke-width="0.8017" stroke-miterlimit="10" stroke-linecap="round" stroke-linejoin="round"/>
<path d="M59.55 154.99C58.88 155.24 58.21 155.49 57.54 155.75C56.26 156.23 54.94 156.73 53.93 157.66" stroke="#001726" stroke-width="0.8017" stroke-miterlimit="10" stroke-linecap="round" stroke-linejoin="round"/>
<path d="M75.93 145.39C75.51 146.44 75.21 147.54 75.02 148.65" stroke="#001726" stroke-width="0.8017" stroke-miterlimit="10" stroke-linecap="round" stroke-linejoin="round"/>
<path d="M74.48 238.35C74.84 238.13 75.22 237.93 75.61 237.76C75.73 237.73 75.86 237.69 75.99 237.67L74.48 238.35Z" fill="#EAF2AE"/>
<path d="M60.29 205.25C61.5 205.36 62.64 205.8 63.77 206.24C64.03 206.34 64.28 206.44 64.54 206.54C64.66 206.57 64.78 206.6 64.89 206.63C65.95 206.91 67.04 207.2 67.92 207.85C69.44 208.44 70.99 209.05 72.23 210.12C76.03 213.41 75.48 219.54 78.26 223.73C79.23 225.2 80.59 226.37 81.64 227.78C82.7 229.19 83.47 230.99 83.01 232.69C82.55 234.4 80.97 235.57 79.35 236.29C78.12 236.84 76.82 237.21 75.6 237.76C74.14 238.14 73.14 239.57 72.04 240.66C69.88 242.79 66.85 243.77 64.33 245.47C62.94 246.41 61.68 247.59 60.14 248.27C58.21 249.13 55.9 249.1 53.99 248.21C53.07 247.78 52.24 247.17 51.26 246.92C50.36 246.69 49.4 246.79 48.52 246.5C47.17 246.05 46.28 244.8 45.57 243.57C45.52 243.48 45.47 243.38 45.41 243.29C45.36 243.21 45.31 243.12 45.27 243.03C42.42 237.93 40.76 232.11 36.99 227.65C35.87 226.32 34.51 225 34.26 223.28C33.93 220.96 35.76 218.9 37.66 217.52C41.23 214.94 45.49 213.47 49.09 210.95C50.85 209.72 52.43 208.25 54.23 207.08C56.04 205.91 58.15 205.05 60.29 205.25Z" fill="#FEFDF8"/>
<path d="M74.48 238.35C75.99 237.42 77.74 237.01 79.36 236.29C80.98 235.57 82.56 234.4 83.02 232.69C83.48 230.99 82.71 229.19 81.65 227.78C80.59 226.37 79.24 225.2 78.27 223.73C75.49 219.54 76.04 213.41 72.24 210.12C70.99 209.04 69.42 208.42 67.88 207.83C66.51 207.3 65.15 206.77 63.78 206.24C62.65 205.8 61.5 205.36 60.3 205.25C58.16 205.05 56.06 205.91 54.25 207.08C52.45 208.25 50.87 209.72 49.11 210.95C45.51 213.48 41.24 214.95 37.68 217.52C35.78 218.89 33.95 220.95 34.28 223.28C34.52 225.01 35.88 226.32 37.01 227.65C40.91 232.27 42.54 238.34 45.59 243.56C46.3 244.79 47.2 246.04 48.54 246.49C49.42 246.78 50.38 246.69 51.28 246.91C52.26 247.16 53.1 247.78 54.01 248.2C55.93 249.09 58.23 249.12 60.16 248.26C61.7 247.58 62.95 246.4 64.35 245.46C66.87 243.76 69.89 242.79 72.06 240.65C73.26 239.47 74.33 237.87 76 237.66" stroke="#001726" stroke-width="0.8017" stroke-miterlimit="10" stroke-linecap="round" stroke-linejoin="round"/>
<path d="M69.03 231.07C70.08 229.34 70.74 227.04 69.62 225.35C69.23 224.76 68.66 224.32 68.18 223.81C65.03 220.52 65.47 215.11 62.92 211.33C62.44 210.62 61.87 209.99 61.3 209.36C60.22 208.16 59.14 206.97 58.06 205.77" stroke="#001726" stroke-width="0.8017" stroke-miterlimit="10" stroke-linecap="round" stroke-linejoin="round"/>
<path d="M44.95 242.19C45.65 244.75 48.51 246.22 50.89 244.92C52.07 244.27 52.9 243.14 53.57 241.98C54.24 240.82 54.8 239.58 55.62 238.52C56.5 237.39 57.67 236.48 58.99 235.91C60.76 235.15 62.86 234.94 64.21 233.56" stroke="#001726" stroke-width="0.8017" stroke-miterlimit="10" stroke-linecap="round" stroke-linejoin="round"/>
<path d="M58.55 209.37C57.69 210.57 56.5 211.53 55.14 212.12C54.55 212.38 53.94 212.56 53.37 212.85C51.01 214.02 49.65 216.67 47.28 217.82C46.03 218.42 44.53 218.6 43.56 219.59" stroke="#001726" stroke-width="0.8017" stroke-miterlimit="10" stroke-linecap="round" stroke-linejoin="round"/>
<path d="M58.71 229.53C58.34 229.92 57.65 229.91 57.23 229.56C56.82 229.21 56.68 228.6 56.81 228.07C56.91 227.69 57.15 227.34 57.47 227.11C58.07 226.67 58.96 226.61 59.39 226" stroke="#001726" stroke-width="0.8017" stroke-miterlimit="10" stroke-linecap="round" stroke-linejoin="round"/>
<path d="M44.51 228.02C44.05 228.21 43.47 228.06 43.15 227.68C42.83 227.3 42.79 226.71 43.05 226.28C43.27 225.93 43.65 225.72 44.03 225.57C45.09 225.15 46.36 225.06 47.13 224.22" stroke="#001726" stroke-width="0.8017" stroke-miterlimit="10" stroke-linecap="round" stroke-linejoin="round"/>
<path d="M56.09 245.72C55.82 245.99 55.45 246.16 55.07 246.17C54.91 246.17 54.75 246.15 54.63 246.05C54.45 245.9 54.43 245.64 54.47 245.42C54.61 244.66 55.27 244.12 55.89 243.65" stroke="#001726" stroke-width="0.8017" stroke-miterlimit="10" stroke-linecap="round" stroke-linejoin="round"/>
<path d="M61.6 243.28C63.47 241.32 66.35 240.75 68.71 239.42C70.07 238.65 71.26 237.62 72.45 236.59" stroke="#001726" stroke-width="0.8017" stroke-miterlimit="10" stroke-linecap="round" stroke-linejoin="round"/>
<path d="M79.86 230.3C78.06 228.51 76.37 226.57 75.26 224.28C74.06 221.82 73.59 219.09 72.9 216.44C72.07 213.27 70.68 209.89 67.96 207.86C67.07 207.19 65.96 206.9 64.89 206.62C63.73 206.32 62.58 206.01 61.42 205.71" stroke="#001726" stroke-width="0.8017" stroke-miterlimit="10" stroke-linecap="round" stroke-linejoin="round"/>
<path d="M51.72 240.69C50.43 240.69 49.17 239.96 48.51 238.84C47.7 237.45 47.75 235.52 46.46 234.56C46.18 234.35 45.85 234.21 45.54 234.03C44.69 233.54 43.99 232.78 43.59 231.88" stroke="#001726" stroke-width="0.8017" stroke-miterlimit="10" stroke-linecap="round" stroke-linejoin="round"/>
<path d="M66.57 214.67C66.3 213.99 66.03 213.31 65.75 212.64C65.23 211.34 64.69 210.01 63.72 209" stroke="#001726" stroke-width="0.8017" stroke-miterlimit="10" stroke-linecap="round" stroke-linejoin="round"/>
<path d="M76.74 231.17C75.66 230.77 74.53 230.48 73.39 230.31" stroke="#001726" stroke-width="0.8017" stroke-miterlimit="10" stroke-linecap="round" stroke-linejoin="round"/>
<path d="M82.42 182.56C83.07 184.98 83.55 187.45 83.66 189.95C83.9 195.57 82.2 201.25 78.91 205.81C75.62 210.37 70.78 213.79 65.37 215.35C61.6 216.44 57.64 216.63 53.72 216.57C51.85 216.54 49.97 216.45 48.16 215.97C46.7 215.58 45.32 214.95 43.94 214.32C40.63 212.81 37.3 211.23 34.38 209.02L35.28 207.59C35.31 207.61 35.33 207.64 35.36 207.66C38.15 209.8 41.36 211.32 44.54 212.78C45.83 213.37 47.13 213.97 48.51 214.33C50.21 214.78 51.98 214.86 53.74 214.89C57.43 214.95 61.16 214.76 64.7 213.74C69.78 212.27 74.34 209.06 77.43 204.77C80.52 200.48 82.12 195.13 81.9 189.85C81.83 188.3 81.61 186.77 81.29 185.26C81.13 184.47 80.94 183.68 80.73 182.9C79.76 179.31 78.35 175.81 76.34 172.68C73.35 168.04 68.88 164.36 63.81 162.23L64.65 160.9L64.75 160.74C70 163.03 74.64 166.88 77.75 171.71C79.9 175.03 81.39 178.74 82.42 182.56Z" fill="#53D7E2"/>
<path d="M80.74 182.89C80.95 183.67 81.13 184.46 81.3 185.25C81.62 186.77 81.84 188.3 81.91 189.84C82.13 195.13 80.53 200.47 77.44 204.76C74.35 209.05 69.79 212.27 64.71 213.73C61.17 214.75 57.44 214.94 53.75 214.88C51.99 214.85 50.22 214.77 48.52 214.32C47.15 213.96 45.84 213.36 44.55 212.77C41.37 211.31 38.16 209.8 35.37 207.65C35.34 207.63 35.32 207.6 35.29 207.58L60.42 167.62L63.83 162.2C68.9 164.34 73.37 168.02 76.36 172.65C78.36 175.81 79.76 179.3 80.74 182.89Z" fill="#FEFDF8"/>
<path d="M64.83 160.72C70.06 163.01 74.65 166.88 77.75 171.7C79.89 175.03 81.38 178.74 82.42 182.56C83.07 184.98 83.55 187.45 83.66 189.95C83.9 195.57 82.2 201.25 78.91 205.81C75.63 210.37 70.78 213.79 65.37 215.35C61.6 216.44 57.64 216.63 53.72 216.57C51.85 216.54 49.97 216.45 48.16 215.97C46.7 215.58 45.32 214.95 43.94 214.32C42.07 213.46 40.19 212.59 38.38 211.59C36.92 210.78 35.51 209.9 34.19 208.88L64.83 160.72Z" stroke="#001726" stroke-width="0.8017" stroke-miterlimit="10" stroke-linecap="round" stroke-linejoin="round"/>
<path d="M35.4 207.63C36.42 208.42 37.5 209.12 38.61 209.76C40.53 210.87 42.55 211.81 44.56 212.73C45.85 213.32 47.15 213.91 48.52 214.28C50.22 214.73 51.99 214.81 53.74 214.84C57.42 214.9 61.14 214.71 64.68 213.69C69.75 212.23 74.31 209.02 77.39 204.73C80.47 200.44 82.07 195.11 81.85 189.83C81.75 187.48 81.3 185.16 80.69 182.89C79.72 179.31 78.32 175.82 76.31 172.69C73.39 168.15 69.05 164.51 64.11 162.36L35.4 207.63Z" stroke="#001726" stroke-width="0.8017" stroke-miterlimit="10" stroke-linecap="round" stroke-linejoin="round"/>
<path d="M61.64 191.27C63.11 192.12 64.58 192.97 66.05 193.82C67.27 194.52 68.49 195.23 69.59 196.1C70.01 196.43 70.41 196.78 70.87 197.05C71.46 197.38 72.13 197.55 72.8 197.55C73.45 197.55 74.11 197.38 74.6 196.96C75.11 196.52 75.36 195.86 75.59 195.23C76.27 193.4 76.95 191.55 77.29 189.63C77.63 187.71 77.6 185.67 76.89 183.85C76.69 183.33 76.39 182.79 75.87 182.59C75.64 182.5 75.38 182.49 75.13 182.48C70.37 182.38 65.9 184.77 61.17 185.2C59.93 185.31 58.67 185.29 57.47 185.61C56.69 185.82 55.86 186.26 55.66 187.05C55.53 187.58 55.73 188.14 56.06 188.57C56.81 189.55 57.5 189.54 58.58 189.85C59.69 190.14 60.67 190.71 61.64 191.27Z" fill="#53D7E2"/>
<path d="M74.43 182.28C75.16 182.11 75.99 181.97 76.58 182.42C77.09 182.8 77.24 183.49 77.32 184.13C77.62 186.46 77.51 188.84 77.02 191.13C76.77 192.28 76.43 193.4 75.99 194.5C75.56 195.57 74.97 196.39 74.3 197.33C74.25 197.41 74.19 197.48 74.12 197.54C74.05 197.6 73.96 197.64 73.86 197.66C73.6 197.71 73.33 197.62 73.08 197.53C72.31 197.25 71.48 197.04 70.84 196.52C70.21 196.03 69.59 195.64 68.89 195.25C67.08 194.25 65.27 193.25 63.46 192.26C61.94 191.42 60.38 190.65 58.85 189.84C57.89 189.33 55.68 188.53 55.32 187.36C55.22 187.03 55.33 186.65 55.59 186.43C55.97 186.08 56.49 186.21 56.96 186.18C57.44 186.15 57.96 186.05 58.43 185.95C60.2 185.55 61.96 185.14 63.73 184.74C67.3 183.91 70.86 183.1 74.43 182.28Z" stroke="#001726" stroke-width="0.8017" stroke-miterlimit="10" stroke-linecap="round" stroke-linejoin="round"/>
<path d="M59.55 187.2C64.51 186.41 69.49 184.89 74.47 185.54C74.64 185.56 74.82 185.59 74.96 185.68C75.39 185.95 75.34 186.57 75.23 187.07" stroke="#001726" stroke-width="0.8017" stroke-miterlimit="10" stroke-linecap="round" stroke-linejoin="round"/>
<path d="M57.11 203.83C57.31 205.11 57.48 206.39 57.82 207.64C57.91 207.97 58.01 208.3 58.21 208.58C58.56 209.09 59.18 209.36 59.8 209.42C60.42 209.48 61.03 209.34 61.63 209.16C64.13 208.42 66.35 207 68.37 205.39C69.34 204.62 70.2 203.73 71.16 202.95C71.84 202.4 72.26 201.83 71.76 200.91C71.45 200.33 70.9 199.93 70.37 199.55C68.36 198.11 66.35 196.67 64.35 195.23C61.76 193.37 59.36 191.24 56.92 189.19C56.09 188.5 54.68 188.52 54.11 189.76C53.78 190.48 54.04 191.02 54.3 191.72C55.21 194.17 55.77 196.8 56.3 199.35C56.6 200.84 56.88 202.33 57.11 203.83Z" fill="#53D7E2"/>
<path d="M70.6 199.67C71.2 200.11 71.86 200.64 71.91 201.39C71.95 202.03 71.53 202.59 71.11 203.07C69.55 204.83 67.68 206.3 65.63 207.43C64.6 208 63.52 208.47 62.42 208.86C61.33 209.24 60.32 209.33 59.17 209.44C59.08 209.45 58.98 209.46 58.89 209.44C58.8 209.42 58.71 209.38 58.63 209.32C58.42 209.16 58.31 208.89 58.22 208.64C57.93 207.87 57.55 207.11 57.51 206.29C57.47 205.49 57.36 204.77 57.19 203.98C56.76 201.96 56.33 199.94 55.89 197.92C55.53 196.22 55.09 194.54 54.69 192.85C54.44 191.79 53.6 189.6 54.24 188.56C54.42 188.27 54.78 188.11 55.12 188.15C55.63 188.21 55.88 188.69 56.2 189.02C56.54 189.36 56.95 189.69 57.34 189.98C58.8 191.05 60.27 192.12 61.73 193.19C64.69 195.35 67.65 197.51 70.6 199.67Z" stroke="#001726" stroke-width="0.8017" stroke-miterlimit="10" stroke-linecap="round" stroke-linejoin="round"/>
<path d="M66.89 204.3C67.28 203.37 68.28 202.62 68.15 201.61C68.1 201.24 67.89 200.91 67.67 200.61C67.3 200.11 66.88 199.66 66.42 199.25C65.6 198.54 64.65 197.99 63.77 197.35C61.51 195.73 59.68 193.55 57.35 192.03" stroke="#001726" stroke-width="0.8017" stroke-miterlimit="10" stroke-linecap="round" stroke-linejoin="round"/>
<path d="M40.02 206.21C40.29 206.9 40.92 207.38 41.52 207.81C42.28 208.36 43.04 208.91 43.85 209.39C46.32 210.83 49.22 211.5 52.07 211.29C52.87 211.23 53.77 211.03 54.19 210.34C54.38 210.02 54.43 209.64 54.48 209.27C54.84 206.11 54.78 202.91 54.31 199.76C54.21 199.12 54.1 198.48 54.08 197.84C54.05 196.98 54.19 196.12 54.26 195.27C54.39 193.76 54.32 192.23 54.06 190.73C53.96 190.17 53.92 189.62 53.25 189.69C52.68 189.75 52.07 190.02 51.64 190.4C51.17 190.82 50.83 191.37 50.41 191.85C49.76 192.6 48.94 193.18 48.33 193.96C48.06 194.31 47.84 194.7 47.61 195.08C46.85 196.33 45.82 197.42 45.08 198.66C44.79 199.15 44.69 199.59 44.28 200.03C43.82 200.53 43.28 200.96 42.8 201.43C42.34 201.88 41.88 202.34 41.35 202.72C41.01 202.97 40.59 203.12 40.37 203.5C39.94 204.2 39.72 205.44 40.02 206.21Z" fill="#53D7E2"/>
<path d="M54.72 209.01C54.75 209.75 54.73 210.6 54.18 211.1C53.71 211.53 53 211.54 52.36 211.5C50.02 211.36 47.7 210.8 45.54 209.88C44.46 209.42 43.42 208.87 42.43 208.23C41.46 207.61 40.77 206.87 39.97 206.03C39.91 205.96 39.84 205.89 39.8 205.81C39.76 205.73 39.74 205.63 39.73 205.54C39.73 205.27 39.87 205.03 40.01 204.8C40.43 204.1 40.8 203.33 41.42 202.79C42.02 202.27 42.52 201.73 43.03 201.11C44.35 199.52 45.68 197.94 47 196.35C48.11 195.02 49.16 193.63 50.25 192.28C50.93 191.43 52.14 189.42 53.35 189.28C53.69 189.24 54.04 189.43 54.22 189.72C54.49 190.16 54.26 190.65 54.2 191.11C54.14 191.59 54.13 192.12 54.15 192.6C54.21 194.41 54.27 196.22 54.33 198.04C54.47 201.69 54.59 205.35 54.72 209.01Z" stroke="#001726" stroke-width="0.8017" stroke-miterlimit="10" stroke-linecap="round" stroke-linejoin="round"/>
<path d="M49.81 208.8C50.17 209.09 50.72 208.97 51.06 208.65C51.39 208.33 51.54 207.88 51.66 207.44C52.77 203.16 51.56 198.54 52.64 194.26" stroke="#001726" stroke-width="0.8017" stroke-miterlimit="10" stroke-linecap="round" stroke-linejoin="round"/>
<path d="M62.15 183.66C63.74 183.06 65.33 182.46 66.92 181.87C68.23 181.38 69.55 180.88 70.92 180.58C71.44 180.47 71.97 180.38 72.47 180.19C73.1 179.95 73.66 179.53 74.08 179.01C74.49 178.51 74.78 177.89 74.76 177.24C74.74 176.57 74.39 175.95 74.05 175.37C73.06 173.68 72.07 171.98 70.8 170.5C69.53 169.02 67.94 167.75 66.08 167.14C65.55 166.97 64.95 166.86 64.46 167.13C64.24 167.25 64.07 167.44 63.91 167.63C60.82 171.24 59.83 176.22 57.15 180.15C56.45 181.18 55.64 182.14 55.12 183.26C54.78 184 54.6 184.92 55.09 185.57C55.41 186 55.98 186.21 56.52 186.23C57.75 186.27 58.18 185.73 59.11 185.09C60.04 184.46 61.11 184.05 62.15 183.66Z" fill="#53D7E2"/>
<path d="M63.49 168.12C63.82 167.46 64.24 166.72 64.97 166.55C65.59 166.4 66.22 166.73 66.76 167.06C68.75 168.31 70.51 169.91 71.97 171.75C72.7 172.67 73.35 173.65 73.91 174.68C74.46 175.69 74.72 176.67 75.02 177.79C75.04 177.88 75.07 177.97 75.07 178.06C75.07 178.15 75.04 178.25 75 178.33C74.87 178.57 74.63 178.71 74.4 178.85C73.69 179.26 73 179.77 72.2 179.94C71.42 180.11 70.73 180.34 69.98 180.64C68.06 181.4 66.14 182.16 64.22 182.92C62.6 183.56 61.02 184.27 59.42 184.94C58.42 185.36 56.39 186.55 55.26 186.09C54.94 185.96 54.73 185.63 54.71 185.29C54.69 184.77 55.12 184.46 55.39 184.08C55.67 183.69 55.93 183.23 56.15 182.8C56.96 181.18 57.78 179.56 58.59 177.94C60.21 174.66 61.85 171.39 63.49 168.12Z" stroke="#001726" stroke-width="0.8017" stroke-miterlimit="10" stroke-linecap="round" stroke-linejoin="round"/>
<path d="M68.08 170.49C67.8 169.8 66.85 169.61 66.17 169.9C65.49 170.19 65.01 170.81 64.58 171.42C61.98 175.03 59.65 178.83 57.63 182.79" stroke="#001726" stroke-width="0.8017" stroke-miterlimit="10" stroke-linecap="round" stroke-linejoin="round"/>
<path d="M54.84 265.01C52.4 265.55 49.9 265.91 47.4 265.9C41.78 265.87 36.18 263.9 31.78 260.41C27.38 256.91 24.19 251.91 22.89 246.44C21.98 242.63 21.97 238.66 22.22 234.75C22.34 232.89 22.52 231.01 23.08 229.23C23.53 227.79 24.23 226.44 24.92 225.09C26.59 221.86 28.32 218.6 30.66 215.79L32.05 216.76C32.03 216.79 32 216.81 31.98 216.84C29.71 219.52 28.04 222.66 26.44 225.77C25.79 227.03 25.13 228.3 24.71 229.66C24.18 231.34 24.01 233.1 23.9 234.86C23.67 238.54 23.68 242.27 24.53 245.86C25.75 251.01 28.75 255.71 32.89 259C37.03 262.29 42.3 264.14 47.59 264.17C49.14 264.18 50.68 264.02 52.21 263.78C53.01 263.65 53.8 263.51 54.59 263.34C58.22 262.54 61.78 261.3 65 259.44C69.77 256.68 73.66 252.38 76.03 247.42L77.32 248.32L77.48 248.43C74.94 253.57 70.88 258.01 65.91 260.89C62.49 262.84 58.71 264.15 54.84 265.01Z" fill="#53D7E2"/>
<path d="M54.59 263.31C53.8 263.48 53.01 263.63 52.21 263.75C50.68 263.99 49.14 264.15 47.59 264.14C42.3 264.11 37.04 262.26 32.89 258.97C28.75 255.68 25.75 250.97 24.53 245.83C23.68 242.24 23.67 238.51 23.9 234.83C24.01 233.08 24.18 231.31 24.71 229.63C25.14 228.27 25.79 227 26.44 225.74C28.04 222.63 29.71 219.5 31.98 216.81C32 216.78 32.03 216.76 32.05 216.73L70.78 243.72L76.03 247.38C73.66 252.34 69.77 256.64 65 259.4C61.78 261.27 58.22 262.51 54.59 263.31Z" fill="#FEFDF8"/>
<path d="M77.49 248.47C74.95 253.58 70.87 257.99 65.91 260.86C62.49 262.84 58.71 264.16 54.84 265.01C52.4 265.55 49.9 265.91 47.4 265.9C41.78 265.87 36.18 263.9 31.78 260.41C27.38 256.91 24.19 251.91 22.89 246.44C21.98 242.63 21.97 238.66 22.22 234.75C22.34 232.89 22.52 231.01 23.08 229.23C23.53 227.79 24.23 226.44 24.92 225.09C25.86 223.26 26.83 221.42 27.91 219.66C28.78 218.24 29.73 216.87 30.81 215.6L77.49 248.47Z" stroke="#001726" stroke-width="0.8017" stroke-miterlimit="10" stroke-linecap="round" stroke-linejoin="round"/>
<path d="M32.02 216.85C31.19 217.83 30.44 218.88 29.74 219.96C28.54 221.82 27.5 223.8 26.49 225.76C25.84 227.02 25.19 228.29 24.76 229.64C24.23 231.31 24.07 233.08 23.95 234.83C23.72 238.5 23.73 242.23 24.58 245.81C25.8 250.95 28.79 255.65 32.93 258.93C37.06 262.21 42.32 264.06 47.6 264.09C49.95 264.1 52.29 263.76 54.58 263.26C58.21 262.46 61.76 261.23 64.97 259.37C69.64 256.67 73.49 252.5 75.87 247.68L32.02 216.85Z" stroke="#001726" stroke-width="0.8017" stroke-miterlimit="10" stroke-linecap="round" stroke-linejoin="round"/>
<path d="M47.13 243.84C46.21 245.27 45.29 246.7 44.38 248.13C43.62 249.31 42.86 250.5 41.94 251.56C41.59 251.96 41.22 252.35 40.94 252.8C40.58 253.37 40.38 254.04 40.35 254.71C40.32 255.36 40.46 256.03 40.86 256.54C41.28 257.07 41.92 257.35 42.54 257.62C44.34 258.39 46.15 259.15 48.06 259.58C49.97 260.01 52 260.08 53.85 259.46C54.38 259.28 54.93 259.01 55.15 258.5C55.25 258.27 55.28 258.02 55.29 257.77C55.61 253.02 53.44 248.44 53.23 243.69C53.18 242.45 53.26 241.19 53 239.98C52.83 239.19 52.42 238.34 51.65 238.11C51.13 237.96 50.56 238.13 50.11 238.44C49.1 239.14 49.08 239.83 48.71 240.9C48.34 241.94 47.73 242.9 47.13 243.84Z" fill="#53D7E2"/>
<path d="M55.5 257.04C55.63 257.77 55.74 258.61 55.26 259.18C54.85 259.67 54.16 259.79 53.52 259.84C51.18 260.03 48.81 259.81 46.54 259.21C45.41 258.91 44.3 258.51 43.23 258.03C42.18 257.55 41.39 256.92 40.48 256.2C40.41 256.14 40.33 256.08 40.28 256.01C40.22 255.93 40.19 255.84 40.18 255.75C40.14 255.49 40.25 255.22 40.35 254.98C40.67 254.23 40.92 253.41 41.46 252.79C41.98 252.19 42.4 251.59 42.82 250.9C43.9 249.14 44.98 247.38 46.07 245.62C46.98 244.14 47.82 242.62 48.71 241.13C49.26 240.19 50.17 238.03 51.35 237.72C51.68 237.63 52.05 237.77 52.27 238.03C52.6 238.43 52.44 238.94 52.45 239.41C52.46 239.89 52.53 240.42 52.61 240.89C52.93 242.67 53.25 244.46 53.57 246.24C54.21 249.84 54.85 253.44 55.5 257.04Z" stroke="#001726" stroke-width="0.8017" stroke-miterlimit="10" stroke-linecap="round" stroke-linejoin="round"/>
<path d="M51.29 241.94C51.85 246.94 53.13 251.97 52.24 256.92C52.21 257.09 52.17 257.27 52.08 257.41C51.79 257.82 51.17 257.74 50.68 257.62" stroke="#001726" stroke-width="0.8017" stroke-miterlimit="10" stroke-linecap="round" stroke-linejoin="round"/>
<path d="M34.79 238.72C33.51 238.86 32.21 238.97 30.95 239.25C30.62 239.32 30.28 239.41 30 239.59C29.48 239.92 29.17 240.52 29.09 241.14C29 241.75 29.11 242.37 29.26 242.98C29.88 245.51 31.19 247.8 32.7 249.89C33.42 250.89 34.28 251.8 35 252.79C35.52 253.49 36.06 253.94 37.01 253.49C37.6 253.21 38.02 252.68 38.43 252.17C39.96 250.23 41.5 248.29 43.03 246.36C45.01 243.86 47.25 241.57 49.41 239.22C50.14 238.43 50.18 237.02 48.98 236.39C48.28 236.02 47.72 236.26 47.02 236.48C44.53 237.27 41.87 237.7 39.3 238.12C37.8 238.35 36.3 238.56 34.79 238.72Z" fill="#53D7E2"/>
<path d="M38.31 252.39C37.84 252.97 37.28 253.6 36.53 253.61C35.89 253.62 35.35 253.17 34.89 252.73C33.21 251.09 31.82 249.15 30.79 247.05C30.27 246 29.85 244.9 29.51 243.77C29.18 242.67 29.14 241.65 29.09 240.5C29.09 240.41 29.08 240.31 29.1 240.22C29.12 240.13 29.17 240.04 29.23 239.97C29.4 239.77 29.67 239.67 29.93 239.59C30.71 239.34 31.49 238.99 32.32 238.99C33.12 238.99 33.84 238.91 34.64 238.78C36.68 238.44 38.72 238.11 40.75 237.77C42.46 237.49 44.16 237.13 45.87 236.81C46.94 236.61 49.17 235.88 50.18 236.57C50.46 236.76 50.61 237.13 50.55 237.47C50.46 237.98 49.97 238.2 49.63 238.51C49.27 238.83 48.92 239.23 48.62 239.6C47.48 241.01 46.34 242.42 45.21 243.83C42.9 246.7 40.6 249.55 38.31 252.39Z" stroke="#001726" stroke-width="0.8017" stroke-miterlimit="10" stroke-linecap="round" stroke-linejoin="round"/>
<path d="M33.86 248.47C34.77 248.9 35.48 249.94 36.48 249.86C36.85 249.83 37.19 249.64 37.51 249.43C38.02 249.09 38.5 248.69 38.93 248.24C39.68 247.45 40.28 246.53 40.95 245.68C42.68 243.5 44.93 241.77 46.56 239.52" stroke="#001726" stroke-width="0.8017" stroke-miterlimit="10" stroke-linecap="round" stroke-linejoin="round"/>
<path d="M33.22 221.53C32.52 221.76 32.01 222.37 31.55 222.95C30.96 223.68 30.38 224.42 29.87 225.21C28.32 227.61 27.51 230.48 27.59 233.33C27.61 234.13 27.76 235.04 28.44 235.49C28.75 235.7 29.13 235.77 29.5 235.83C32.64 236.34 35.84 236.44 39.01 236.11C39.65 236.04 40.3 235.96 40.94 235.97C41.8 235.98 42.65 236.16 43.5 236.27C45.01 236.47 46.54 236.47 48.04 236.28C48.6 236.21 49.15 236.19 49.12 235.52C49.09 234.95 48.85 234.32 48.49 233.88C48.09 233.39 47.56 233.02 47.1 232.58C46.39 231.9 45.84 231.05 45.09 230.41C44.75 230.12 44.37 229.88 44 229.63C42.78 228.82 41.75 227.73 40.54 226.93C40.07 226.62 39.62 226.5 39.2 226.07C38.72 225.58 38.32 225.03 37.87 224.52C37.44 224.04 37 223.56 36.65 223.01C36.42 222.65 36.28 222.23 35.92 222C35.23 221.55 34 221.27 33.22 221.53Z" fill="#53D7E2"/>
<path d="M29.73 236.08C28.99 236.07 28.14 236.01 27.67 235.44C27.27 234.95 27.28 234.24 27.35 233.61C27.6 231.28 28.27 228.99 29.29 226.88C29.8 225.82 30.4 224.81 31.08 223.85C31.75 222.91 32.51 222.25 33.39 221.5C33.46 221.44 33.53 221.38 33.61 221.34C33.7 221.3 33.79 221.28 33.89 221.29C34.16 221.3 34.4 221.45 34.62 221.6C35.3 222.06 36.05 222.46 36.56 223.11C37.05 223.74 37.56 224.26 38.16 224.8C39.68 226.2 41.2 227.59 42.73 228.99C44.01 230.16 45.34 231.28 46.64 232.43C47.46 233.15 49.41 234.45 49.49 235.67C49.51 236.01 49.31 236.35 49.01 236.51C48.55 236.76 48.08 236.51 47.62 236.43C47.14 236.35 46.62 236.32 46.13 236.31C44.32 236.29 42.5 236.26 40.69 236.24C37.05 236.18 33.39 236.13 29.73 236.08Z" stroke="#001726" stroke-width="0.8017" stroke-miterlimit="10" stroke-linecap="round" stroke-linejoin="round"/>
<path d="M30.17 231.2C29.87 231.54 29.96 232.11 30.26 232.45C30.56 232.79 31.01 232.97 31.44 233.1C35.66 234.42 40.33 233.42 44.56 234.71" stroke="#001726" stroke-width="0.8017" stroke-miterlimit="10" stroke-linecap="round" stroke-linejoin="round"/>
<path d="M54.7 244.71C55.22 246.33 55.75 247.94 56.27 249.56C56.7 250.9 57.13 252.24 57.37 253.62C57.46 254.14 57.52 254.68 57.69 255.18C57.9 255.82 58.29 256.4 58.79 256.85C59.27 257.28 59.88 257.61 60.53 257.62C61.2 257.63 61.83 257.31 62.43 257C64.16 256.1 65.9 255.18 67.45 253.98C68.99 252.78 70.33 251.25 71.03 249.43C71.23 248.91 71.37 248.31 71.12 247.81C71.01 247.59 70.83 247.4 70.65 247.23C67.19 243.97 62.27 242.75 58.46 239.89C57.47 239.14 56.55 238.29 55.45 237.72C54.73 237.35 53.82 237.12 53.15 237.58C52.7 237.88 52.47 238.44 52.43 238.98C52.33 240.21 52.85 240.66 53.44 241.62C54.01 242.56 54.36 243.65 54.7 244.71Z" fill="#53D7E2"/>
<path d="M70.16 246.78C70.81 247.14 71.52 247.6 71.66 248.33C71.78 248.96 71.42 249.57 71.06 250.09C69.72 252.02 68.04 253.71 66.13 255.07C65.18 255.75 64.16 256.36 63.11 256.87C62.08 257.37 61.09 257.59 59.95 257.83C59.86 257.85 59.77 257.87 59.68 257.86C59.59 257.85 59.49 257.82 59.41 257.77C59.18 257.63 59.04 257.38 58.92 257.15C58.54 256.42 58.07 255.71 57.93 254.9C57.8 254.11 57.6 253.41 57.34 252.65C56.67 250.7 56 248.74 55.34 246.79C54.78 245.15 54.14 243.53 53.55 241.9C53.18 240.88 52.08 238.8 52.6 237.69C52.74 237.38 53.09 237.18 53.43 237.18C53.95 237.18 54.24 237.63 54.61 237.92C54.99 238.22 55.43 238.5 55.86 238.74C57.44 239.63 59.02 240.52 60.6 241.41C63.78 243.19 66.97 244.98 70.16 246.78Z" stroke="#001726" stroke-width="0.8017" stroke-miterlimit="10" stroke-linecap="round" stroke-linejoin="round"/>
<path d="M67.58 251.25C68.28 251 68.51 250.06 68.26 249.37C68 248.67 67.4 248.17 66.82 247.71C63.34 244.94 59.65 242.44 55.79 240.23" stroke="#001726" stroke-width="0.8017" stroke-miterlimit="10" stroke-linecap="round" stroke-linejoin="round"/>
<path d="M74.32 250.01C74.32 250.8 74.96 251.43 75.74 251.43C76.53 251.43 77.16 250.79 77.16 250.01C77.16 249.22 76.52 248.59 75.74 248.59C74.96 248.58 74.32 249.22 74.32 250.01Z" fill="#0E5D89"/>
<path d="M62.56 247.24C65.581 247.24 68.03 244.791 68.03 241.77C68.03 238.749 65.581 236.3 62.56 236.3C59.539 236.3 57.09 238.749 57.09 241.77C57.09 244.791 59.539 247.24 62.56 247.24Z" fill="#0E5D89"/>
<path d="M56.94 222.43C56.94 223.22 57.58 223.85 58.36 223.85C59.15 223.85 59.78 223.21 59.78 222.43C59.78 221.64 59.14 221.01 58.36 221.01C57.57 221.01 56.94 221.64 56.94 222.43Z" fill="#0E5D89"/>
<path d="M81.52 216.66C81.52 217.74 82.39 218.61 83.47 218.61C84.55 218.61 85.42 217.74 85.42 216.66C85.42 215.58 84.55 214.71 83.47 214.71C82.39 214.71 81.52 215.58 81.52 216.66Z" fill="#0E5D89"/>
<path d="M23.81 203.77C23.81 204.35 24.28 204.82 24.86 204.82C25.44 204.82 25.91 204.35 25.91 203.77C25.91 203.19 25.44 202.72 24.86 202.72C24.28 202.72 23.81 203.19 23.81 203.77Z" fill="#0E5D89"/>
<path d="M36.7 180.54C37.5284 180.54 38.2 179.868 38.2 179.04C38.2 178.212 37.5284 177.54 36.7 177.54C35.8716 177.54 35.2 178.212 35.2 179.04C35.2 179.868 35.8716 180.54 36.7 180.54Z" fill="#0E5D89"/>
<path d="M49.29 139.85C49.29 140.64 49.93 141.27 50.71 141.27C51.5 141.27 52.13 140.63 52.13 139.85C52.13 139.06 51.49 138.43 50.71 138.43C49.93 138.42 49.29 139.06 49.29 139.85Z" fill="#0E5D89"/>
<path d="M90.59 147.11C91.5399 147.11 92.31 146.34 92.31 145.39C92.31 144.44 91.5399 143.67 90.59 143.67C89.6401 143.67 88.87 144.44 88.87 145.39C88.87 146.34 89.6401 147.11 90.59 147.11Z" fill="#0E5D89"/>
<path d="M17.37 144.19C17.37 144.89 17.94 145.46 18.64 145.46C19.34 145.46 19.91 144.89 19.91 144.19C19.91 143.49 19.34 142.92 18.64 142.92C17.94 142.92 17.37 143.49 17.37 144.19Z" fill="#0E5D89"/>
<path d="M44.5 218.98C44.5 219.93 45.27 220.7 46.22 220.7C47.17 220.7 47.94 219.93 47.94 218.98C47.94 218.03 47.17 217.26 46.22 217.26C45.27 217.26 44.5 218.03 44.5 218.98Z" fill="#0E5D89"/>
<path d="M36.25 251.43C36.25 253.5 37.93 255.18 40 255.18C42.07 255.18 43.75 253.5 43.75 251.43C43.75 249.36 42.07 247.68 40 247.68C37.93 247.69 36.25 249.36 36.25 251.43Z" fill="#0E5D89"/>
<path d="M25.16 251.73C25.5742 251.73 25.91 251.394 25.91 250.98C25.91 250.566 25.5742 250.23 25.16 250.23C24.7458 250.23 24.41 250.566 24.41 250.98C24.41 251.394 24.7458 251.73 25.16 251.73Z" fill="#0E5D89"/>
<path d="M47.05 202.42C47.8784 202.42 48.55 201.748 48.55 200.92C48.55 200.092 47.8784 199.42 47.05 199.42C46.2216 199.42 45.55 200.092 45.55 200.92C45.55 201.748 46.2216 202.42 47.05 202.42Z" fill="#0E5D89"/>
<path d="M69.98 185.26C69.98 185.96 70.55 186.53 71.25 186.53C71.95 186.53 72.52 185.96 72.52 185.26C72.52 184.56 71.95 183.99 71.25 183.99C70.55 183.99 69.98 184.56 69.98 185.26Z" fill="#0E5D89"/>
<path d="M2.27 125.25C2.75 122.33 18.44 121.75 20.35 121.58C31.88 120.51 43.49 120.2 55.06 120.2C66.4 120.2 77.76 120.51 89.06 121.52C90.59 121.66 108.08 124.19 107.57 125.1C107.15 125.84 107.68 126.79 108.54 126.79C108.62 126.79 108.7 126.79 108.78 126.79C108.41 126.42 108.03 126.04 107.66 125.67C106.1 137.57 104.53 149.48 102.97 161.38C101.99 168.87 101 176.36 100.02 183.85C99.78 185.71 99.67 187.66 99.28 189.49C98.96 190.96 97.46 194.05 97.01 196.66C95.01 208.22 94.23 220.12 92.82 231.77C91.79 240.27 90.76 248.77 89.73 257.27C89.34 260.48 88.95 263.7 88.56 266.91C88.34 268.74 87.62 271.13 87.82 272.97C87.85 273.27 87.74 273.67 87.7 273.98C87.91 272.66 88.71 273.04 86.83 273.67C83.31 274.86 79.9 276.57 76.47 278C73.86 279.09 70.93 280.88 68.15 281.48C67.39 281.64 64.21 281.44 62.71 281.41C55.18 281.3 47.58 281.49 40.06 281.09C35.71 280.86 29.65 277.69 24.96 275.96C23.28 275.34 21.61 274.72 19.93 274.1C19.29 273.86 16.98 272.67 17.82 273.7C18.67 274.75 18.04 272.17 17.98 271.41C17.5 265.42 17.02 259.42 16.53 253.43C15.25 237.48 13.97 221.54 12.68 205.59C12.43 202.47 12.56 199 11.89 195.93C10.65 190.28 8.5 185.29 7.97 179.47C6.49 163.07 4.94 146.67 3.4 130.27C3.21 128.23 3.39 126.06 2.16 124.37C1.32 123.21 -0.640003 124.33 0.219997 125.5C2.26 128.3 1.61 135.11 1.93 138.52C2.59 145.6 3.25 152.68 3.91 159.76C4.79 169.23 4.52 179.74 7.18 188.93C8.19 192.43 9.59 195.05 9.85 198.3C10.17 202.31 10.49 206.31 10.82 210.32C11.83 222.85 12.84 235.38 13.84 247.91C14.55 256.68 15.25 265.46 15.96 274.23C16 274.77 16.29 275.13 16.79 275.31C23.41 277.75 29.99 280.32 36.65 282.64C41.63 284.37 47.77 283.43 52.98 283.5C58.26 283.57 64.77 284.8 69.82 283.17C76.38 281.05 82.75 277.76 89.12 275.1C89.64 274.88 89.88 274.57 89.95 274.02C92.56 252.62 95.16 231.22 97.72 209.81C98.17 206.04 98.54 202.26 99.05 198.5C99.5 195.16 101.07 192.21 101.62 188.93C103.4 178.34 104.43 167.55 105.82 156.9C107.19 146.48 108.56 136.05 109.93 125.63C110.01 125.02 109.35 124.51 108.81 124.51C108.73 124.51 108.65 124.51 108.57 124.51C108.89 125.07 109.22 125.64 109.54 126.2C112.15 121.59 101.19 120.72 98.87 120.37C85.73 118.4 72.29 118.04 59.02 117.94C44.39 117.83 29.63 118.1 15.09 119.87C12.21 120.22 0.819997 120.43 0.129997 124.64C-0.130003 126.06 2.03 126.67 2.27 125.25Z" fill="#001726"/>
<path d="M0.799996 125.05C1.37 128.5 11.51 128.82 13.85 129.13C27.47 130.9 41.33 131.22 55.06 131.22C68.78 131.22 82.64 130.9 96.27 129.13C98.59 128.83 108.75 128.5 109.32 125.05C109.4 124.56 108.65 124.34 108.56 124.84C107.97 128.45 92.05 128.84 89.77 129.05C78.24 130.12 66.63 130.43 55.06 130.43C43.72 130.43 32.36 130.12 21.06 129.11C16.76 128.73 12.43 128.28 8.19 127.44C6.83 127.17 1.86 126.63 1.56 124.83C1.48 124.35 0.719996 124.56 0.799996 125.05Z" fill="#001726"/>
<path d="M94.53 196.36C91.96 209.25 91.28 222.35 90.27 235.43C89.71 242.7 89.02 249.97 87.77 257.16C87.23 260.26 86.91 265.07 84.55 267.43C81.97 270.01 72.99 270.77 69.99 268.47C69.59 268.16 69.2 268.84 69.59 269.15C72.73 271.57 80.69 271.09 84 268.86C88.85 265.59 88.71 256.73 89.4 251.67C91.92 233.35 91.65 214.77 95.28 196.58C95.38 196.07 94.63 195.86 94.53 196.36Z" fill="#001726"/>
<path d="M70.27 265.25C68.96 272.33 59.82 271.67 54.3 271.73C47.74 271.81 38.03 272.42 37.22 263.86C37.17 263.36 36.39 263.36 36.44 263.86C36.74 266.97 36.61 269.63 39.77 271.06C43.69 272.82 49.34 272.54 53.48 272.52C59.63 272.49 69.58 273.29 71.03 265.46C71.12 264.97 70.36 264.76 70.27 265.25Z" fill="#001726"/>
<path d="M14.83 197.06C15.98 216.12 17.1 235.18 18.28 254.23C18.62 259.74 19.26 264.34 24.32 267.49C27.05 269.19 34.69 272.38 37.17 268.89C37.46 268.48 36.78 268.09 36.49 268.49C34.44 271.37 26.67 268.03 24.71 266.81C20.62 264.27 19.59 260.73 19.18 256.2C18.59 249.65 18.39 243.05 17.99 236.49C17.2 223.35 16.4 210.2 15.61 197.06C15.59 196.56 14.8 196.56 14.83 197.06Z" fill="#001726"/>
<path d="M11.6 195.5C15.68 184.42 27.96 191.13 31.63 198.24C35.07 204.89 34.48 211.9 34.76 219.13C35.29 232.7 36.02 246.27 36.92 259.82C36.95 260.32 37.74 260.32 37.7 259.82C37.01 249.39 36.41 238.95 35.94 228.5C35.71 223.57 35.46 218.63 35.36 213.69C35.28 209.62 35.37 205.69 34.03 201.8C32.13 196.26 28.33 190.45 22.22 189.12C17.29 188.05 12.56 190.61 10.84 195.3C10.67 195.77 11.42 195.97 11.6 195.5Z" fill="#001726"/>
<path d="M97.38 190.55C91.42 189.92 84.73 189.46 80.08 193.98C75.59 198.35 73.8 205.15 73.04 211.15C72.11 218.5 72.52 225.96 72.17 233.34C71.72 242.87 70.77 252.37 70.34 261.9C70.32 262.4 71.1 262.4 71.12 261.9C71.77 247.67 72.88 233.52 73.27 219.28C73.45 212.57 74.01 205.52 77.18 199.46C81.57 191.07 88.92 190.44 97.38 191.33C97.88 191.38 97.87 190.6 97.38 190.55Z" fill="#001726"/>
<path d="M73.43 203.17C69.75 196.27 62.73 191.82 54.81 192.05C47.16 192.27 39.27 195.89 37.01 203.67C36.87 204.16 37.63 204.36 37.77 203.88C40.07 195.94 48.75 192.52 56.46 192.84C63.46 193.14 69.51 197.51 72.75 203.57C72.99 204.01 73.67 203.62 73.43 203.17Z" fill="#001726"/>
<path d="M104.75 135.49C102.22 151.73 99.99 168 98.06 184.32C98 184.82 98.79 184.82 98.84 184.32C100.76 168.07 102.98 151.86 105.5 135.7C105.58 135.2 104.83 134.99 104.75 135.49Z" fill="#001726"/>
<path d="M5.27 131.99C6.67 141.7 7.79 151.45 8.57 161.23C9.23 169.46 8.87 178.06 10.76 186.12C10.88 186.61 11.63 186.4 11.52 185.91C9.37 176.72 9.86 166.7 9.03 157.3C8.28 148.76 7.26 140.26 6.03 131.78C5.95 131.28 5.2 131.49 5.27 131.99Z" fill="#001726"/>
<path d="M5.34 125.34C5.87 127.06 10.47 126.99 11.84 127.15C20.21 128.13 28.7 128.35 37.12 128.56C56.88 129.05 77 129.32 96.7 127.3C97.76 127.19 104.26 127.11 104.58 125.46C104.9 123.8 100.76 123.66 99.9 123.54C82.01 120.96 63.3 121.52 45.29 121.75C35.13 121.88 24.93 122.1 14.8 123.01C13.24 123.15 6 123.01 5.34 125.12C5.19 125.61 5.96 125.83 6.11 125.33C6.63 123.64 16.2 123.69 17.64 123.58C24.7 123.05 31.79 122.82 38.87 122.66C55.61 122.29 72.42 122.34 89.14 123.37C91.82 123.53 94.51 123.72 97.18 124.01C98.51 124.15 101.78 124.03 102.95 124.94C104.05 125.79 102.62 125.62 101.41 125.87C99.01 126.37 96.49 126.54 94.05 126.74C78.17 128.07 62.14 128.1 46.22 127.92C37.53 127.82 28.82 127.61 20.15 127.05C18.54 126.95 6.7 127.05 6.11 125.13C5.97 124.64 5.19 124.85 5.34 125.34Z" fill="#001726"/>
<path d="M68.34 273.18C68.1 276.2 68.09 279.23 67.87 282.24C67.83 282.74 68.62 282.74 68.65 282.24C68.87 279.22 68.88 276.19 69.12 273.18C69.16 272.68 68.38 272.68 68.34 273.18Z" fill="#001726"/>
<path d="M37.72 272.57C37.74 275.74 37.75 278.91 37.77 282.09C37.77 282.59 38.56 282.6 38.55 282.09C38.53 278.92 38.52 275.75 38.5 272.57C38.5 272.06 37.72 272.06 37.72 272.57Z" fill="#001726"/>
<path d="M18.36 271.92C19.91 273.15 21.67 273.96 23.62 274.29C24.11 274.37 24.33 273.62 23.83 273.53C22.02 273.22 20.36 272.5 18.92 271.36C18.52 271.06 17.96 271.61 18.36 271.92Z" fill="#001726"/>
<path d="M17.09 150.47C15.24 166.29 17.47 182.82 18.85 198.65C20.13 213.31 18.35 229.31 24.52 242.98C25.06 244.18 26.85 243.5 26.87 242.34C27.2 226.76 25.42 211.28 24.97 195.7C24.53 180.54 24.66 164.72 21.14 149.92C20.57 147.48 17.34 148.31 17.09 150.47Z" fill="white"/>
<path d="M16.41 137.35C16.36 137.65 16.32 137.94 16.27 138.24C16.13 139.13 16.5 140.14 17.47 140.36C18.29 140.55 19.44 140.11 19.59 139.16C19.64 138.86 19.68 138.57 19.73 138.27C19.87 137.38 19.5 136.37 18.53 136.15C17.7 135.95 16.55 136.39 16.41 137.35Z" fill="white"/>
<path d="M94.65 143.25C93.09 146.29 93.78 150.18 93.58 153.53C93.36 157.21 91.49 160.7 92.97 164.18C93.28 164.91 94.56 165.07 95.04 164.45C97.3 161.54 96.29 157.85 96.46 154.31C96.62 150.8 97.4 146.37 95.55 143.26C95.35 142.93 94.83 142.9 94.65 143.25Z" fill="white"/>
<path d="M78.12 255.12C76.95 255.81 76.69 256.76 76.18 257.9C75.74 258.89 75.31 259.88 74.89 260.89C73.99 263.06 76.97 265.07 78.8 263.89C80.23 262.97 81.07 262.02 81.69 260.44C82.23 259.07 82.67 257.33 81.68 256.06C80.84 254.95 79.46 254.33 78.12 255.12Z" fill="white"/>
<path d="M197.98 54.98C198.16 52.19 198.13 49.37 197.69 46.61C196.7 40.4 193.57 34.56 188.95 30.29C184.33 26.02 178.26 23.36 171.99 22.86C167.62 22.51 163.23 23.18 158.95 24.12C156.91 24.57 154.87 25.09 152.99 26.01C151.48 26.76 150.1 27.76 148.74 28.75C145.45 31.15 142.15 33.62 139.45 36.68L140.76 38.05C140.79 38.02 140.81 37.99 140.83 37.96C143.4 34.99 146.58 32.61 149.74 30.31C151.02 29.37 152.32 28.43 153.74 27.73C155.5 26.86 157.43 26.37 159.34 25.95C163.37 25.06 167.49 24.44 171.6 24.77C177.5 25.24 183.21 27.75 187.55 31.76C191.89 35.77 194.84 41.27 195.77 47.11C196.04 48.82 196.14 50.55 196.13 52.28C196.13 53.18 196.1 54.09 196.05 54.99C195.79 59.14 195.03 63.28 193.52 67.16C191.28 72.91 187.2 77.94 182.13 81.41L183.35 82.68L183.5 82.83C188.75 79.15 192.96 73.9 195.29 67.91C196.89 63.79 197.7 59.39 197.98 54.98Z" fill="#F2CB05"/>
<path d="M196.06 54.98C196.12 54.08 196.14 53.18 196.14 52.27C196.15 50.54 196.05 48.81 195.78 47.1C194.85 41.26 191.9 35.76 187.56 31.75C183.22 27.74 177.5 25.23 171.61 24.76C167.5 24.43 163.37 25.06 159.35 25.94C157.43 26.36 155.51 26.85 153.75 27.72C152.32 28.42 151.03 29.36 149.75 30.3C146.59 32.6 143.41 34.98 140.84 37.95C140.81 37.98 140.79 38.01 140.77 38.04L177.21 76.22L182.15 81.39C187.23 77.92 191.31 72.89 193.54 67.14C195.04 63.28 195.79 59.14 196.06 54.98Z" fill="#F9F8E6"/>
<path d="M183.86 83.3C198.82 72.19 204.38 47.9 192.01 32.77C185.75 25.12 176.11 21.54 166.37 22.36C155.17 23.31 146.45 28.29 138.88 36.5C138.68 36.72 138.67 37.05 138.88 37.27C153.65 52.58 168.42 67.9 183.19 83.21C183.68 83.72 184.45 82.94 183.96 82.44C174.08 72.2 164.2 61.95 154.32 51.71C151.4 48.68 148.48 45.66 145.56 42.63C144.18 41.2 141.1 39.06 140.32 37.19C139.73 35.77 139.65 37.52 140.91 35.9C143.67 32.35 148.59 29.03 152.53 26.89C161.34 22.11 174.13 21.94 182.92 26.67C203.98 38 200.72 69.41 183.3 82.35C182.75 82.77 183.29 83.72 183.86 83.3Z" fill="#001726"/>
<path d="M141.26 38.38C147.23 31.84 154.2 27.28 162.97 25.85C172.78 24.25 182.76 26.68 189.36 34.51C195.81 42.16 196.62 52.44 194.5 61.88C193.63 65.77 192.12 69.56 189.84 72.85C189.01 74.05 184.11 80.83 182.71 80.68C181.84 80.59 179.7 77.55 179.13 76.96C176.66 74.4 174.2 71.83 171.73 69.27C165.48 62.77 159.23 56.27 152.97 49.77C149.07 45.71 145.17 41.66 141.26 37.6C140.77 37.09 140 37.87 140.49 38.37C154.34 52.76 168.19 67.16 182.03 81.55C182.18 81.71 182.5 81.78 182.69 81.64C196.91 71.12 202.15 47.92 190.12 33.73C183.99 26.5 174.72 23.42 165.44 24.41C155.29 25.5 147.35 30.07 140.48 37.6C140.01 38.13 140.78 38.9 141.26 38.38Z" fill="#001726"/>
<path d="M173.27 50.07C174.69 48.81 176.11 47.55 177.54 46.29C178.72 45.25 179.89 44.2 180.91 43.01C181.29 42.56 181.66 42.08 182.11 41.69C182.68 41.2 183.38 40.86 184.12 40.71C184.83 40.57 185.6 40.6 186.23 40.96C186.88 41.33 187.31 42 187.71 42.64C188.86 44.5 190.02 46.36 190.82 48.4C191.62 50.43 192.04 52.66 191.67 54.82C191.56 55.43 191.36 56.09 190.84 56.43C190.6 56.58 190.33 56.65 190.05 56.72C184.86 57.89 179.43 56.27 174.14 56.86C172.76 57.01 171.39 57.32 170 57.24C169.1 57.19 168.09 56.88 167.7 56.07C167.44 55.52 167.53 54.86 167.8 54.32C168.4 53.08 169.16 52.94 170.28 52.36C171.38 51.74 172.34 50.9 173.27 50.07Z" fill="#F24B4B"/>
<path d="M189.29 57.62C195.44 57.26 191.76 48.65 190.08 45.32C189.36 43.89 187.5 40.27 185.7 39.88C183.85 39.48 182.05 41.77 180.9 42.83C177.18 46.23 173.16 49.28 169.3 52.51C168.19 53.44 166.01 54.85 166.98 56.53C168.04 58.35 171.46 57.19 173.21 57.24C178.57 57.37 183.93 57.5 189.29 57.62C190.01 57.64 190.01 56.51 189.29 56.5C184.44 56.38 179.59 56.27 174.74 56.15C173.9 56.13 169.67 56.6 169.2 56.14C167.52 54.52 171.36 52.31 172.44 51.44C175.68 48.82 179.02 44.73 182.58 42.67C186.59 40.34 188.31 44.01 189.66 47.15C190.5 49.1 193.43 56.26 189.29 56.5C188.57 56.54 188.57 57.67 189.29 57.62Z" fill="#001726"/>
<path d="M171.89 55.63C174.81 55.53 191.29 56.98 189.71 51.48C189.49 50.7 188.27 51.03 188.5 51.81C189.31 54.62 173.77 54.3 171.89 54.37C171.08 54.4 171.08 55.65 171.89 55.63Z" fill="#001726"/>
<path d="M165.5 37.31C165.43 35.87 165.33 34.42 165.42 32.98C165.44 32.6 165.48 32.22 165.63 31.87C165.9 31.24 166.52 30.8 167.18 30.6C167.84 30.4 168.55 30.41 169.24 30.47C172.14 30.72 174.89 31.78 177.47 33.09C178.7 33.72 179.85 34.5 181.07 35.14C181.94 35.59 182.53 36.12 182.19 37.24C181.98 37.94 181.47 38.5 180.97 39.03C179.09 41.06 177.21 43.08 175.33 45.11C172.91 47.72 170.76 50.6 168.53 53.38C167.78 54.32 166.23 54.61 165.33 53.39C164.81 52.68 164.97 52.02 165.1 51.2C165.55 48.32 165.57 45.3 165.59 42.39C165.62 40.71 165.58 39.01 165.5 37.31Z" fill="#F24B4B"/>
<path d="M181.7 39.15C185.64 34.03 175.28 30.97 171.63 30.3C164.92 29.06 164.85 31.13 164.99 37.14C165.1 41.86 164.69 46.58 164.65 51.29C164.64 52.73 164.37 54.94 166.15 55.36C168.27 55.85 169.58 52.48 170.79 51.16C174.4 47.2 178.01 43.24 181.62 39.27C182.11 38.74 181.31 37.94 180.83 38.48C177.56 42.07 174.29 45.65 171.03 49.24C170.71 49.59 167.82 53.47 167.35 53.47C164.99 53.45 165.95 47.96 165.98 46.99C166.05 44.58 166.08 42.16 166.1 39.75C166.12 38.15 165.2 33.23 166.2 31.97C169.06 28.33 183.51 35.01 180.74 38.6C180.29 39.15 181.27 39.71 181.7 39.15Z" fill="#001726"/>
<path d="M175.67 35.06C178.58 38.52 175.28 40.72 173.11 43.26C171.31 45.37 169.86 47.73 167.94 49.74C167.38 50.33 168.27 51.22 168.83 50.63C170.31 49.08 171.52 47.36 172.81 45.66C174.17 43.86 175.93 42.39 177.26 40.58C179.39 37.68 178.62 36.64 176.55 34.18C176.04 33.55 175.16 34.45 175.67 35.06Z" fill="#001726"/>
<path d="M146.25 38.52C146.39 37.7 146.97 37.04 147.53 36.43C148.24 35.66 148.95 34.88 149.73 34.18C152.11 32.05 155.15 30.67 158.31 30.27C159.2 30.16 160.23 30.17 160.84 30.84C161.12 31.15 161.26 31.56 161.39 31.95C162.49 35.33 163.14 38.86 163.32 42.41C163.36 43.13 163.37 43.86 163.49 44.57C163.65 45.52 163.99 46.43 164.26 47.35C164.74 48.98 165 50.67 165.05 52.37C165.07 53 165.14 53.61 164.4 53.69C163.76 53.75 163.03 53.59 162.48 53.27C161.87 52.91 161.37 52.39 160.81 51.96C159.93 51.29 158.9 50.83 158.06 50.11C157.68 49.78 157.35 49.41 157.02 49.04C155.91 47.84 154.54 46.87 153.44 45.68C153.01 45.21 152.8 44.74 152.26 44.35C151.64 43.9 150.96 43.56 150.32 43.14C149.71 42.75 149.11 42.35 148.45 42.05C148.02 41.86 147.53 41.78 147.2 41.42C146.61 40.74 146.1 39.43 146.25 38.52Z" fill="#F24B4B"/>
<path d="M162.27 32.03C160.71 25.88 152.33 31.75 149.52 34.07C148.33 35.05 145.35 37.48 145.53 39.32C145.75 41.61 151.03 44.42 152.33 45.46C155.5 47.98 158.48 50.76 161.68 53.23C162.59 53.93 164.35 55.36 165.56 54.28C166.88 53.1 165.3 49.96 165.07 48.64C164.07 43.11 163.2 37.56 162.27 32.03C162.15 31.32 161.07 31.62 161.19 32.33C162.04 37.36 162.89 42.4 163.73 47.43C163.89 48.38 164.23 49.47 164.23 50.43C164.23 52.23 164.66 53.14 162.4 52.33C160.83 51.77 158.89 49.33 157.63 48.29C155.92 46.88 154.18 45.5 152.45 44.12C150.98 42.96 148.01 41.49 147.31 39.85C146.35 37.64 149.89 35.05 151.77 33.75C153.35 32.66 160.14 28.17 161.19 32.32C161.37 33.03 162.45 32.73 162.27 32.03Z" fill="#001726"/>
<path d="M156.72 34.04C158.77 33.09 160.01 41.2 160.23 42.34C160.69 44.68 161.23 46.93 162.2 49.12C162.53 49.86 163.61 49.22 163.29 48.49C161.49 44.42 161.47 39.91 159.91 35.77C159.21 33.91 158.28 31.94 156.09 32.95C155.35 33.3 155.99 34.38 156.72 34.04Z" fill="#001726"/>
<path d="M175.53 58.29C177.41 58.59 179.28 58.89 181.16 59.19C182.71 59.44 184.27 59.69 185.83 59.71C186.43 59.72 187.02 59.7 187.61 59.8C188.35 59.93 189.06 60.26 189.64 60.73C190.2 61.19 190.66 61.8 190.78 62.52C190.91 63.26 190.66 64.01 190.42 64.72C189.72 66.79 189.01 68.87 187.94 70.78C186.87 72.69 185.42 74.43 183.52 75.51C182.98 75.82 182.34 76.07 181.75 75.88C181.48 75.79 181.25 75.63 181.03 75.45C176.84 72.18 174.64 66.95 170.84 63.24C169.85 62.27 168.74 61.4 167.92 60.28C167.39 59.55 166.98 58.58 167.37 57.76C167.63 57.21 168.2 56.86 168.79 56.72C170.13 56.4 170.72 56.9 171.88 57.39C173.04 57.89 174.3 58.09 175.53 58.29Z" fill="#F24B4B"/>
<path d="M180.06 75.42C184.37 80.07 188.92 70.9 190.28 67.51C190.88 66.01 192.17 62.75 191.33 61.12C190.32 59.15 184.86 59.28 183.2 59.01C178.94 58.31 174.74 57.23 170.49 56.52C169.06 56.28 166.78 55.89 166.5 57.88C166.28 59.43 169.34 61.76 170.13 62.76C173.44 66.99 176.75 71.2 180.06 75.42C180.51 75.99 181.3 75.19 180.85 74.63C177.7 70.62 174.54 66.6 171.39 62.59C170.08 60.93 166.5 58.07 170.7 57.74C172.34 57.61 174.74 58.62 176.35 58.93C178.53 59.35 180.71 59.73 182.9 60.11C184.53 60.39 188.19 60.4 189.45 61.4C191.35 62.89 189.47 66.85 188.44 68.89C187.57 70.62 183.77 77.79 180.85 74.64C180.36 74.09 179.57 74.89 180.06 75.42Z" fill="#001726"/>
<path d="M184.41 71.08C183.25 73.46 177.1 66.56 176.41 65.82C174.59 63.89 172.87 61.88 171.2 59.81C170.69 59.18 169.81 60.07 170.31 60.7C171.98 62.77 182.75 77.37 185.5 71.71C185.85 70.99 184.77 70.36 184.41 71.08Z" fill="#001726"/>
<path d="M126.51 88.96C127.57 86.86 125.93 82.44 125.56 80.32C124.38 73.59 123.13 66.88 121.87 60.16C118.89 44.26 115.84 28.38 112.77 12.5C112.04 8.72 111.31 4.94 110.58 1.17C110.18 -0.88 107.05 -0.00999975 107.45 2.03C112.26 26.78 117.09 51.53 121.57 76.33C122.08 79.13 122.58 81.93 123.04 84.73C123.18 85.55 123.29 86.38 123.43 87.21C123.56 87.97 123.21 88.3 123.71 87.31C122.76 89.18 125.56 90.83 126.51 88.96Z" fill="#F2CB05"/>
<path d="M70.64 27.88L109.06 2.78L152.2 9.35L113.99 18.28L70.64 27.88Z" fill="#F2CB05"/>
<path d="M70.09 28.93C81.02 21.85 91.95 14.78 102.89 7.69999C104.82 6.44999 106.77 4.81999 108.85 3.83999C109.47 3.54999 109.55 3.42999 109.16 3.47999C109.75 3.38999 110.67 3.72999 111.24 3.82999C118.34 5.00999 125.43 6.18999 132.53 7.36999C138.74 8.39999 144.96 9.42999 151.17 10.47C151.17 10.07 151.17 9.65999 151.17 9.25999C124.02 15.6 96.83 21.76 69.61 27.79C68.82 27.96 69.15 29.18 69.94 29C97.17 22.97 124.35 16.82 151.5 10.47C152.08 10.34 152.12 9.35999 151.5 9.25999C138.53 7.09999 125.56 4.94999 112.58 2.78999C108.92 2.17999 108.59 2.50999 105.4 4.56999C98.75 8.87999 92.09 13.19 85.44 17.49C80.11 20.94 74.78 24.39 69.45 27.84C68.78 28.28 69.41 29.37 70.09 28.93Z" fill="#001726"/>
<path d="M108.83 2.93999C102.04 9.78999 95.25 16.63 88.46 23.48C87.89 24.05 88.78 24.94 89.35 24.37C96.14 17.52 102.93 10.68 109.72 3.82999C110.29 3.25999 109.4 2.36999 108.83 2.93999Z" fill="#001726"/>
<path d="M109.16 3.52999C115.58 7.59999 122 11.67 128.42 15.74C129.11 16.17 129.74 15.09 129.05 14.65C122.63 10.58 116.21 6.50999 109.79 2.43999C109.11 2.00999 108.48 3.09999 109.16 3.52999Z" fill="#001726"/>
<path d="M102.27 76.57L95.48 37.61C95.48 37.61 93.44 29.74 84.48 31.64L33.71 40.74L34.66 45.9L83.8 37.21C83.8 37.21 89.37 35.99 90.45 42.23C91.54 48.47 96.56 77.53 96.56 77.53L102.27 76.57Z" fill="#53D7E2"/>
<path d="M102.85 76.41C101.63 69.43 100.42 62.45 99.2 55.47C98.16 49.51 97.89 42.6 95.87 36.87C93.61 30.47 87.41 30.5 81.81 31.5C73.21 33.04 64.62 34.58 56.02 36.12C48.53 37.46 41.05 38.8 33.56 40.14C33.22 40.2 33.08 40.59 33.14 40.88C33.46 42.6 33.77 44.32 34.09 46.04C34.15 46.38 34.53 46.51 34.83 46.46C50.17 43.75 65.51 41.04 80.86 38.32C82.52 38.03 84.54 37.39 86.22 37.84C90.8 39.06 90.91 48.33 91.59 52.24C93.06 60.71 94.52 69.19 95.99 77.66C96.05 78 96.44 78.13 96.73 78.08C98.63 77.76 100.53 77.45 102.43 77.13C103.19 77 102.87 75.84 102.11 75.97C100.56 76.23 98.68 76.9 97.13 76.8C95.82 76.72 97.48 77.68 97.09 76.97C96.9 76.63 96.86 75.79 96.82 75.43C96.35 71.31 95.39 67.19 94.69 63.1C93.8 57.96 92.91 52.82 92.02 47.68C91.48 44.58 91.46 40.09 88.91 37.88C85.9 35.28 80.97 37.07 77.56 37.68C68.66 39.25 59.77 40.83 50.87 42.4C46.92 43.1 42.96 43.8 39.01 44.5C37.92 44.69 36.81 44.97 35.72 45.08C33.92 45.26 35.37 45.6 35.11 44.91C34.75 43.95 34.78 42.77 34.53 41.78C34.28 40.77 34.51 40.87 33.98 41.29C34.35 41 35.52 41.01 35.96 40.93C39.09 40.37 42.21 39.81 45.34 39.25C54.62 37.59 63.9 35.92 73.19 34.26C78.87 33.24 89.08 29.67 93.34 34.85C94.83 36.66 95.03 38.45 95.41 40.65C96.18 45.05 96.94 49.45 97.71 53.85C99.04 61.47 100.37 69.1 101.69 76.72C101.82 77.49 102.98 77.17 102.85 76.41Z" fill="#001726"/>
<path d="M84.31 37.48C86.87 38.06 88.03 33.76 87.96 31.92C87.92 30.88 86.3 31.1 86.56 32.11C86.58 32.18 86.6 32.25 86.61 32.31C86.75 32.83 87.49 32.93 87.76 32.46C87.79 32.4 87.83 32.34 87.86 32.28C87.42 32.16 86.97 32.04 86.53 31.92C86.49 32.92 86.32 33.84 85.87 34.74C85.43 35.61 84.81 36.08 84.1 36.7C83.85 36.93 83.98 37.4 84.31 37.48Z" fill="#001726"/>
<path d="M88.21 38.48C89.38 38.91 90.88 38.03 91.79 37.34C92.76 36.61 93.22 35.56 93.62 34.44C93.74 34.11 93.54 33.72 93.26 33.55C93.13 33.47 93.01 33.46 92.86 33.44C92.5 33.39 92.21 33.72 92.1 34.02C91.81 34.84 91.48 35.61 90.76 36.15C89.99 36.73 89.14 37.03 88.22 37.29C87.59 37.47 87.67 38.28 88.21 38.48Z" fill="#001726"/>
<path d="M89.81 40.78C89.4 42.2 91.31 42.3 92.21 42.35C93.63 42.42 95.36 42.69 96.35 41.41C96.69 40.97 96.72 40.32 96.17 40.01C96.1 39.97 96.03 39.95 95.96 39.92C95.69 39.83 95.28 39.92 95.1 40.15C94.53 40.85 93.44 40.62 92.62 40.59C91.89 40.56 91.2 40.56 90.49 40.38C90.2 40.32 89.9 40.49 89.81 40.78Z" fill="#001726"/>
<path d="M35.09 45.73C37 46.26 37.96 44.23 37.76 42.61C37.54 40.88 35.92 39.3 34.16 40.32C33.38 40.77 34.09 41.99 34.87 41.53C35.92 40.92 36.41 42.43 36.41 43.2C36.41 44.26 35.79 44.47 34.99 44.95C34.67 45.15 34.73 45.64 35.09 45.73Z" fill="#001726"/>
<path d="M121.71 256.42C121.75 256.37 121.78 256.32 121.82 256.27C124.76 252.23 124.44 246.17 125.03 241.46C125.49 237.78 126.39 234.13 128.04 230.8C129.68 227.47 132.09 224.48 135.21 222.46C131.54 227.59 130.54 234.15 130.29 240.46C130.2 242.79 130.2 245.16 130.85 247.4C131.65 250.17 133.27 252.8 134.62 255.33C135.87 257.68 137.44 259.77 139.72 261.21C137.64 261.82 135.6 262.55 133.61 263.39C132.71 263.77 131.83 264.17 130.92 264.51C127.81 265.7 124.46 266.26 121.12 266.17C117.11 266.06 112.8 266 109.61 263.22C109.86 263.44 112.45 262.25 112.82 262.11C113.98 261.67 115.13 261.17 116.23 260.6C118.19 259.59 120.35 258.21 121.71 256.42Z" fill="white"/>
<path d="M139.69 260.92C116.88 244.22 142.54 210.83 142.54 210.83C182.45 194.95 163.72 134.67 163.72 134.67C151.09 96.79 168.94 55.68 167.79 55.25C152.56 49.66 131.21 49.52 121.93 49.77C112.65 49.52 91.3 49.66 76.07 55.25C74.92 55.67 92.77 96.79 80.14 134.67C80.14 134.67 61.41 194.94 101.32 210.83C101.32 210.83 126.98 244.23 104.17 260.92C104.17 260.92 66.7 270.29 90.32 277.21C90.32 277.21 104.65 279.76 117.29 280.62H126.57C139.21 279.76 153.54 277.21 153.54 277.21C177.16 270.29 139.69 260.92 139.69 260.92Z" fill="white"/>
<path d="M110.08 263.5C116.95 266.93 125.34 267.18 132.4 264.15Z" fill="white"/>
<path d="M121.27 53.77C134.69 53.76 148.5 53.98 160.92 59.08Z" fill="white"/>
<path d="M101.88 210.16C108.26 213.16 115.5 214.31 122.5 213.44Z" fill="white"/>
<path d="M121.71 256.42C121.75 256.37 121.78 256.32 121.82 256.27C124.76 252.23 124.44 246.17 125.03 241.46C125.49 237.78 126.39 234.13 128.04 230.8C129.68 227.47 132.09 224.48 135.21 222.46C131.54 227.59 130.54 234.15 130.29 240.46C130.2 242.79 130.2 245.16 130.85 247.4C131.65 250.17 133.27 252.8 134.62 255.33C135.87 257.68 137.44 259.77 139.72 261.21C137.64 261.82 135.6 262.55 133.61 263.39C132.71 263.77 131.83 264.17 130.92 264.51C127.81 265.7 124.46 266.26 121.12 266.17C117.11 266.06 112.8 266 109.61 263.22C109.86 263.44 112.45 262.25 112.82 262.11C113.98 261.67 115.13 261.17 116.23 260.6C118.19 259.59 120.35 258.21 121.71 256.42Z" fill="#EFEFEF"/>
<path d="M140.32 259.84C127.23 249.78 131.19 233.1 137.95 220.48C139.28 217.99 141.12 213.44 143.46 211.68C144.82 210.66 147.56 209.93 149.24 208.91C151.98 207.24 154.54 205.23 156.77 202.92C171.8 187.36 170.98 162.33 166.95 142.6C164.91 132.62 161.5 123.21 160.73 112.91C159.47 96.14 162.3 79.34 166.96 63.27C167.5 61.4 169.79 57.02 169.04 54.98C168.36 53.13 164.05 52.71 162.53 52.3C158.48 51.21 154.34 50.47 150.18 49.9C135.15 47.85 119.29 47.86 104.16 48.86C95.29 49.45 86.27 50.58 77.79 53.35C74.14 54.54 74.63 55.54 75.58 58.81C79.74 73.06 83.07 87.4 83.39 102.33C83.86 124.23 74.21 144.37 74.5 166.33C74.65 177.68 76.9 189.55 83.71 198.89C87.08 203.51 91.48 207.31 96.52 210C97.93 210.75 99.65 211.11 100.66 212.06C101.74 213.07 102.55 214.8 103.32 216.04C109.65 226.21 116.08 240.73 110.03 252.4C108.69 254.98 106.2 258.47 103.54 259.79C102.39 260.36 100.82 260.53 99.59 260.9C95.34 262.18 91.02 263.63 87.09 265.72C84.81 266.93 81.25 268.92 81.24 271.94C81.23 275.83 87.03 277.71 89.98 278.43C101.62 281.25 114.52 282.33 126.49 281.89C134.94 281.58 143.49 280.16 151.83 278.78C155.11 278.24 159.95 277.13 161.89 274.12C166.02 267.71 151.65 263.35 147.9 262.08C145.31 261.2 142.68 260.4 140.02 259.73C138.45 259.33 137.78 261.76 139.35 262.15C145.45 263.69 154.14 265.49 158.74 270.01C162.5 273.71 155.05 275.6 152.15 276.19C143.86 277.89 135.01 279.07 126.56 279.38C114.8 279.81 102.15 278.84 90.74 276.03C86.35 274.95 81.18 272.5 86.57 268.94C90.3 266.48 94.79 265.05 99.02 263.72C101.44 262.96 103.93 262.64 105.97 261.13C110.51 257.76 113.52 252.43 114.48 246.91C116.32 236.31 111.75 225.3 106.45 216.34C105.32 214.43 104.07 211.76 102.41 210.21C100.73 208.65 97.9 207.97 95.89 206.75C93.03 205.02 90.44 202.89 88.19 200.42C80.15 191.62 77.39 179.35 77.06 167.75C76.79 158.59 77.9 149.38 79.96 140.46C82.08 131.25 84.96 122.45 85.66 112.91C86.82 97.17 84.46 81.32 80.34 66.15C79.75 63.98 79.11 61.81 78.47 59.65C78.29 59.06 76.98 56.17 77.3 55.54C76.95 56.23 81.61 54.83 82.01 54.72C83.97 54.2 85.95 53.75 87.94 53.37C92.82 52.42 97.76 51.84 102.71 51.47C116.33 50.45 130.53 50.45 144.13 51.72C148.6 52.14 153.05 52.74 157.44 53.67C159.41 54.09 161.37 54.56 163.3 55.12C163.29 55.12 166.73 56.29 166.35 55.71C166.37 55.74 166.35 55.39 166.48 55.96C166.71 56.96 165.48 59.4 165.21 60.33C164.49 62.75 163.79 65.18 163.15 67.62C159.07 83.12 156.86 99.37 158.45 115.39C159.34 124.4 162.25 132.75 164.17 141.51C168.43 160.86 169.78 186.3 154.66 201.49C152.4 203.76 149.84 205.7 147.05 207.29C145.26 208.31 142.89 208.86 141.42 210.26C139.42 212.17 137.95 215.36 136.62 217.72C131.52 226.77 127.19 237.93 129.7 248.43C131.05 254.09 134.52 258.52 139.06 262.01C140.34 262.99 141.59 260.81 140.32 259.84Z" fill="#001726"/>
<path d="M109.77 264.02C117.1 267.42 125.03 267.71 132.55 264.74C133.26 264.46 132.95 263.29 132.23 263.58C125.02 266.42 117.42 266.25 110.38 262.99C109.68 262.65 109.07 263.69 109.77 264.02Z" fill="#001726"/>
<path d="M121.27 54.38C134.66 54.38 148.13 54.72 160.76 59.67C161.48 59.95 161.8 58.79 161.08 58.51C148.35 53.53 134.77 53.18 121.27 53.18C120.49 53.17 120.49 54.38 121.27 54.38Z" fill="#001726"/>
<path d="M101.57 210.68C108.24 213.66 115.23 214.81 122.49 214.04C123.25 213.96 123.26 212.75 122.49 212.83C115.46 213.57 108.64 212.52 102.17 209.63C101.48 209.33 100.86 210.37 101.57 210.68Z" fill="#001726"/>
<path d="M87.27 93.95C87.27 93.95 136.55 85.19 153.86 94.36L156.3 95.79C156.3 95.79 155.89 125.32 160.98 139.98C166.07 154.64 171.77 201.07 133.08 209.62C133.08 209.62 98.26 216.75 87.26 194.35C87.26 194.35 75.65 180.1 80.74 150.16C80.74 150.16 89.09 116.97 88.07 105.77L87.27 93.95Z" fill="#F24B4B"/>
<path d="M101.46 188.49C105.16 188.49 108.16 185.49 108.16 181.79C108.16 178.09 105.16 175.09 101.46 175.09C97.7597 175.09 94.76 178.09 94.76 181.79C94.76 185.49 97.7597 188.49 101.46 188.49Z" fill="#C42424"/>
<path d="M132.47 192.85C132.47 194.52 131.12 195.87 129.45 195.87C127.78 195.87 126.43 194.52 126.43 192.85C126.43 191.18 127.78 189.83 129.45 189.83C131.11 189.83 132.47 191.18 132.47 192.85Z" fill="#C42424"/>
<path d="M124.42 178.6C124.42 179.62 123.59 180.44 122.58 180.44C121.56 180.44 120.74 179.61 120.74 178.6C120.74 177.58 121.57 176.76 122.58 176.76C123.6 176.76 124.42 177.59 124.42 178.6Z" fill="#C42424"/>
<path d="M132.3 160C132.3 161.76 130.87 163.18 129.12 163.18C127.36 163.18 125.94 161.75 125.94 160C125.94 158.24 127.37 156.82 129.12 156.82C130.87 156.82 132.3 158.24 132.3 160Z" fill="#C42424"/>
<path d="M120.32 135.04C121.756 135.04 122.92 133.876 122.92 132.44C122.92 131.004 121.756 129.84 120.32 129.84C118.884 129.84 117.72 131.004 117.72 132.44C117.72 133.876 118.884 135.04 120.32 135.04Z" fill="#C42424"/>
<path d="M114.45 156.48C115.234 156.48 115.87 155.844 115.87 155.06C115.87 154.276 115.234 153.64 114.45 153.64C113.666 153.64 113.03 154.276 113.03 155.06C113.03 155.844 113.666 156.48 114.45 156.48Z" fill="#C42424"/>
<path d="M133.47 123.3C133.47 124.5 132.49 125.48 131.29 125.48C130.09 125.48 129.11 124.5 129.11 123.3C129.11 122.1 130.09 121.12 131.29 121.12C132.5 121.13 133.47 122.1 133.47 123.3Z" fill="#C42424"/>
<path d="M154.08 109.06C154.08 109.89 153.4 110.57 152.57 110.57C151.74 110.57 151.06 109.89 151.06 109.06C151.06 108.23 151.74 107.55 152.57 107.55C153.41 107.55 154.08 108.23 154.08 109.06Z" fill="#C42424"/>
<path d="M114.37 110.57C114.37 111.5 113.62 112.25 112.69 112.25C111.76 112.25 111.01 111.5 111.01 110.57C111.01 109.64 111.76 108.89 112.69 108.89C113.62 108.89 114.37 109.64 114.37 110.57Z" fill="#C42424"/>
<path d="M143.11 192.35C144.176 192.35 145.04 191.486 145.04 190.42C145.04 189.354 144.176 188.49 143.11 188.49C142.044 188.49 141.18 189.354 141.18 190.42C141.18 191.486 142.044 192.35 143.11 192.35Z" fill="#C42424"/>
<path d="M145.37 175.76C145.37 176.41 144.84 176.93 144.2 176.93C143.55 176.93 143.03 176.4 143.03 175.76C143.03 175.11 143.56 174.59 144.2 174.59C144.84 174.58 145.37 175.11 145.37 175.76Z" fill="#C42424"/>
<path d="M109 201.73C109.74 201.73 110.34 201.13 110.34 200.39C110.34 199.65 109.74 199.05 109 199.05C108.26 199.05 107.66 199.65 107.66 200.39C107.66 201.13 108.26 201.73 109 201.73Z" fill="#C42424"/>
<path d="M98.95 162.6C98.95 164.22 97.64 165.53 96.02 165.53C94.4 165.53 93.09 164.22 93.09 162.6C93.09 160.98 94.4 159.67 96.02 159.67C97.64 159.67 98.95 160.98 98.95 162.6Z" fill="#C42424"/>
<path d="M157.52 143.41C158.304 143.41 158.94 142.774 158.94 141.99C158.94 141.206 158.304 140.57 157.52 140.57C156.736 140.57 156.1 141.206 156.1 141.99C156.1 142.774 156.736 143.41 157.52 143.41Z" fill="#C42424"/>
<path d="M134.31 144.84C134.31 145.35 133.9 145.76 133.39 145.76C132.88 145.76 132.47 145.35 132.47 144.84C132.47 144.33 132.88 143.92 133.39 143.92C133.9 143.92 134.31 144.33 134.31 144.84Z" fill="#C42424"/>
<path d="M101.8 147.94C103.28 147.94 104.48 146.74 104.48 145.26C104.48 143.78 103.28 142.58 101.8 142.58C100.32 142.58 99.12 143.78 99.12 145.26C99.12 146.74 100.32 147.94 101.8 147.94Z" fill="#C42424"/>
<path d="M87.27 94.36L84.22 71.83C84.22 71.83 106.76 66.67 118.97 66.81C118.97 66.81 147.89 67.49 156.85 71.29L156.3 96.2C156.3 96.2 149.11 88.53 115.3 90.97C115.3 90.97 89.64 93.01 87.27 94.36Z" fill="#F2CB05"/>
<path d="M111.18 82.5C111.18 83.33 110.5 84.01 109.67 84.01C108.84 84.01 108.16 83.33 108.16 82.5C108.16 81.67 108.84 80.99 109.67 80.99C110.51 80.99 111.18 81.67 111.18 82.5Z" fill="#C42424"/>
<path d="M120.4 76.05C120.4 76.93 119.69 77.64 118.81 77.64C117.93 77.64 117.22 76.93 117.22 76.05C117.22 75.17 117.93 74.46 118.81 74.46C119.69 74.46 120.4 75.17 120.4 76.05Z" fill="#C42424"/>
<path d="M101.88 78.98C102.576 78.98 103.14 78.4159 103.14 77.72C103.14 77.0241 102.576 76.46 101.88 76.46C101.184 76.46 100.62 77.0241 100.62 77.72C100.62 78.4159 101.184 78.98 101.88 78.98Z" fill="#C42424"/>
<path d="M128.36 86.02C129.056 86.02 129.62 85.4559 129.62 84.76C129.62 84.0641 129.056 83.5 128.36 83.5C127.664 83.5 127.1 84.0641 127.1 84.76C127.1 85.4559 127.664 86.02 128.36 86.02Z" fill="#C42424"/>
<path d="M139.34 75.13C140.174 75.13 140.85 74.454 140.85 73.62C140.85 72.7861 140.174 72.11 139.34 72.11C138.506 72.11 137.83 72.7861 137.83 73.62C137.83 74.454 138.506 75.13 139.34 75.13Z" fill="#C42424"/>
<path d="M130.71 77.14C131.406 77.14 131.97 76.5759 131.97 75.88C131.97 75.1841 131.406 74.62 130.71 74.62C130.014 74.62 129.45 75.1841 129.45 75.88C129.45 76.5759 130.014 77.14 130.71 77.14Z" fill="#C42424"/>
<path d="M151.74 88.36C152.386 88.36 152.91 87.8362 152.91 87.19C152.91 86.5438 152.386 86.02 151.74 86.02C151.094 86.02 150.57 86.5438 150.57 87.19C150.57 87.8362 151.094 88.36 151.74 88.36Z" fill="#C42424"/>
<path d="M152.5 142.35C152.71 142.66 152.92 142.97 153.12 143.28C153.26 143.49 153.64 143.36 153.55 143.1C153.43 142.75 153.31 142.4 153.18 142.06C153 141.52 152.2 141.91 152.5 142.35Z" fill="white"/>
<path d="M153.26 146.91C155.06 154.98 155.28 163.25 153.66 171.38C152.2 178.7 148.28 184.84 146.21 191.83C145.98 192.61 146.99 193.16 147.55 192.61C152.99 187.33 155.17 177.61 156.17 170.39C157.28 162.36 156.7 154.35 154.63 146.53C154.39 145.65 153.06 146.02 153.26 146.91Z" fill="white"/>
<path d="M96.56 107.81C94.22 127.82 84.48 146.45 84.84 166.86C84.98 174.69 87.08 182.91 91.15 189.65C94.59 195.35 100.82 202.18 108 202.2C110 202.21 111.83 199.68 110.48 197.87C106.54 192.59 101.26 189.11 97.87 183.21C93.81 176.14 92.3 167.6 92.31 159.53C92.32 150.64 93.72 141.54 95.1 132.78C95.77 128.52 96.64 124.31 97.4 120.07C98.13 115.95 97.99 111.97 98.08 107.8C98.09 106.82 96.67 106.87 96.56 107.81Z" fill="white"/>
<path d="M124.92 73.26C129.19 72.95 133.48 72.65 137.76 72.87C142 73.09 145.92 74.48 150.08 74.92C150.6 74.98 150.96 74.16 150.53 73.83C143.89 68.7 132.68 70.33 124.92 70.95C123.45 71.07 123.43 73.37 124.92 73.26Z" fill="white"/>
<path d="M141.01 77.98C142.17 78 143.29 78.11 144.44 78.27C145.28 78.39 146.03 78.53 146.82 78.16C147.22 77.97 147.1 77.46 146.82 77.24C146.03 76.63 144.95 76.75 144 76.83C142.97 76.92 141.93 77.04 140.91 77.19C140.45 77.26 140.58 77.98 141.01 77.98Z" fill="white"/>
<path d="M142.52 82.98C143.21 82.93 143.88 82.94 144.56 82.98C145.19 83.01 145.87 83.15 146.48 82.97C146.94 82.84 147.21 82.15 146.79 81.81C145.68 80.93 143.86 81.07 142.52 81.21C141.41 81.33 141.37 83.06 142.52 82.98Z" fill="white"/>
<path d="M108.25 256.08C110.78 258.97 113.32 261.93 115.14 265.34C117.04 268.89 117.81 272.77 117.44 276.78C117.27 278.67 117 280.56 116.61 282.42C115.83 286.12 114.57 289.74 112.73 293.05C109.32 299.16 103.73 304.22 96.98 306.1C93.6 307.04 90.04 307.17 86.53 306.97C83.48 306.8 80.43 306.38 77.52 305.45C67.38 302.19 59.92 292.48 58.33 281.95C57.72 277.91 57.89 273.77 58.53 269.74C58.94 267.19 59.53 264.65 60.49 262.25C62.65 256.85 66.65 252.22 71.68 249.31C76.71 246.4 82.73 245.23 88.48 246.05C92.49 246.62 96.31 248.11 99.98 249.83C101.73 250.65 103.47 251.53 104.97 252.75C106.19 253.73 107.22 254.91 108.25 256.08Z" fill="#53D7E2"/>
<path d="M107.04 257.29C109.42 260.01 111.81 262.8 113.52 266C115.31 269.34 116.03 272.99 115.69 276.76C115.53 278.54 115.27 280.32 114.9 282.07C114.17 285.56 112.99 288.96 111.25 292.07C108.04 297.82 102.78 302.58 96.44 304.34C93.26 305.23 89.91 305.35 86.61 305.16C83.74 305 80.87 304.61 78.14 303.73C68.6 300.66 61.58 291.53 60.08 281.62C59.51 277.82 59.66 273.93 60.27 270.13C60.65 267.73 61.22 265.34 62.12 263.09C64.15 258.01 67.92 253.65 72.65 250.91C77.38 248.17 83.04 247.07 88.45 247.84C92.22 248.38 95.82 249.78 99.27 251.4C100.91 252.17 102.55 253 103.96 254.14C105.1 255.07 106.07 256.18 107.04 257.29Z" fill="#FEFDF8"/>
<path d="M80.71 269.23C79.58 267.95 78.45 266.67 77.31 265.38C76.37 264.32 75.44 263.26 74.66 262.07C74.37 261.62 74.1 261.15 73.74 260.76C73.29 260.26 72.7 259.88 72.05 259.67C71.43 259.46 70.74 259.41 70.14 259.66C69.51 259.92 69.06 260.47 68.64 261C67.41 262.53 66.16 264.07 65.23 265.8C64.29 267.53 63.67 269.48 63.76 271.44C63.79 272 63.9 272.61 64.33 272.97C64.52 273.13 64.76 273.23 65 273.31C69.51 274.93 74.54 274.07 79.2 275.18C80.42 275.47 81.61 275.89 82.86 275.97C83.67 276.02 84.61 275.86 85.04 275.17C85.33 274.71 85.32 274.11 85.15 273.59C84.75 272.42 84.08 272.21 83.15 271.56C82.22 270.93 81.46 270.08 80.71 269.23Z" fill="#F24B4B"/>
<path d="M78.07 276.97C76.36 277.08 74.66 277.18 72.95 277.29C71.54 277.38 70.12 277.46 68.72 277.35C68.19 277.31 67.65 277.23 67.12 277.27C66.44 277.32 65.78 277.55 65.22 277.93C64.68 278.29 64.21 278.8 64.04 279.43C63.86 280.08 64.02 280.78 64.17 281.44C64.62 283.36 65.07 285.28 65.86 287.09C66.65 288.89 67.8 290.58 69.41 291.72C69.87 292.04 70.42 292.33 70.96 292.21C71.21 292.16 71.43 292.03 71.64 291.89C75.68 289.33 78.11 284.83 81.84 281.84C82.81 281.06 83.88 280.38 84.71 279.44C85.25 278.83 85.7 277.99 85.42 277.23C85.24 276.72 84.76 276.35 84.24 276.18C83.07 275.78 82.49 276.17 81.41 276.51C80.34 276.83 79.2 276.9 78.07 276.97Z" fill="#F24B4B"/>
<path d="M81.93 283.42C80.86 284.75 79.79 286.09 78.72 287.42C77.83 288.52 76.95 289.63 75.91 290.59C75.52 290.96 75.1 291.3 74.77 291.72C74.35 292.25 74.08 292.9 73.98 293.57C73.88 294.21 73.95 294.9 74.29 295.45C74.65 296.02 75.27 296.38 75.86 296.71C77.58 297.67 79.31 298.63 81.17 299.26C83.03 299.89 85.06 300.18 86.98 299.75C87.53 299.63 88.11 299.41 88.39 298.93C88.52 298.71 88.57 298.46 88.61 298.21C89.44 293.49 87.75 288.68 88.05 283.9C88.13 282.65 88.34 281.4 88.21 280.16C88.13 279.35 87.81 278.46 87.06 278.14C86.56 277.93 85.97 278.04 85.49 278.3C84.4 278.9 84.31 279.59 83.83 280.61C83.35 281.65 82.63 282.55 81.93 283.42Z" fill="#F24B4B"/>
<path d="M90.1 284.67C90.48 286.34 90.86 288.01 91.23 289.67C91.54 291.05 91.86 292.43 91.97 293.84C92.01 294.37 92.03 294.91 92.15 295.44C92.31 296.1 92.64 296.71 93.1 297.21C93.54 297.69 94.12 298.07 94.77 298.14C95.44 298.21 96.1 297.95 96.73 297.69C98.55 296.94 100.38 296.18 102.03 295.11C103.68 294.04 105.17 292.64 106.03 290.87C106.27 290.37 106.47 289.78 106.26 289.26C106.17 289.03 106 288.83 105.84 288.64C102.66 285.06 97.84 283.39 94.28 280.18C93.35 279.34 92.51 278.4 91.45 277.73C90.76 277.29 89.86 276.99 89.15 277.38C88.67 277.64 88.39 278.18 88.3 278.71C88.09 279.93 88.57 280.44 89.08 281.45C89.6 282.46 89.86 283.58 90.1 284.67Z" fill="#F24B4B"/>
<path d="M95.96 279.02C97.5 279.77 99.04 280.52 100.57 281.26C101.84 281.88 103.12 282.5 104.29 283.29C104.73 283.59 105.16 283.92 105.65 284.15C106.26 284.44 106.95 284.56 107.63 284.51C108.28 284.46 108.94 284.25 109.4 283.78C109.88 283.3 110.08 282.62 110.27 281.97C110.82 280.08 111.37 278.18 111.57 276.22C111.77 274.26 111.6 272.23 110.76 270.45C110.52 269.94 110.18 269.43 109.65 269.26C109.41 269.18 109.15 269.19 108.9 269.2C106.35 269.33 103.92 270.17 101.54 271.02C100.31 271.46 99.08 271.91 97.82 272.28C97.21 272.46 96.6 272.62 95.97 272.76C95.36 272.89 94.9 273.24 94.3 273.43C93.08 273.81 91.78 273.91 90.58 274.34C89.41 274.76 89.39 275.79 90.18 276.68C91 277.61 91.7 277.55 92.8 277.78C93.92 278.03 94.95 278.53 95.96 279.02Z" fill="#F24B4B"/>
<path d="M89.79 258.63C90.07 257.36 90.39 256.09 90.53 254.8C90.57 254.46 90.59 254.11 90.51 253.78C90.37 253.17 89.89 252.69 89.33 252.41C88.77 252.13 88.15 252.03 87.53 251.98C84.92 251.75 82.31 252.26 79.83 253.03C78.64 253.4 77.5 253.91 76.32 254.29C75.48 254.56 74.88 254.93 75 255.98C75.08 256.63 75.44 257.21 75.8 257.76C77.15 259.85 78.5 261.94 79.86 264.02C81.6 266.71 83.07 269.6 84.61 272.41C85.13 273.36 86.46 273.86 87.45 272.91C88.03 272.36 87.98 271.75 87.99 271.01C88.04 268.38 88.49 265.71 88.92 263.12C89.16 261.62 89.45 260.12 89.79 258.63Z" fill="#F24B4B"/>
<path d="M107.22 263.51C107.23 262.76 106.81 262.09 106.41 261.46C105.9 260.66 105.39 259.87 104.81 259.12C103.03 256.86 100.55 255.16 97.81 254.31C97.04 254.07 96.12 253.92 95.48 254.42C95.18 254.65 94.99 254.99 94.82 255.32C93.32 258.14 92.19 261.17 91.48 264.29C91.34 264.92 91.21 265.56 90.99 266.18C90.7 267 90.26 267.75 89.87 268.53C89.19 269.9 88.69 271.36 88.39 272.86C88.28 273.42 88.12 273.95 88.76 274.13C89.32 274.28 89.99 274.26 90.53 274.06C91.13 273.84 91.65 273.45 92.22 273.16C93.1 272.7 94.09 272.46 94.94 271.95C95.32 271.72 95.68 271.44 96.03 271.17C97.2 270.28 98.57 269.64 99.73 268.75C100.18 268.4 100.44 268.02 100.98 267.76C101.6 267.46 102.26 267.26 102.89 266.99C103.49 266.74 104.09 266.48 104.72 266.32C105.13 266.22 105.58 266.22 105.92 265.95C106.56 265.41 107.21 264.34 107.22 263.51Z" fill="#F24B4B"/>
<path d="M107.94 256.4C114.26 263.66 118.21 270.5 116.54 280.44C115.32 287.68 112.33 294.76 106.91 299.86C94.92 311.12 73.69 308.04 64.22 295.06C55.79 283.51 56.19 264.59 66.3 254.1C77.55 242.42 97.56 244.71 107.94 256.4C108.32 256.83 108.94 256.2 108.57 255.77C100.47 246.65 85.67 242.65 74.3 247.51C62.04 252.75 56.96 265.8 57.55 278.47C58.09 289.98 65.1 301.15 76.04 305.4C88.18 310.12 102.53 307.52 110.63 297.05C115.31 290.99 117.94 282.71 117.98 275.08C118.02 267.29 113.45 261.39 108.57 255.78C108.19 255.34 107.57 255.97 107.94 256.4Z" fill="#001726"/>
<path d="M106.71 257.62C112.68 264.49 116.35 270.88 114.78 280.19C113.6 287.22 110.63 294.03 105.26 298.86C94.8 308.27 76.49 306.29 67.35 295.99C57.9 285.35 57.43 266.55 67.19 255.9C77.65 244.51 96.81 246.47 106.71 257.62C107.07 258.02 107.65 257.43 107.3 257.03C99.58 248.33 85.4 244.64 74.65 249.5C62.77 254.87 58.13 268.33 59.6 280.66C60.84 291.06 67.91 300.79 78.04 304.08C89.14 307.68 101.63 305.42 109.03 296.04C113.53 290.33 116.12 282.42 116.13 275.15C116.14 267.84 111.89 262.32 107.29 257.03C106.94 256.63 106.36 257.22 106.71 257.62Z" fill="#001726"/>
<path d="M88.51 297.5C88.5 302.19 74.78 298.02 74.25 294.91C73.95 293.18 76.63 291 77.64 289.7C79.11 287.8 80.56 285.88 81.97 283.94C82.59 283.09 84.49 279.3 85.53 278.96C87.94 278.17 87.24 281.94 87.33 283.07C87.73 287.88 88.12 292.69 88.51 297.5C88.55 298.03 89.39 298.03 89.34 297.5C88.97 292.92 88.59 288.34 88.22 283.75C88.11 282.46 88.84 278.79 87.72 277.76C86.38 276.53 85.1 278.17 84.32 279.15C81.62 282.56 79.31 286.29 76.57 289.69C75.6 290.9 72.9 293.19 73.32 294.97C73.67 296.46 76.73 297.92 77.88 298.47C80.78 299.86 89.32 303.13 89.32 297.5C89.34 296.97 88.51 296.97 88.51 297.5Z" fill="#001726"/>
<path d="M104.99 288.15C106.06 288.99 104.37 292.22 103.73 293.03C102.88 294.1 101.18 295.11 99.93 295.84C98.46 296.69 95.24 298.62 93.62 297.27C92.58 296.41 92.13 291.73 91.8 290.47C91.24 288.37 90.69 286.27 90.09 284.18C89.78 283.1 88.72 281.13 88.82 280.01C89.14 276.33 91.76 279.44 92.99 280.25C97.02 282.91 101.05 285.56 105.07 288.22C105.52 288.52 105.94 287.8 105.49 287.5C101.65 284.97 97.81 282.44 93.98 279.91C92.85 279.16 90.45 276.36 88.95 276.67C87.19 277.04 87.71 278.99 88.02 280.23C89.02 284.24 90.38 288.19 91.4 292.2C92.69 297.26 92.56 300.02 98.24 297.62C101.18 296.37 110.24 291.23 105.58 287.57C105.16 287.23 104.57 287.82 104.99 288.15Z" fill="#001726"/>
<path d="M107.88 269.43C112.13 268.39 111.66 282.11 108.77 283.9C107.59 284.63 102.12 281.52 100.84 280.97C99.25 280.29 97.66 279.6 96.06 278.95C95.1 278.56 91.08 277.57 90.58 276.77C89.27 274.66 93.19 274.36 94.15 274.03C98.73 272.5 103.31 270.97 107.88 269.43C108.39 269.26 108.17 268.46 107.66 268.63C103.3 270.09 98.94 271.55 94.58 273.01C93.23 273.46 89.09 273.59 88.81 275.41C88.59 276.85 89.91 277.37 91.11 277.91C95.11 279.7 99.32 281.04 103.29 282.92C108.08 285.18 109.87 285.94 111.24 280.07C112 276.82 113.28 267.24 107.65 268.62C107.14 268.76 107.36 269.56 107.88 269.43Z" fill="#001726"/>
<path d="M94.48 255.47C94.73 254.76 95.06 253.98 95.76 253.71C96.36 253.48 97.03 253.73 97.61 254C99.75 255 101.72 256.37 103.4 258.03C104.24 258.86 105.01 259.76 105.71 260.72C106.39 261.66 106.77 262.61 107.2 263.69C107.23 263.78 107.27 263.86 107.28 263.96C107.29 264.05 107.27 264.15 107.24 264.24C107.14 264.49 106.92 264.67 106.7 264.83C106.04 265.33 105.42 265.92 104.63 266.2C103.87 266.47 103.21 266.79 102.5 267.17C100.68 268.17 98.85 269.17 97.03 270.17C95.5 271.01 94 271.92 92.48 272.79C91.53 273.33 89.66 274.78 88.47 274.46C88.14 274.37 87.88 274.07 87.82 273.73C87.73 273.22 88.12 272.85 88.35 272.44C88.58 272.01 88.78 271.52 88.95 271.06C89.56 269.34 90.17 267.62 90.78 265.9C92.02 262.41 93.25 258.94 94.48 255.47Z" stroke="#001726" stroke-miterlimit="10"/>
<path d="M75.97 257.36C73.93 253.48 87.67 250.42 89.82 253.03C90.81 254.23 89.23 259.25 89 260.66C88.6 263.09 88.21 265.52 87.86 267.97C87.76 268.69 87.68 271.97 87.25 272.41C85.48 274.19 84.33 270.53 83.74 269.58C81.14 265.5 78.56 261.43 75.97 257.36C75.68 256.91 74.96 257.33 75.25 257.78C77.71 261.66 80.18 265.54 82.64 269.42C83.33 270.51 84.4 274.11 85.88 274.47C87.65 274.9 87.98 272.87 88.23 271.65C89.12 267.15 89.39 262.51 90.29 258C90.56 256.63 91.71 253.82 90.58 252.54C89.58 251.4 86.17 251.52 84.9 251.57C81.62 251.72 72.64 252.79 75.25 257.78C75.5 258.25 76.22 257.83 75.97 257.36Z" fill="#001726"/>
<path d="M65.74 273.32C64.41 273.08 64.4 269.41 64.6 268.41C64.86 267.08 65.89 265.38 66.66 264.16C67.91 262.2 70.03 258.72 72.47 260.68C75.55 263.14 78.04 267.05 80.8 269.92C81.52 270.66 83.52 272.04 83.87 273.02C84.95 276.12 81.66 274.9 80.04 274.74C75.24 274.26 70.44 273.79 65.63 273.31C65.1 273.26 65.1 274.09 65.63 274.14C70.2 274.59 74.78 275.02 79.36 275.5C80.76 275.65 83.98 277 85.31 276.02C88.06 273.97 77.09 264.77 75.9 263.41C74.94 262.31 72.8 258.67 70.96 258.84C69.52 258.97 67.74 261.26 66.99 262.24C65.04 264.78 59.85 273.09 65.53 274.13C66.04 274.22 66.27 273.41 65.74 273.32Z" fill="#001726"/>
<path d="M71.9 291.24C68.64 294.13 62.66 281.75 64.38 278.82C65.07 277.64 71.4 277.85 72.78 277.74C74.91 277.57 77.03 277.4 79.15 277.18C79.93 277.1 83.15 276.27 83.82 276.69C85.9 277.99 82.61 280.04 81.9 280.78C78.57 284.27 75.23 287.75 71.9 291.24C71.53 291.63 72.12 292.22 72.49 291.83C75.67 288.51 78.84 285.18 82.02 281.86C83.01 280.83 86.62 278.79 85.99 277.03C85.45 275.52 83.71 275.86 82.35 275.97C78.12 276.32 73.91 276.96 69.66 277.15C68.17 277.22 64.91 276.72 63.78 278.09C62.84 279.23 63.65 282.15 63.97 283.4C64.81 286.65 68.14 295.67 72.48 291.83C72.89 291.47 72.3 290.89 71.9 291.24Z" fill="#001726"/>
<path d="M107.67 277.63C107.23 281.03 101.72 278.72 100 278.31C97.84 277.8 95.69 277.27 93.54 276.73C93.02 276.6 92.8 277.4 93.32 277.53C95.47 278.07 97.62 278.6 99.78 279.11C101.75 279.58 104.03 280.51 106.06 280.5C107.87 280.49 108.3 279.2 108.51 277.62C108.57 277.1 107.74 277.11 107.67 277.63Z" fill="#001726"/>
<path d="M101.95 260.69C101.98 261.73 102.02 262.76 102.05 263.8C101.69 264.1 101.34 264.4 100.98 264.71C100.45 265.11 99.87 265.45 99.3 265.79C98.27 266.41 97.19 266.96 96.13 267.53C94.21 268.56 92.37 269.65 90.7 271.07C90.29 271.42 90.88 272 91.29 271.66C94.53 268.89 98.86 267.74 102.04 264.93C103.59 263.56 104.49 261.25 102.36 259.97C101.92 259.7 101.5 260.42 101.95 260.69Z" fill="#001726"/>
<path d="M84.65 254.89C87.8 253.75 86.83 259.64 86.78 261.27C86.7 263.69 86.63 266.12 86.55 268.54C86.53 269.08 87.37 269.08 87.38 268.54C87.44 266.46 87.51 264.38 87.57 262.31C87.64 260.19 88.04 257.75 87.75 255.65C87.48 253.67 86.19 253.44 84.42 254.08C83.92 254.27 84.14 255.08 84.65 254.89Z" fill="#001726"/>
<path d="M69.29 265.27C70.71 261.54 75.08 268.01 76.3 269.13C78.08 270.76 79.99 272.26 81.84 273.82C82.25 274.16 82.84 273.58 82.43 273.23C80.58 271.68 78.67 270.17 76.89 268.54C75.43 267.2 74.48 265.29 72.91 264.11C71.31 262.9 69.25 263.03 68.49 265.04C68.29 265.55 69.1 265.76 69.29 265.27Z" fill="#001726"/>
<path d="M67.34 283.35C66.26 280.01 72.87 279.96 74.6 279.72C76.56 279.46 78.5 279.17 80.41 278.64C80.93 278.5 80.71 277.69 80.19 277.84C76.45 278.88 72.52 278.84 68.79 279.88C66.33 280.57 65.72 281.03 66.53 283.56C66.7 284.08 67.5 283.87 67.34 283.35Z" fill="#001726"/>
<path d="M80.23 296.28C76.39 295.46 79.84 290.96 80.96 288.98C82.25 286.69 83.69 284.51 85.23 282.38C85.55 281.95 84.82 281.53 84.51 281.96C81.94 285.5 79.09 289.54 77.64 293.7C76.93 295.74 78.02 296.65 80.01 297.08C80.53 297.19 80.75 296.39 80.23 296.28Z" fill="#001726"/>
<path d="M100 291.96C99.48 292.78 98.83 293.48 98.04 294.04C95.89 294.17 94.75 293.48 94.61 291.95C94.19 290.93 94.07 289.69 93.7 288.63C92.93 286.42 92.06 284.24 91.23 282.04C91.04 281.54 90.24 281.76 90.43 282.26C91.31 284.6 92.24 286.92 93.05 289.28C93.57 290.8 93.56 292.97 94.59 294.26C96.6 296.78 99.42 294.14 100.72 292.37C101.04 291.95 100.31 291.54 100 291.96Z" fill="#001726"/>
</g>
<defs>
<clipPath id="clip0">
<rect width="198.81" height="307.66" fill="white"/>
</clipPath>
</defs>
</svg>
