<svg width="949" height="930" viewBox="0 0 949 930" fill="none" xmlns="http://www.w3.org/2000/svg">
<path d="M0.307922 883.25H570.273C890.74 883.25 989.749 482.499 806.759 474.771C623.77 467.043 612.271 404.115 570.273 337.139C528.275 270.164 529.275 201.348 432.281 177.796C335.286 154.244 326.305 34.5985 192.305 34.5985C58.3061 34.5985 1.30542 -1.16293 0.305237 0.0291541L0.307922 883.25Z" fill="#582A00"/>
<path d="M651.594 560.561C650.193 564.558 645.828 566.674 641.829 565.289C637.829 563.904 635.717 559.523 637.102 555.524C638.486 551.524 642.867 549.411 646.867 550.796C650.863 552.197 652.979 556.562 651.594 560.561Z" fill="#FFB90A"/>
<path d="M428.594 298.561C427.193 302.558 422.828 304.674 418.829 303.289C414.829 301.904 412.717 297.523 414.102 293.524C415.486 289.524 419.867 287.411 423.867 288.796C427.863 290.197 429.979 294.562 428.594 298.561Z" fill="white"/>
<path d="M528.594 731.561C527.193 735.558 522.828 737.674 518.829 736.289C514.829 734.904 512.717 730.523 514.102 726.524C515.486 722.524 519.867 720.411 523.867 721.796C527.863 723.197 529.979 727.562 528.594 731.561Z" fill="#FFB90A"/>
<path d="M194.204 100.561C192.803 104.558 188.438 106.674 184.439 105.289C180.439 103.904 178.326 99.5232 179.711 95.5238C181.096 91.5243 185.477 89.4115 189.476 90.7964C193.472 92.1971 195.589 96.562 194.204 100.561Z" fill="#FFB90A"/>
<path d="M728.26 694.069L728.261 694.069C735.998 696.748 740.093 705.193 737.41 712.947C734.715 720.681 726.255 724.773 718.517 722.093C710.782 719.398 706.691 710.938 709.37 703.2C712.065 695.465 720.51 691.371 728.26 694.069Z" fill="#FFF9F5" stroke="black"/>
<path d="M729.883 531.111C727.097 539.106 718.352 543.335 710.353 540.566C702.357 537.78 698.128 529.034 700.898 521.035C703.684 513.04 712.413 508.808 720.425 511.596C728.424 514.366 732.656 523.096 729.883 531.111Z" fill="#FFF9F5"/>
<path d="M129.48 175.041C127.524 180.653 121.385 183.622 115.77 181.678C110.157 179.722 107.188 173.583 109.133 167.968C111.088 162.355 117.216 159.384 122.84 161.342C128.455 163.286 131.426 169.414 129.48 175.041Z" fill="#FFF9F5"/>
<path d="M731.211 444.126C729.515 449.013 724.169 451.602 719.281 449.906C714.394 448.21 711.804 442.864 713.501 437.976C715.197 433.089 720.543 430.499 725.431 432.195C730.331 433.911 732.908 439.238 731.211 444.126Z" fill="#FFB90A"/>
<path d="M302.211 43.1256C300.515 48.0131 295.169 50.6025 290.281 48.9063C285.394 47.2101 282.804 41.8636 284.501 36.9761C286.197 32.0886 291.543 29.4992 296.431 31.1954C301.331 32.9105 303.908 38.2381 302.211 43.1256Z" fill="#FFB90A"/>
<g clip-path="url(#clip0)">
<path d="M-145.59 747.577C-145.59 747.577 -20.9115 655.05 6.50782 605.681C33.9271 556.275 46.422 501.878 93.779 460.51C141.136 419.141 144.067 393.733 157.796 383.867C171.525 374.001 202.453 356.364 219.807 334.194C238.395 314.919 254.592 360.059 246.725 377.696C238.82 395.333 220.116 412.17 201.027 417.503C194.393 433.121 180.665 471.671 174.031 479.48C192.851 500.012 201.875 577.645 195.242 590.33C188.609 603.053 297.939 660.154 297.939 660.154C297.939 660.154 271.677 714.284 165.856 725.902C87.9944 734.473 3.4998 824.22 -13.1215 853.78C-29.7813 883.378 -145.59 747.577 -145.59 747.577Z" fill="#F29444"/>
<path d="M213.714 366.42C213.714 366.42 177.194 389.047 172.99 392.895C168.787 396.704 179.507 405.008 178.813 405.96C167.514 402.456 161.035 396.133 161.035 396.133C161.035 396.133 168.131 406.265 172.334 409.122C163.31 406.875 160.032 404.018 156.832 402.113C144.26 423.788 147.268 443.558 116.3 482.641C85.3332 521.725 73.8796 542.6 81.3611 582.407C88.8426 622.214 56.6028 627.737 41.9869 637.489C27.371 647.241 -10.8078 702.17 -145.59 785.365C-165.914 780.146 -155.154 759.767 -155.154 759.767C-155.154 759.767 -120.948 741.901 -64.1423 691.543C-7.33698 641.184 15.3389 617.414 27.8723 583.397C40.4057 549.38 35.8937 534.524 83.6364 482.68C131.379 430.797 137.395 416.779 142.987 407.027C148.579 397.237 150.931 389.39 165.779 380.476C180.626 371.563 199.985 357.087 199.985 357.087L213.714 366.42Z" fill="#F0A65E"/>
<path d="M-46.7498 824.753C-2.86353 787.765 39.7115 759.729 87.4928 725.293C93.933 720.188 102.996 711.275 100.412 707.427C86.2202 678.096 56.5256 670.439 44.1079 636.156C50.5481 643.812 52.2835 647.736 59.1094 655.469C78.0445 676.915 99.602 686.4 120.234 695.314C147.345 706.78 175.265 698.514 202.376 687.01C226.942 676.61 240.902 651.545 237.547 626.061C265.892 643.431 297.9 660.154 297.9 660.154C297.9 660.154 271.638 714.284 165.817 725.902C87.9556 734.473 3.46103 824.22 -13.1602 853.78C-18.9449 864.065 -36.6845 854.351 -57.3936 837.324C-54.7326 832.791 -51.2618 828.563 -46.7498 824.753Z" fill="#E48031"/>
<path d="M98.0209 691.847C98.0209 691.847 -12.5431 769.633 -34.062 785.327C2.0728 750.891 83.405 676.953 83.405 676.953L98.0209 691.847Z" fill="#E48031"/>
<path d="M112.02 662.059C147.306 620.842 150.237 558.675 150.237 531.21C150.237 503.707 152.898 479.594 168.825 438.225C181.898 404.284 220.463 399.18 232.032 398.571C223.201 407.408 212.21 414.455 201.026 417.579C194.393 433.197 180.664 471.747 174.031 479.556C192.851 500.088 201.875 577.721 195.242 590.406C188.609 603.129 297.939 660.23 297.939 660.23C297.939 660.23 293.08 668.154 282.59 679.124C262.652 685.524 238.472 683.124 222.738 671.125C198.828 652.916 143.874 654.821 112.02 662.059Z" fill="#EF8839"/>
<path d="M136.161 649.641C171.447 608.424 158.181 553.266 158.181 525.801C158.181 498.298 156.87 483.099 178.852 442.301C196.129 410.227 220.463 399.18 232.032 398.571C223.201 407.408 212.21 414.455 201.026 417.579C194.393 433.197 180.664 471.747 174.031 479.556C192.851 500.088 201.875 577.721 195.242 590.406C188.609 603.129 297.939 660.23 297.939 660.23C297.939 660.23 293.079 668.154 282.59 679.124C262.652 685.524 181.166 704.151 195.01 690.133C225.592 659.088 167.977 642.403 136.161 649.641Z" fill="#D36B1C"/>
<path d="M150.237 604.958C162.963 588.083 173.646 582.407 173.646 582.407C173.646 582.407 144.722 577.645 165.778 535.362C176.538 526.448 169.866 522.296 165.778 514.335C161.691 506.373 159.415 485.879 173.954 473.804C175.805 472.28 177.733 470.833 179.7 469.538C177.541 474.109 175.535 477.689 173.993 479.556C192.812 500.088 201.836 577.721 195.203 590.406C188.57 603.129 297.9 660.23 297.9 660.23C297.9 660.23 291.383 673.715 271.676 688.648C272.64 682.02 271.753 673.411 261.38 671.125C243.987 667.354 219.229 680.61 207.891 668.078C196.553 655.545 203.572 631.699 204.96 629.947C183.017 642.784 146.843 650.974 150.237 604.958Z" fill="#D36B1C"/>
<path d="M210.59 374.496C204.883 375.677 195.049 364.973 191.385 360.744C201.721 352.973 212.094 344.06 219.807 334.232C221.003 333.013 222.16 332.06 223.317 331.298C226.633 333.889 233.536 340.136 235.734 348.25C238.665 359.03 217.686 373.048 210.59 374.496Z" fill="#FFCB8A"/>
<path d="M298.247 400.514C298.247 400.514 228.561 382.077 194.393 420.931C155.366 465.348 200.255 597.263 232.225 638.365C264.195 679.467 328.173 673.906 363.884 645.717C366.275 607.015 342.172 586.216 342.172 586.216C342.172 586.216 340.475 620.043 314.984 628.309C304.225 631.813 291.923 633.261 278.657 630.252C226.402 618.405 206.464 498.755 209.356 472.09C212.827 440.092 239.437 429.35 264.156 435.483C288.876 441.616 296.782 452.777 307.773 466.186C314.83 448.625 298.247 400.514 298.247 400.514Z" fill="white"/>
<path d="M279.196 402.227C279.196 402.227 234.307 391.485 199.252 421.045C164.197 450.605 191.54 540.695 200.332 566.179C209.086 591.663 230.528 658.44 282.474 662.021C250.273 656.421 225.476 624.994 208.662 571.398C191.848 517.801 187.49 492.127 189.65 464.738C191.81 437.349 198.443 407.903 279.196 402.227Z" fill="#FFDCB8"/>
<path d="M217.609 441.539C217.609 441.539 238.203 426.835 260.878 430.035C283.554 433.235 299.636 449.539 302.836 452.967C306.037 456.434 306.886 442.758 303.106 433.844C299.289 424.969 253.937 408.398 217.609 441.539Z" fill="#FFDCB8"/>
<path d="M349.152 621.3C349.152 621.3 307.271 660.954 261.38 635.889C282.745 654.25 304.649 661.564 331.953 652.079C359.256 642.594 356.017 642.518 354.012 636.118C352.006 629.718 349.152 621.3 349.152 621.3Z" fill="#FFDCB8"/>
<path d="M366.39 686.857C394.658 740.111 581.657 708.761 598.818 653.907C608.768 534.372 602.752 416.436 579.536 298.691C483.318 337.279 387.061 350.955 283.708 340.631C294.969 460.091 322.813 574.864 366.39 686.857Z" fill="white"/>
<path d="M359.603 644.841C321.27 546.409 298.903 445.234 286.909 340.898C384.516 332.48 457.865 315.909 576.566 299.796C594.962 403.256 603.292 506.412 594.538 611.51C577.916 664.763 387.023 696.495 359.603 644.841Z" fill="#FF9D0D"/>
<path d="M362.958 332.327C368.164 376.02 382.472 485.575 403.258 564.617C417.874 622.214 430.369 652.65 446.527 670.858C406.035 672.458 386.444 665.411 375.723 645.222C342.056 587.549 312.555 443.291 300.561 338.917C327.248 336.67 338.47 335.679 362.958 332.327Z" fill="#FF8900"/>
<path d="M557.824 302.424C565.035 328.099 574.947 373.353 583.585 464.738C591.452 548.009 582.891 609.224 578.186 632.537C561.488 645.565 534.57 656.192 505.184 662.973C515.48 636.346 520.764 601.644 518.874 516.544C517.139 439.216 498.589 349.05 490.413 312.747C512.819 309.129 531.986 306.081 557.824 302.424Z" fill="#FFAE27"/>
<path d="M553.929 302.958C531.639 306.195 527.821 307.033 506.61 310.424C514.786 346.726 526.934 437.006 528.669 514.373C530.559 599.472 515.442 636.346 505.184 662.935C515.48 636.308 520.764 601.605 518.874 516.506C517.139 439.178 498.589 349.012 490.413 312.709C511.662 309.319 530.058 306.424 553.929 302.958Z" fill="#FFB90A"/>
<path d="M440.935 320.48C452.582 373.886 467.39 492.126 469.126 577.416C456.824 481.918 430.253 353.126 423.967 323.185C429.559 322.309 435.228 321.394 440.935 320.48Z" fill="#FFB90A"/>
<path d="M358.523 651.812C358.523 651.812 369.283 679.81 438.467 676.61C507.613 673.41 541.859 660.268 547.566 656.573C537.154 667.925 502.947 678.057 470.129 682.705C437.31 687.352 403.027 684.724 394.543 684.609C386.058 684.495 389.568 693.257 408.657 695.847C427.785 698.437 476.878 701.599 524.427 681.638C513.514 692.457 484.976 701.789 443.365 704.151C401.754 706.513 380.814 694.514 373.564 687.581C366.313 680.686 358.523 651.812 358.523 651.812Z" fill="#FFDCB8"/>
<path opacity="0.25" d="M490.259 373.01C461.529 359.449 441.283 392.285 419.301 413.046C412.822 417.503 406.305 421.96 398.823 419.484C364 405.885 330.719 383.943 294.082 394.685C291.344 376.858 288.953 358.916 286.871 340.898C384.477 332.48 457.827 315.909 576.528 299.796C581.58 328.251 585.899 356.707 589.293 385.2C557.901 392.247 523.193 387.943 490.259 373.01Z" fill="white"/>
<g opacity="0.25">
<path opacity="0.25" d="M549.263 395.104C549.687 397.923 552.309 399.904 555.202 399.485C558.055 399.066 560.061 396.475 559.637 393.618C559.212 390.799 556.59 388.819 553.698 389.238C550.844 389.657 548.838 392.285 549.263 395.104Z" fill="white"/>
<path opacity="0.25" d="M541.627 431.635C542.013 434.378 544.597 436.282 547.373 435.901C550.15 435.52 552.078 432.968 551.692 430.226C551.307 427.483 548.723 425.578 545.946 425.959C543.17 426.34 541.241 428.892 541.627 431.635Z" fill="white"/>
<path opacity="0.25" d="M510.737 438.568C510.93 439.939 512.241 440.892 513.629 440.701C515.018 440.511 515.982 439.216 515.789 437.844C515.596 436.473 514.285 435.521 512.897 435.711C511.508 435.901 510.544 437.197 510.737 438.568Z" fill="white"/>
<path opacity="0.25" d="M490.452 414.417C490.915 417.541 493.807 419.674 496.97 419.255C500.132 418.798 502.291 415.941 501.867 412.817C501.404 409.693 498.512 407.56 495.35 407.979C492.188 408.436 489.989 411.293 490.452 414.417Z" fill="white"/>
<path opacity="0.25" d="M476.839 467.937C477.263 470.794 479.963 472.813 482.855 472.394C485.747 471.975 487.791 469.309 487.367 466.452C486.943 463.595 484.243 461.576 481.351 461.995C478.42 462.414 476.415 465.08 476.839 467.937Z" fill="white"/>
<path opacity="0.25" d="M423.582 460.738C424.16 464.662 427.862 467.404 431.834 466.833C435.807 466.262 438.583 462.605 438.005 458.681C437.426 454.758 433.724 452.015 429.752 452.586C425.78 453.158 423.003 456.777 423.582 460.738Z" fill="white"/>
<path opacity="0.25" d="M416.987 387.6C417.219 389.161 418.684 390.228 420.227 389.999C421.808 389.771 422.888 388.323 422.656 386.8C422.425 385.238 420.959 384.171 419.417 384.4C417.836 384.628 416.756 386.038 416.987 387.6Z" fill="white"/>
<path opacity="0.25" d="M369.167 479.48C369.476 481.499 371.365 482.908 373.409 482.641C375.453 482.337 376.88 480.47 376.61 478.451C376.302 476.432 374.412 475.023 372.368 475.289C370.324 475.556 368.897 477.461 369.167 479.48Z" fill="white"/>
<path opacity="0.25" d="M431.834 535.819C432.104 537.609 433.763 538.867 435.575 538.6C437.388 538.333 438.66 536.695 438.39 534.905C438.12 533.114 436.462 531.857 434.65 532.124C432.837 532.391 431.565 534.029 431.834 535.819Z" fill="white"/>
<path opacity="0.25" d="M501.366 547.551C501.559 548.847 502.793 549.761 504.104 549.57C505.415 549.38 506.341 548.161 506.148 546.866C505.955 545.571 504.721 544.656 503.41 544.847C502.099 545.037 501.173 546.256 501.366 547.551Z" fill="white"/>
<path opacity="0.25" d="M551.962 493.421C552.425 496.507 555.318 498.678 558.441 498.221C561.565 497.764 563.763 494.907 563.3 491.821C562.838 488.736 559.945 486.565 556.822 487.022C553.698 487.479 551.5 490.336 551.962 493.421Z" fill="white"/>
<path opacity="0.25" d="M557.284 593.072C557.593 595.167 559.56 596.615 561.642 596.31C563.763 596.006 565.229 594.063 564.92 592.006C564.612 589.911 562.645 588.463 560.562 588.768C558.48 589.073 557.014 591.015 557.284 593.072Z" fill="white"/>
<path opacity="0.25" d="M531.6 621.871C531.716 622.747 532.564 623.394 533.49 623.242C534.377 623.128 535.033 622.29 534.878 621.376C534.763 620.499 533.914 619.852 532.989 620.004C532.063 620.157 531.446 620.957 531.6 621.871Z" fill="white"/>
<path opacity="0.25" d="M482.508 604.424C482.855 606.9 485.207 608.614 487.714 608.272C490.221 607.929 491.956 605.605 491.609 603.129C491.262 600.653 488.91 598.939 486.403 599.282C483.896 599.625 482.122 601.948 482.508 604.424Z" fill="white"/>
<path opacity="0.25" d="M475.258 636.46C475.335 637.108 475.952 637.565 476.646 637.488C477.302 637.412 477.764 636.803 477.687 636.117C477.61 635.47 476.993 635.012 476.299 635.089C475.605 635.203 475.142 635.812 475.258 636.46Z" fill="white"/>
<path opacity="0.25" d="M438.853 584.083C439.239 586.749 441.745 588.616 444.484 588.235C447.183 587.854 449.073 585.378 448.687 582.673C448.301 580.007 445.795 578.14 443.057 578.521C440.319 578.94 438.467 581.416 438.853 584.083Z" fill="white"/>
<path opacity="0.25" d="M376.533 551.818C376.687 552.77 377.536 553.418 378.5 553.265C379.464 553.113 380.119 552.275 379.965 551.323C379.811 550.37 378.963 549.723 377.998 549.875C377.034 549.989 376.379 550.865 376.533 551.818Z" fill="white"/>
<path opacity="0.25" d="M398.399 631.394C398.823 634.365 401.638 636.46 404.646 636.003C407.654 635.546 409.776 632.803 409.313 629.832C408.889 626.861 406.073 624.766 403.065 625.223C400.057 625.642 397.975 628.385 398.399 631.394Z" fill="white"/>
<path opacity="0.25" d="M398.823 508.964C399.363 512.697 402.872 515.287 406.613 514.754C410.392 514.22 413.015 510.754 412.475 507.059C411.935 503.326 408.426 500.735 404.685 501.269C400.906 501.802 398.283 505.23 398.823 508.964Z" fill="white"/>
<path opacity="0.25" d="M350.078 425.616C350.271 426.835 351.389 427.673 352.623 427.521C353.857 427.33 354.706 426.226 354.551 425.007C354.397 423.788 353.24 422.95 352.006 423.102C350.772 423.254 349.924 424.397 350.078 425.616Z" fill="white"/>
<path opacity="0.25" d="M376.302 429.006C376.494 430.263 377.651 431.139 378.963 430.949C380.235 430.759 381.122 429.616 380.929 428.321C380.736 427.064 379.58 426.187 378.268 426.378C377.034 426.568 376.147 427.711 376.302 429.006Z" fill="white"/>
<path opacity="0.25" d="M465.54 396.361C465.771 398.037 467.352 399.18 469.049 398.951C470.746 398.723 471.903 397.161 471.671 395.485C471.44 393.809 469.859 392.666 468.162 392.895C466.465 393.161 465.308 394.685 465.54 396.361Z" fill="white"/>
<path opacity="0.25" d="M521.805 350.459C522.114 352.592 524.119 354.116 526.317 353.773C528.477 353.468 529.981 351.488 529.672 349.316C529.364 347.183 527.358 345.698 525.16 346.002C523 346.345 521.497 348.326 521.805 350.459Z" fill="white"/>
<path opacity="0.25" d="M541.743 538.219C542.013 540.2 543.864 541.571 545.869 541.266C547.875 541 549.263 539.171 548.954 537.19C548.684 535.21 546.833 533.838 544.828 534.143C542.823 534.41 541.434 536.238 541.743 538.219Z" fill="white"/>
<path opacity="0.25" d="M499.322 499.783C499.669 502.297 502.021 504.011 504.567 503.668C507.112 503.325 508.847 501.002 508.5 498.488C508.153 495.974 505.801 494.259 503.256 494.602C500.71 494.983 498.975 497.307 499.322 499.783Z" fill="white"/>
</g>
<path d="M283.747 340.593C387.1 350.878 483.318 337.241 579.574 298.653C589.408 348.44 596.119 398.266 599.859 448.206C593.766 435.749 589.563 422.721 586.246 409.427C578.765 379.41 570.589 363.716 559.405 368.972C548.222 374.229 550.998 382.457 566.54 419.445C591.799 479.632 556.783 511.973 533.567 486.184C510.351 460.357 501.674 416.284 499.823 390.457C497.972 364.63 479.461 352.25 451.194 359.754C422.926 367.258 441.861 399.028 405.726 420.017C369.591 440.968 348.497 362.459 328.983 354.231C309.469 346.002 298.209 357.43 303.453 388.057C305.999 403.066 300.175 409.389 292.308 410.418C288.799 387.257 285.945 364.02 283.747 340.593Z" fill="#D0C3BE"/>
<path d="M270.018 283.187C270.018 283.187 236.968 305.472 251.777 332.365C266.586 359.259 257.099 385.924 268.668 400.171C279.389 413.313 296.126 418.493 290.959 388.133C285.752 357.507 305.883 340.784 325.358 349.05C344.871 357.278 357.251 416.474 393.347 395.485C429.482 374.534 418.607 358.383 446.874 350.878C475.142 343.374 499.515 350.002 501.366 375.867C503.217 401.694 499.553 426.645 522.769 452.472C545.985 478.299 582.505 456.281 566.501 419.522C550.497 382.724 541.935 362.306 553.119 357.05C564.303 351.793 581.078 355.907 587.017 386.267C598.047 442.416 629.129 429.578 618.139 386.229C601.556 320.785 615.169 317.281 614.706 279.797C614.282 242.314 591.606 209.478 564.573 216.373C537.578 223.267 542.514 233.514 512.704 240.752C482.932 247.99 452.929 195.498 409.274 204.754C393.27 208.145 367.123 220.829 354.59 237.705C341.748 255.037 291.807 252.066 270.018 283.187Z" fill="#FFEDD8"/>
<path d="M435.112 229.172C435.112 229.172 459.369 232.562 485.863 208.335C512.357 184.146 506.803 159.5 524.774 154.357C542.745 149.215 567.851 162.319 551.384 181.441C534.917 200.564 538.079 204.069 551.615 200.183C565.151 196.298 573.443 178.089 582.968 168.071C592.532 158.052 622.767 160.719 602.327 194.241C581.888 227.724 557.169 224.601 546.178 229.819C535.225 235.038 531.369 253.056 531.369 253.056C476.993 243.114 457.711 225.172 435.112 229.172Z" fill="#FFEDD8"/>
<path d="M435.112 229.172C435.112 229.172 473.985 227.381 500.517 203.154C527.011 178.965 512.897 173.213 528.477 162.928C537.154 157.214 567.889 162.281 551.384 181.403C534.878 200.526 537.115 210.735 550.651 206.887C564.187 203.002 575.178 187.536 584.704 177.518C594.229 167.499 622.728 160.719 602.327 194.202C581.888 227.686 557.169 224.562 546.178 229.781C535.225 235 531.369 253.018 531.369 253.018C476.993 243.114 457.711 225.172 435.112 229.172Z" fill="#FFF9F5"/>
<path d="M364.038 227.648C364.038 227.648 340.09 254.046 292.655 239.762C245.221 225.477 229.178 196.412 203.803 200.678C178.428 204.945 163.388 231.267 195.357 245.209C227.327 259.113 225.515 265.36 206.425 268.522C187.336 271.722 166.087 254.046 148.193 247.342C130.338 240.6 94.5502 261.741 140.095 291.111C185.639 320.48 214.331 301.967 231.068 301.967C247.766 301.967 263.462 321.966 263.462 321.966C280.97 284.292 370.594 267.188 364.038 227.648Z" fill="#FFEDD8"/>
<path d="M364.038 227.648C364.038 227.648 340.09 254.046 292.655 239.762C245.221 225.477 229.178 196.412 203.803 200.678C178.428 204.945 185.369 229.21 217.339 243.114C249.309 257.018 225.476 265.322 206.425 268.522C187.336 271.722 166.087 254.046 148.193 247.342C130.338 240.6 112.02 260.218 158.528 288.063C191.385 307.719 214.331 302.005 231.03 302.005C247.728 302.005 263.424 322.004 263.424 322.004C280.97 284.292 370.594 267.188 364.038 227.648Z" fill="#FFF9F5"/>
<path d="M270.018 283.187C270.018 283.187 236.968 305.472 251.777 332.365C266.586 359.259 257.099 385.924 268.668 400.171C279.389 413.313 283.323 391.943 278.155 361.583C272.949 330.956 313.287 316.747 333.379 340.136C347.108 356.097 357.251 416.436 393.347 395.485C429.482 374.534 418.607 358.383 446.874 350.878C475.142 343.374 508.153 347.298 510.004 373.125C511.855 398.952 506.919 416.512 530.135 442.339C553.351 468.166 582.505 456.281 566.501 419.484C550.497 382.686 541.935 362.268 553.119 357.011C564.303 351.755 587.904 350.383 595.347 380.438C602.829 410.456 629.13 429.54 618.139 386.191C601.556 320.747 615.169 317.242 614.706 279.759C614.282 242.276 589.755 218.468 562.722 225.363C535.727 232.257 542.514 233.476 512.704 240.714C482.932 247.952 452.929 195.46 409.274 204.716C393.27 208.106 367.123 220.791 354.59 237.667C341.748 255.037 291.807 252.066 270.018 283.187Z" fill="#FFF9F5"/>
<path d="M405.533 214.506C405.533 214.506 428.865 200.488 457.171 222.658C485.439 244.79 501.983 254.427 524.543 241.895C547.142 229.362 549.687 259.075 519.915 273.055C490.144 287.035 469.589 248.332 449.613 229.4C429.675 210.506 405.533 214.506 405.533 214.506Z" fill="#FFEDD8"/>
<path d="M470.977 340.746C470.977 340.746 449.188 332.746 430.253 350.307C411.318 367.906 394.658 393.123 377.574 387.295C360.49 381.467 355.168 363.678 355.168 363.678C369.206 372.553 385.788 369.582 402.332 350.84C418.877 332.137 452.775 328.023 470.977 340.746Z" fill="#FFEDD8"/>
<path d="M275.996 321.966C275.996 321.966 285.521 293.015 315.331 291.872C345.142 290.768 342.326 310.766 367.355 311.224C392.383 311.681 412.552 277.74 445.293 287.492C436.732 280.559 417.951 278.769 393.27 292.596C368.627 306.424 362.727 284.063 338.007 276.026C313.326 268.026 274.029 283.263 275.996 321.966Z" fill="#FFEDD8"/>
<path d="M583.315 462.071C583.315 462.071 585.668 476.356 599.358 499.631C613.048 522.944 622.612 551.704 595.424 557.875C568.237 564.008 579.883 519.211 582.158 504.583C584.434 489.993 583.315 462.071 583.315 462.071Z" fill="#FFEDD8"/>
<path d="M599.358 499.669C610.85 519.287 619.45 542.752 605.721 553.38C603.022 555.17 601.672 555.399 601.171 555.513C573.983 561.646 584.164 525.648 586.439 511.059C588.714 496.469 583.315 462.109 583.315 462.109C583.315 462.109 585.668 476.356 599.358 499.669Z" fill="#FFF9F5"/>
<path d="M206.117 441.844C206.117 441.844 171.486 465.5 167.283 477.918C163.079 490.298 168.247 504.545 177.502 507.935C186.758 511.325 197.093 510.716 216.645 499.212C236.236 487.746 249.54 484.546 250.003 471.785C250.427 459.062 239.437 426.759 206.117 441.844Z" fill="#F0A65E"/>
<path d="M192.118 506.868C211.709 495.402 225.014 492.203 225.476 479.442C225.823 469.537 219.229 447.824 200.641 445.729C203.957 443.33 206.117 441.844 206.117 441.844C239.475 426.759 250.427 459.062 250.003 471.823C249.579 484.584 236.236 487.746 216.645 499.25C203.34 507.059 194.316 509.84 186.989 509.763C188.647 508.849 190.344 507.897 192.118 506.868Z" fill="#F29444"/>
<path d="M179.662 473.804C179.662 473.804 176.23 479.023 183.518 488.165C190.845 497.307 187.606 500.278 193.198 501.764C198.79 503.25 211.477 499.44 211.902 484.546C212.326 469.652 195.782 463.709 179.662 473.804Z" fill="#FFCB8A"/>
<path d="M244.951 473.804C244.951 473.804 269.17 465.195 280.43 477.308C291.73 489.422 299.79 520.963 277.538 534.676C255.286 548.389 193.082 570.712 178.852 571.017C164.622 571.321 155.482 540.542 169.751 528.619C175.574 521.915 196.669 509.878 207.891 502.03C219.113 494.221 244.951 473.804 244.951 473.804Z" fill="#F0A65E"/>
<path d="M233.845 544.923C256.096 531.21 281.742 498.526 262.884 476.394C256.791 469.233 244.951 473.804 244.951 473.804C244.951 473.804 269.17 465.195 280.431 477.308C291.73 489.422 299.79 520.963 277.538 534.676C255.287 548.389 193.082 570.712 178.852 571.017C177.541 571.055 176.345 570.826 175.227 570.369C197.054 562.712 221.543 552.504 233.845 544.923Z" fill="#E48031"/>
<path d="M233.845 544.923C256.096 531.21 281.742 498.526 262.884 476.394C256.791 469.233 244.951 473.804 244.951 473.804C244.951 473.804 264.002 466.833 275.301 478.946C286.601 491.06 287.449 520.163 265.198 533.876C242.946 547.59 193.082 570.712 178.852 571.017C177.541 571.055 176.345 570.826 175.227 570.369C197.054 562.712 221.543 552.504 233.845 544.923Z" fill="#F29444"/>
<path d="M168.825 540.2C168.825 540.2 172.142 556.579 179.238 563.779C184.482 565.379 202.029 558.065 206.773 551.475C211.516 544.885 211.092 526.181 196.861 525.991C182.67 525.762 168.825 540.2 168.825 540.2Z" fill="#FFCB8A"/>
<path d="M267.203 529.724C278.04 524.01 291.499 527.591 298.016 537.914C302.489 545.037 305.767 554.37 304.186 565.646C300.33 593.568 281.395 592.272 271.908 594.825C262.46 597.377 193.159 628.842 172.527 627.546C151.857 626.289 143.257 602.9 156.6 588.006C169.944 573.15 206.927 559.094 215.989 555.703C222.044 553.456 249.618 539.057 267.203 529.724Z" fill="#F0A65E"/>
<path d="M155.713 593.034C155.713 593.034 153.785 611.319 160.881 618.519C174.224 621.071 187.567 614.481 192.272 607.891C197.016 601.301 196.592 582.597 182.361 582.407C168.17 582.216 155.713 593.034 155.713 593.034Z" fill="#FFCB8A"/>
<path d="M243.023 586.14C284.441 557.456 253.898 536.734 253.898 536.734C259.914 533.572 265.699 530.524 270.442 528.01C278.502 523.744 288.568 525.687 294.314 532.734C300.407 540.238 306.192 551.361 304.225 565.608C300.368 593.53 281.433 592.235 271.946 594.787C262.498 597.339 193.198 628.804 172.566 627.509C166.01 627.09 160.688 624.461 156.87 620.576C167.051 632.88 230.721 597.415 243.023 586.14Z" fill="#E48031"/>
<path d="M243.023 586.14C284.441 557.456 253.898 536.733 253.898 536.733C259.182 533.952 264.311 531.248 268.707 528.924C278.309 523.858 290.149 529 292.925 539.438C294.468 545.228 295.008 552.542 293.35 561.494C291.306 572.617 278.387 583.397 266.586 589.225C257.793 593.53 193.198 628.842 172.566 627.547C166.01 627.128 160.688 624.499 156.87 620.614C167.051 632.88 230.721 597.415 243.023 586.14Z" fill="#F29444"/>
<path d="M295.162 582.407C295.162 582.407 319.265 593.035 316.257 619.395C313.249 645.755 293.89 643.622 274.53 648.307C255.171 652.993 244.836 662.326 223.779 659.773C202.685 657.221 200.602 644.879 203.572 632.994C206.541 621.109 235.387 614.786 241.403 606.024C247.419 597.301 295.162 582.407 295.162 582.407Z" fill="#F0A65E"/>
<path d="M286.254 627.166C294.005 613.148 274.646 592.73 265.583 606.748C261.727 613.11 268.167 625.871 262.999 634.784C261.843 622.404 253.705 605.11 240.285 607.32C240.671 606.9 241.056 606.481 241.365 606.024C247.381 597.263 295.162 582.407 295.162 582.407C295.162 582.407 319.265 593.035 316.257 619.395C313.249 645.755 293.89 643.622 274.53 648.307C261.804 651.393 252.973 656.459 242.445 658.859C260.994 654.136 277.847 643.089 286.254 627.166Z" fill="#F29444"/>
<path d="M208.701 625.871C208.701 625.871 205.269 631.089 212.557 640.232C219.884 649.374 216.645 652.345 222.237 653.831C227.829 655.316 240.516 651.507 240.941 636.613C241.403 621.757 224.859 615.776 208.701 625.871Z" fill="#FFCB8A"/>
<path d="M220.424 604.843C220.424 604.843 215.334 582.521 207.891 572.959C215.604 576.464 226.633 598.786 227.096 602.291C227.52 605.795 220.424 604.843 220.424 604.843Z" fill="#F29444"/>
<path d="M236.351 544.885C236.351 544.885 231.261 522.563 223.818 513.001C231.531 516.506 243.332 536.466 243.756 539.971C244.18 543.476 236.351 544.885 236.351 544.885Z" fill="#F29444"/>
<path d="M576.991 150.434C575.911 151.501 586.632 103.275 616.519 95.6565C646.406 88.0379 643.514 118.512 625.196 126.131C606.878 133.749 588.56 139.006 576.991 150.434Z" fill="#FFEDD8"/>
<path d="M576.99 150.434C575.911 151.5 584.472 113.75 614.359 106.132C644.247 98.5133 643.514 118.512 625.196 126.131C606.878 133.749 588.56 139.006 576.99 150.434Z" fill="#FFF9F5"/>
<path d="M279.389 210.164C279.389 210.164 220.887 197.822 196.476 153.253C172.065 108.684 221.003 99.3896 232.186 122.436C243.409 145.482 241.48 191.651 279.389 210.164Z" fill="#FFEDD8"/>
<path d="M279.389 210.164C279.389 210.164 236.968 203.421 212.557 158.853C188.146 114.284 221.041 99.3897 232.225 122.474C243.409 145.482 241.481 191.651 279.389 210.164Z" fill="#FFF9F5"/>
<path d="M148.617 311.415C148.617 311.415 116.108 329.394 86.1431 318.424C56.1786 307.491 75.2294 283.264 90.0381 289.511C104.885 295.758 123.165 318.119 148.617 311.415Z" fill="#FFEDD8"/>
<path d="M148.617 311.414C148.617 311.414 125.98 325.471 95.977 314.538C66.0125 303.605 75.1908 283.302 90.0381 289.549C104.885 295.758 123.165 318.119 148.617 311.414Z" fill="#FFF9F5"/>
<path d="M446.527 177.556C446.527 177.556 473.869 139.463 470.939 114.703C468.008 89.9425 483.434 79.886 501.289 94.4375C519.144 108.989 501.674 152.339 446.527 177.556Z" fill="#FFEDD8"/>
<path d="M446.527 177.556C446.527 177.556 485.4 144.225 482.469 119.464C479.538 94.7039 483.434 79.8858 501.289 94.4372C519.144 108.989 501.674 152.338 446.527 177.556Z" fill="#FFF9F5"/>
<path d="M436.231 162.547C436.231 170.928 429.366 177.708 420.882 177.708C412.398 177.708 405.533 170.928 405.533 162.547C405.533 154.167 412.398 147.386 420.882 147.386C429.366 147.386 436.231 154.205 436.231 162.547Z" fill="#FFEDD8"/>
<path d="M435.112 163.881C435.112 170.661 429.52 176.185 422.656 176.185C415.791 176.185 410.2 170.661 410.2 163.881C410.2 157.1 415.791 151.577 422.656 151.577C429.52 151.577 435.112 157.1 435.112 163.881Z" fill="#FFF9F5"/>
<path d="M344.756 137.863C350.592 137.863 355.323 133.19 355.323 127.426C355.323 121.662 350.592 116.989 344.756 116.989C338.92 116.989 334.189 121.662 334.189 127.426C334.189 133.19 338.92 137.863 344.756 137.863Z" fill="#FFEDD8"/>
<path d="M354.59 128.34C354.59 133.026 350.733 136.797 346.028 136.797C341.285 136.797 337.467 132.988 337.467 128.34C337.467 123.655 341.323 119.884 346.028 119.884C350.733 119.884 354.59 123.655 354.59 128.34Z" fill="#FFF9F5"/>
<path d="M279.389 104.875C285.225 104.875 289.956 100.202 289.956 94.4374C289.956 88.673 285.225 84 279.389 84C273.553 84 268.823 88.673 268.823 94.4374C268.823 100.202 273.553 104.875 279.389 104.875Z" fill="#FFEDD8"/>
<path d="M289.184 95.3516C289.184 100.037 285.328 103.808 280.623 103.808C275.88 103.808 272.062 99.999 272.062 95.3516C272.062 90.6662 275.918 86.895 280.623 86.895C285.366 86.895 289.184 90.6662 289.184 95.3516Z" fill="#FFF9F5"/>
<path d="M620.8 221.972C626.636 221.972 631.366 217.299 631.366 211.535C631.366 205.77 626.636 201.097 620.8 201.097C614.964 201.097 610.233 205.77 610.233 211.535C610.233 217.299 614.964 221.972 620.8 221.972Z" fill="#FFEDD8"/>
<path d="M622.034 220.906C626.762 220.906 630.595 217.12 630.595 212.449C630.595 207.779 626.762 203.993 622.034 203.993C617.305 203.993 613.472 207.779 613.472 212.449C613.472 217.12 617.305 220.906 622.034 220.906Z" fill="#FFF9F5"/>
<path d="M286.678 154.586C286.678 158.548 283.4 161.786 279.389 161.786C275.378 161.786 272.1 158.548 272.1 154.586C272.1 150.624 275.378 147.386 279.389 147.386C283.4 147.386 286.678 150.624 286.678 154.586Z" fill="#FFEDD8"/>
<path d="M286.138 155.234C286.138 158.472 283.477 161.062 280.237 161.062C276.96 161.062 274.337 158.434 274.337 155.234C274.337 151.996 276.998 149.406 280.237 149.406C283.515 149.406 286.138 151.996 286.138 155.234Z" fill="#FFF9F5"/>
<path d="M344.756 227.001C348.781 227.001 352.044 223.777 352.044 219.801C352.044 215.825 348.781 212.601 344.756 212.601C340.73 212.601 337.467 215.825 337.467 219.801C337.467 223.777 340.73 227.001 344.756 227.001Z" fill="#FFEDD8"/>
<path d="M351.543 220.411C351.543 223.648 348.882 226.239 345.643 226.239C342.365 226.239 339.742 223.61 339.742 220.411C339.742 217.173 342.403 214.582 345.643 214.582C348.882 214.582 351.543 217.173 351.543 220.411Z" fill="#FFF9F5"/>
<path d="M159.03 217.63C159.03 220.982 156.253 223.725 152.86 223.725C149.466 223.725 146.689 220.982 146.689 217.63C146.689 214.277 149.427 211.535 152.86 211.535C156.292 211.535 159.03 214.277 159.03 217.63Z" fill="#FFEDD8"/>
<path d="M158.606 218.163C158.606 220.905 156.369 223.115 153.592 223.115C150.816 223.115 148.579 220.905 148.579 218.163C148.579 215.42 150.816 213.211 153.592 213.211C156.369 213.211 158.606 215.42 158.606 218.163Z" fill="#FFF9F5"/>
<path d="M174.34 184.641C180.857 184.641 186.141 179.423 186.141 172.985C186.141 166.547 180.857 161.329 174.34 161.329C167.823 161.329 162.539 166.547 162.539 172.985C162.539 179.423 167.823 184.641 174.34 184.641Z" fill="#FFEDD8"/>
<path d="M185.292 174.013C185.292 179.232 181.011 183.499 175.69 183.499C170.406 183.499 166.087 179.27 166.087 174.013C166.087 168.795 170.368 164.528 175.69 164.528C181.011 164.528 185.292 168.757 185.292 174.013Z" fill="#FFF9F5"/>
</g>
<defs>
<clipPath id="clip0">
<rect width="727" height="856" fill="white" transform="translate(0 62)"/>
</clipPath>
</defs>
</svg>
