<svg width="949" height="930" viewBox="0 0 949 930" fill="none" xmlns="http://www.w3.org/2000/svg">
<path d="M51.0027 883.25H620.968C941.435 883.25 1040.44 482.499 857.454 474.771C674.465 467.043 662.965 404.115 620.968 337.139C578.97 270.164 579.97 201.348 482.975 177.796C385.981 154.244 377 34.5985 243 34.5985C109.001 34.5985 52.0002 -1.16293 51.0001 0.0291541L51.0027 883.25Z" fill="#14434D"/>
<path d="M742.289 590.561C740.888 594.558 736.523 596.674 732.524 595.289C728.524 593.904 726.411 589.523 727.796 585.524C729.181 581.524 733.562 579.411 737.561 580.796C741.558 582.197 743.674 586.562 742.289 590.561Z" fill="white"/>
<path d="M639.289 644.561C637.888 648.558 633.523 650.674 629.524 649.289C625.524 647.904 623.411 643.523 624.796 639.524C626.181 635.524 630.562 633.411 634.561 634.796C638.558 636.197 640.674 640.562 639.289 644.561Z" fill="url(#paint0_linear)"/>
<path d="M479.289 298.561C477.888 302.558 473.523 304.674 469.524 303.289C465.524 301.904 463.411 297.523 464.796 293.524C466.181 289.524 470.562 287.411 474.561 288.796C478.558 290.197 480.674 294.562 479.289 298.561Z" fill="white"/>
<path d="M579.289 731.561C577.888 735.558 573.523 737.674 569.524 736.289C565.524 734.904 563.411 730.523 564.796 726.524C566.181 722.524 570.562 720.411 574.561 721.796C578.558 723.197 580.674 727.562 579.289 731.561Z" fill="white"/>
<path d="M788.578 713.111C785.792 721.106 777.046 725.335 769.048 722.566C761.052 719.78 756.823 711.034 759.593 703.035C762.378 695.04 771.108 690.808 779.12 693.596C787.119 696.366 791.351 705.096 788.578 713.111Z" fill="white"/>
<path d="M810.578 581.111C807.792 589.106 799.046 593.335 791.048 590.566C783.052 587.78 778.823 579.034 781.593 571.035C784.378 563.04 793.108 558.808 801.12 561.596C809.119 564.366 813.351 573.096 810.578 581.111Z" fill="url(#paint1_linear)"/>
<path d="M781.906 444.126C780.21 449.013 774.864 451.602 769.976 449.906C765.089 448.21 762.499 442.864 764.196 437.976C765.892 433.089 771.238 430.499 776.126 432.195C781.026 433.911 783.603 439.238 781.906 444.126Z" fill="url(#paint2_linear)"/>
<path d="M630.906 282.126C629.21 287.013 623.864 289.602 618.976 287.906C614.089 286.21 611.499 280.864 613.196 275.976C614.892 271.089 620.238 268.499 625.126 270.195C630.026 271.911 632.603 277.238 630.906 282.126Z" fill="url(#paint3_linear)"/>
<path d="M352.906 43.1256C351.21 48.0131 345.864 50.6025 340.976 48.9063C336.089 47.2101 333.499 41.8636 335.196 36.9761C336.892 32.0886 342.238 29.4992 347.126 31.1954C352.026 32.9105 354.603 38.2381 352.906 43.1256Z" fill="url(#paint4_linear)"/>
<path d="M336.855 471.595L336.656 471.44C336.656 471.44 336.461 471.269 336.458 471.285L254.621 404.902C253.735 418.006 271.304 446.611 181.674 514.583C144.057 543.116 92.6121 572.962 73.7768 618.702C65.2743 639.363 66.5334 661.381 73.7876 682.22C91.4931 733.122 148.234 774.376 203.387 767.897C250.374 762.386 276.11 717.471 296.295 679.712C304.804 663.792 312.809 647.605 321.047 631.564C360.916 553.912 388.652 543.94 405.036 541.916C407.572 540.085 410.006 538.512 412.361 537.169C396.172 523.112 336.836 471.607 336.855 471.595Z" fill="#007756"/>
<path d="M352.71 365.901C352.71 365.901 339.318 351.148 331.309 357.97C323.285 364.789 293.705 376.978 293.55 390.279C293.395 403.581 321.605 440.771 331.55 444.214C341.492 447.673 350.622 453.92 358.88 448.378C367.137 442.837 396.552 422.726 391.741 418.307C386.927 413.903 379.263 384.814 371.413 378.319C363.559 371.84 352.71 365.901 352.71 365.901Z" fill="url(#paint5_radial)"/>
<path d="M336.522 442.418C338.819 435.783 359.715 415.06 367.056 414.121C374.396 413.183 372.24 415.812 383.248 422.587C385.246 423.812 387.091 424.662 388.817 425.208C390.533 423.375 391.713 421.761 392.107 420.464C385.43 417.404 377.132 413.278 374.359 410.535C369.467 405.705 367.037 402.162 362.789 393.675C358.543 385.172 343.094 371.265 355.196 372.079C359.208 372.351 363.6 373.094 367.359 373.643C360.218 369.309 352.707 365.917 352.707 365.917C352.707 365.917 345.358 357.834 338.302 356.403C338.254 356.639 338.225 356.863 338.221 357.125C338.197 358.858 346.112 375.551 351.65 383.824C357.176 392.078 360.461 395.45 360.896 402.442C361.313 409.447 328.517 435.072 328.517 435.072C328.517 435.072 315.015 423.773 302.969 412.41C312.069 426.817 325.359 442.073 331.562 444.233C333.524 444.91 335.461 445.713 337.353 446.49C336.502 445.186 336.046 443.798 336.522 442.418Z" fill="url(#paint6_radial)"/>
<path d="M293.58 390.941C314.556 388.832 335.541 386.92 356.627 386.21C355.56 384.436 354.323 382.693 352.874 380.94C352.177 380.093 351.766 379.206 351.567 378.329C351.558 378.295 351.529 378.273 351.517 378.254C340.416 378.971 311.617 380.921 295.833 383.789C294.419 385.913 293.568 388.085 293.547 390.295C293.556 390.494 293.577 390.711 293.58 390.941Z" fill="url(#paint7_radial)"/>
<path d="M361.226 406.232C361.625 400.95 361.02 396.17 359.276 391.585C358.656 392.542 357.639 393.271 356.221 393.311C335.863 393.988 315.577 395.844 295.336 397.89C297.352 403.071 300.881 409.362 305.06 415.605C318.424 413.592 345.606 409.428 361.226 406.232Z" fill="url(#paint8_radial)"/>
<path d="M346.296 262.382C346.296 262.382 393.985 189.678 410.195 217.301C426.408 244.909 391.677 223.222 346.296 262.382Z" fill="url(#paint9_linear)"/>
<path d="M381.722 333.622C375.1 329.967 367.237 331.866 363.372 338.068C358.342 346.133 362.739 345.877 366.83 352.233C371.557 359.571 370.71 359.383 371.01 368.66C371.266 376.535 370.508 380.842 378.426 385.465C395.304 395.316 410.177 366.533 407.613 352.483C405.277 339.743 392.675 337.434 381.722 333.622Z" fill="url(#paint10_linear)"/>
<path opacity="0.7" d="M398.556 357.764C396.238 345.011 383.636 342.702 372.668 338.887C369.867 337.335 366.842 336.804 364.001 337.146C363.777 337.445 363.568 337.747 363.371 338.068C358.341 346.133 362.739 345.877 366.829 352.233C371.557 359.571 370.71 359.383 371.01 368.66C371.266 376.535 370.507 380.842 378.426 385.465C381.696 387.374 384.884 387.824 387.893 387.22C395.443 379.666 400.078 366.109 398.556 357.764Z" fill="#005C41"/>
<path opacity="0.4" d="M731.509 295.917C729.776 285.053 728.26 274.168 726.221 263.357C726.193 263.171 726.169 262.97 726.141 262.784C705.289 272.446 679.996 290.834 651.896 324.758C574.122 418.618 507.282 460.331 448.488 463.333C389.694 466.336 367.427 478.45 337.825 516.874C308.207 555.294 281.749 558.719 296.738 526.041C311.712 493.359 356.444 411.461 348.407 367.144C340.367 322.842 354.711 297.15 325.034 299.464C295.358 301.777 312.519 226.523 367.39 193.289C422.265 160.038 459.083 147.578 488.982 170.614C518.865 193.647 520.759 214.153 543.368 216.606C559.143 218.312 551.014 202.921 553.782 195.413C560.829 188.561 578.206 203.154 584.556 208.23C595.326 216.826 605.093 229.154 617.164 235.865C634.361 245.437 657.846 243.491 673.483 231.886C691.665 218.402 686.804 196.114 674.584 180.516C674.282 180.144 673.955 179.897 673.605 179.76C664.744 169.518 646.397 164.076 624.277 170.775C579.898 184.211 575.21 171.748 551.127 157.96C532.026 147.019 532.616 161.094 530.417 168.947C530.112 168.753 529.8 168.592 529.419 168.449C515.321 163.081 511.229 146.787 506.687 133.927C501.625 119.584 495.184 105.897 482.243 97.0901C465.151 85.4577 441.592 82.2714 421.471 81.4551C400.49 80.5956 379.165 83.4546 359.208 89.92C322.581 101.763 287.94 123.061 260.908 150.427C236.167 175.471 218.141 208.485 222.247 244.363C216.113 276.312 246.009 291.279 246.827 301.153C248.223 317.885 215.813 322.842 210.359 286.658C204.904 250.473 214.006 172.421 192.657 197.48C171.308 222.539 157.788 266.569 189.145 300.937C220.502 335.305 253.258 344.899 264.17 375.762C275.083 406.624 234.352 471.868 157.634 526.387C80.9156 580.906 78.3857 608.912 81.2552 636.979C84.1246 665.046 76.0075 667.631 88.946 708.236C101.888 748.825 164.543 781.454 198.624 771.654C232.705 761.853 249.857 769.628 273.313 707.408C296.768 645.189 365.857 514.013 438.646 512.275C511.438 510.52 531.67 530.202 583.539 479.664C608.862 454.984 642.606 397.508 679.715 350.045C656.72 393.17 647.258 445.337 618.028 484.673C598.497 510.953 571.686 522.917 539.373 522.137C515.614 521.551 492.188 516.899 468.445 516.234C454.86 515.858 424.838 511.869 413.428 519.937C430.771 516.418 450.847 520.767 468.545 521.322C492.776 522.086 516.707 526.676 540.938 527.276C569.217 527.975 594.004 518.635 613.57 497.922C665.195 443.251 660.927 353.09 722.27 305.49C723.281 304.711 723.394 303.668 723.018 302.772C725.874 300.333 728.679 298.065 731.509 295.917Z" fill="url(#paint11_linear)"/>
<path d="M469.905 557.398C489.786 558.51 514.173 550.335 535.188 550.053C548.409 549.881 566.886 548.691 579.023 555.153C587.726 559.788 593.829 566.732 586.699 575.126C578.712 584.511 565.597 575.915 557.273 573.129C528.851 563.594 499.83 559.037 469.905 557.398Z" fill="url(#paint12_linear)"/>
<path d="M535.188 550.053C529.284 550.135 523.123 550.838 516.864 551.782C532.498 554.346 547.924 558.015 563.153 563.136C570.57 565.624 581.81 572.708 589.827 567.544C589.648 562.523 584.959 558.309 579.039 555.157C566.886 548.691 548.408 549.881 535.188 550.053Z" fill="#F5EDF2"/>
<path d="M209.911 170.377C209.911 170.377 176.507 114.241 192.134 100.42C207.773 86.6177 220.614 122.365 209.911 170.377Z" fill="url(#paint13_linear)"/>
<path d="M194.063 98.991C192.098 114.91 206.139 142.881 212.629 154.791C217.451 116.853 207.072 90.723 194.063 98.991Z" fill="#F5EDF2"/>
<path d="M198.887 340.402C198.887 340.402 108.452 289.085 113.845 330.669C119.241 372.237 198.887 340.402 198.887 340.402Z" fill="#F5EDF2"/>
<path d="M113.681 325.896C113.586 327.337 113.629 328.903 113.845 330.669C117.774 360.952 161.103 352.288 184.34 345.34C166.927 336.348 128.368 318.247 113.681 325.896Z" fill="url(#paint14_linear)"/>
<path opacity="0.7" d="M440.368 507.425C451.211 507.164 460.875 507.385 469.668 507.774C437.119 498.698 404.767 492.286 394.095 500.355C374.491 515.19 304.142 618.854 272.436 652.932C240.727 687.026 211.607 729.221 180.741 740.149C149.878 751.061 129.165 727.608 134.969 695.347C140.788 663.088 114.466 655.734 125.882 607.358C137.298 558.982 155.982 572.708 212.194 520.083C248.29 486.272 260.172 434.383 264.054 401.567C252.892 435.35 215.915 481.347 159.352 521.553C82.6338 576.072 80.1071 604.062 82.9734 632.145C85.8428 660.212 77.7257 662.798 90.6642 703.402C103.606 743.991 166.261 776.621 200.342 766.82C234.439 757.023 251.575 764.794 275.034 702.559C298.474 640.336 367.579 509.164 440.368 507.425Z" fill="#005C41"/>
<path d="M507.975 524.692C500.35 522.26 492.102 519.67 483.617 517.113C478.584 516.699 473.539 516.348 468.483 516.209C454.899 515.832 424.876 511.844 413.466 519.911C430.809 516.392 450.886 520.742 468.583 521.297C481.761 521.738 494.863 523.28 507.975 524.692Z" fill="url(#paint15_linear)"/>
<path d="M583.779 396.387C534.15 440.409 489.37 461.242 448.488 463.334C389.694 466.336 367.427 478.45 337.825 516.874C308.207 555.294 281.749 558.72 296.739 526.041C311.713 493.359 356.444 411.461 348.407 367.144C340.367 322.842 354.711 297.15 325.035 299.464C295.358 301.777 312.519 226.523 367.391 193.289C422.265 160.038 459.083 147.578 488.982 170.614C518.865 193.647 520.759 214.153 543.368 216.606C559.143 218.312 551.014 202.921 553.782 195.413C560.83 188.561 578.206 203.154 584.557 208.23C595.326 216.826 605.093 229.154 617.164 235.865C634.361 245.437 657.846 243.491 673.483 231.886C691.665 218.402 686.804 196.114 674.584 180.516C674.282 180.144 673.955 179.897 673.606 179.76C667.773 173.018 657.809 168.374 645.36 167.9C651.923 179.611 658.039 194.578 638.405 202.765C598.295 219.494 577.718 185.261 554.206 169.867C530.679 154.47 548.959 200.52 533.355 198.7C517.75 196.881 502.347 137.377 452.226 136.184C402.105 134.992 387.477 140.734 322.033 199.179C256.589 257.624 275.689 322.027 310.267 316.001C344.843 309.991 322.999 331.259 331.326 354.005C339.654 376.75 312.423 439.467 294.635 480.204C276.863 520.945 252.014 524.926 223.659 549.352C195.304 573.777 177.881 587.562 168.284 620.334C158.69 653.09 179.691 654.987 170.73 680.737C161.77 706.488 181.643 711.6 203.984 694.105C226.309 676.608 265.731 630.762 287.636 604.093C287.636 604.093 326.774 538.297 358.479 504.219C390.188 470.126 453.671 479.587 509.46 459.297C556.72 442.083 573.141 416.746 583.779 396.387ZM665.694 217.646C673.594 211.524 677.766 204.777 678.937 198.274C681.001 204.268 681.382 210.643 678.824 217.192C674.708 227.706 662.96 233.393 652.669 235.701C642.122 238.056 628.417 236.901 619.071 231.07C614.165 228.009 609.903 223.553 605.617 219.699C600.648 215.248 587.349 202.548 574.525 194.781C600.985 205.903 636.698 240.138 665.694 217.646Z" fill="url(#paint16_linear)"/>
<path d="M583.779 396.387C534.15 440.409 489.37 461.242 448.488 463.334C389.694 466.336 367.427 478.45 337.825 516.874C308.207 555.294 281.749 558.72 296.739 526.041C311.713 493.359 356.444 411.461 348.407 367.144C340.367 322.842 354.711 297.15 325.035 299.464C295.358 301.777 312.519 226.523 367.391 193.289C422.265 160.038 459.083 147.578 488.982 170.614C518.865 193.647 520.759 214.153 543.368 216.606C559.143 218.312 551.014 202.921 553.782 195.413C560.83 188.561 578.206 203.154 584.557 208.23C595.326 216.826 605.093 229.154 617.164 235.865C634.361 245.437 657.846 243.491 673.483 231.886C691.665 218.402 686.804 196.114 674.584 180.516C674.282 180.144 673.955 179.897 673.606 179.76C667.773 173.018 657.809 168.374 645.36 167.9C651.923 179.611 658.039 194.578 638.405 202.765C598.295 219.494 577.718 185.261 554.206 169.867C530.679 154.47 548.959 200.52 533.355 198.7C517.75 196.881 502.347 137.377 452.226 136.184C402.105 134.992 387.477 140.734 322.033 199.179C256.589 257.624 275.689 322.027 310.267 316.001C344.843 309.991 322.999 331.259 331.326 354.005C339.654 376.75 312.423 439.467 294.635 480.204C276.863 520.945 252.014 524.926 223.659 549.352C195.304 573.777 177.881 587.562 168.284 620.334C158.69 653.09 179.691 654.987 170.73 680.737C161.77 706.488 181.643 711.6 203.984 694.105C226.309 676.608 265.731 630.762 287.636 604.093C287.636 604.093 326.774 538.297 358.479 504.219C390.188 470.126 453.671 479.587 509.46 459.297C556.72 442.083 573.141 416.746 583.779 396.387ZM665.694 217.646C673.594 211.524 677.766 204.777 678.937 198.274C681.001 204.268 681.382 210.643 678.824 217.192C674.708 227.706 662.96 233.393 652.669 235.701C642.122 238.056 628.417 236.901 619.071 231.07C614.165 228.009 609.903 223.553 605.617 219.699C600.648 215.248 587.349 202.548 574.525 194.781C600.985 205.903 636.698 240.138 665.694 217.646Z" fill="url(#paint17_linear)"/>
<path d="M551.115 157.941C532.014 147 532.604 161.075 530.405 168.928C530.099 168.735 529.788 168.573 529.407 168.43C523.396 166.129 519.196 161.85 516.01 156.694C514.038 157.36 511.846 156.932 510.228 154.636C506.771 149.688 502.78 145.27 498.58 141.073C498.965 142.168 499.352 143.247 499.737 144.342C467.385 114.478 406.1 81.077 308.627 149.394C270.106 176.4 247.394 198.476 234.844 216.693C231.096 223.772 227.226 230.81 223.525 237.899C223.063 238.805 222.475 239.441 221.84 239.902C221.934 241.381 222.043 242.863 222.216 244.357C216.082 276.306 245.978 291.273 246.796 301.147C248.192 317.879 215.782 322.836 210.327 286.651C204.873 250.467 213.972 172.43 192.626 197.473C172.333 221.287 160.089 263.23 181.584 290.105C188.147 279.333 177.345 261.432 178.416 248.464C180.497 223.32 195.825 220.278 200.349 246.089C204.136 267.767 203.853 290.357 212.715 310.948C227.361 344.912 244.915 322.15 261.112 320.564C277.292 318.974 253.932 292.804 242.124 261.021C230.316 229.239 240.784 226.868 344.94 148.804C449.096 70.739 507.328 152.359 521.146 168.001C534.949 183.641 525.853 192.506 535.141 169.265C539.101 159.359 547.778 158.544 557.563 161.889C555.58 160.585 553.437 159.265 551.115 157.941Z" fill="#F5EDF2"/>
<path d="M580.208 174.598C585.688 178.628 590.613 182.809 594.242 186.185C607.979 198.908 635.909 174.15 632.756 168.755C630.003 169.23 627.18 169.888 624.262 170.772C602.164 177.443 589.908 177.713 580.208 174.598Z" fill="#F5EDF2"/>
<path d="M290.93 316.984C290.93 316.984 271.019 316.587 270.465 327.085C269.908 337.599 258.443 367.45 267.994 376.717C277.565 385.972 323.969 391.019 333.299 386.171C342.629 381.322 353.453 378.974 355.097 369.173C356.74 359.371 362.333 324.18 355.826 324.648C349.319 325.117 322.902 310.708 312.793 311.954C302.707 313.173 290.93 316.984 290.93 316.984Z" fill="url(#paint18_radial)"/>
<path d="M335.402 381.3C332.172 375.069 331.446 345.649 335.824 339.665C340.187 333.679 340.616 337.062 353.101 333.722C355.356 333.114 357.25 332.35 358.834 331.49C358.686 328.984 358.313 327.022 357.651 325.839C350.845 328.591 342.143 331.796 338.231 331.921C331.362 332.152 327.118 331.488 318.032 328.743C308.93 325.996 288.21 327.649 297.127 319.421C300.075 316.69 303.634 314.017 306.623 311.654C298.563 313.874 290.93 316.984 290.93 316.984C290.93 316.984 280.018 316.772 274.125 320.923C274.267 321.116 274.411 321.293 274.587 321.476C275.832 322.696 293.402 328.407 303.201 330.066C312.999 331.725 317.706 331.646 323.09 336.149C328.474 340.651 324.547 382.1 324.547 382.1C324.547 382.1 307.06 384.147 290.535 385.092C307.267 388.387 327.485 389.206 333.299 386.171C335.133 385.214 337.045 384.355 338.904 383.519C337.405 383.231 336.089 382.604 335.402 381.3Z" fill="url(#paint19_radial)"/>
<path d="M268.498 377.147C281.377 360.457 294.411 343.896 308.376 328.081C306.366 327.641 304.229 327.339 301.963 327.191C300.864 327.115 299.941 326.814 299.167 326.345C299.135 326.339 299.104 326.332 299.072 326.326C291.973 334.89 273.6 357.158 264.843 370.584C265.419 373.079 266.419 375.184 267.994 376.717C268.161 376.866 268.331 376.999 268.498 377.147Z" fill="url(#paint20_radial)"/>
<path d="M326.091 338.495C322.523 334.574 318.641 331.721 314.117 329.852C314.385 330.956 314.199 332.197 313.263 333.254C299.773 348.509 287.194 364.523 274.758 380.647C279.906 382.757 286.902 384.487 294.318 385.761C302.033 374.649 317.67 352.039 326.091 338.495Z" fill="url(#paint21_radial)"/>
<path d="M609.034 390.077C609.034 390.077 623.8 401.288 618.146 409.276C612.477 417.26 603.597 445.684 591.26 446.922C578.942 448.147 542.14 425.023 538.132 416.076C534.124 407.13 527.586 399.178 532.036 391.061C536.502 382.947 552.746 354.032 557.23 358.123C561.711 362.229 589.32 366.958 595.984 373.721C602.645 380.5 609.034 390.077 609.034 390.077Z" fill="url(#paint22_radial)"/>
<path d="M539.406 411.333C545.357 408.669 562.882 387.591 563.162 380.71C563.426 373.827 561.173 376.043 553.98 366.385C552.677 364.645 551.752 362.981 551.097 361.438C552.662 359.706 554.058 358.48 555.223 357.994C558.611 363.929 563.102 371.301 565.889 373.654C570.773 377.793 574.244 379.76 582.475 383.003C590.706 386.246 604.874 399.434 603.117 388.287C602.537 384.594 601.498 380.579 600.672 377.132C605.273 383.394 609.031 390.093 609.031 390.093C609.031 390.093 617.116 396.242 619.025 402.681C618.816 402.737 618.608 402.793 618.359 402.808C616.751 402.974 600.628 396.999 592.514 392.533C584.413 388.086 581.022 385.316 574.494 385.484C567.965 385.653 546.874 418.177 546.874 418.177C546.874 418.177 558.442 429.788 569.964 440.013C555.859 432.741 540.623 421.665 538.129 416.092C537.339 414.325 536.442 412.601 535.571 410.916C536.83 411.581 538.159 411.9 539.406 411.333Z" fill="url(#paint23_radial)"/>
<path d="M590.645 446.961C590.887 427.331 590.945 407.712 589.888 388.097C591.619 388.941 593.334 389.944 595.09 391.153C595.924 391.732 596.796 392.04 597.609 392.156C597.64 392.162 597.669 392.184 597.684 392.187C597.915 402.533 598.468 429.409 597.095 444.268C595.235 445.76 593.287 446.71 591.244 446.919C591.058 446.946 590.847 446.936 590.645 446.961Z" fill="url(#paint24_radial)"/>
<path d="M570.938 385.469C575.807 384.668 580.282 384.838 584.67 386.088C583.833 386.739 583.25 387.752 583.313 389.06C584.344 407.997 584.271 426.957 584.038 445.9C579.049 444.462 572.954 441.685 566.813 438.324C567.606 425.759 569.26 400.216 570.938 385.469Z" fill="url(#paint25_radial)"/>
<path d="M455.946 515.52C441.206 514.614 422.044 513.844 413.448 519.924C421.196 518.346 429.493 518.356 437.882 518.876C443.853 517.496 449.898 516.311 455.946 515.52Z" fill="#F5EDF2"/>
<path d="M728.36 275.779C717.862 284.605 703.25 299.977 683.692 326.793C635.384 393.01 582.746 502.823 535.859 502.746C502.448 502.695 468.415 489.612 435.054 495.376C414.149 498.993 395.966 516.445 383.352 536.436C401.067 521.94 419.749 512.707 438.7 512.253C511.492 510.498 531.723 530.18 583.593 479.642C608.916 454.962 642.66 397.486 679.769 350.023C676.782 355.616 674.04 361.374 671.443 367.227C681.755 347.589 695.53 329.636 709.612 312.435C711.421 310.227 713.903 309.796 716.095 310.388C716.604 309.9 717.141 309.517 717.718 309.257C719.209 307.969 720.745 306.706 722.321 305.484C723.331 304.705 723.445 303.662 723.069 302.766C724.102 301.876 725.132 301.003 726.158 300.145C726.436 299.906 726.711 299.683 726.986 299.46C727.852 298.75 728.733 298.043 729.592 297.365C729.769 297.22 729.962 297.079 730.139 296.934C730.587 296.582 731.048 296.249 731.497 295.898C730.446 289.19 729.43 282.474 728.36 275.779Z" fill="#F5EDF2"/>
<path d="M90.2361 714.975C86.9475 711.783 126.425 771.774 187.046 773.915C247.668 776.055 289.775 688.738 290.61 686.317C291.442 683.911 202.294 823.433 90.2361 714.975Z" fill="url(#paint26_radial)"/>
<path opacity="0.7" d="M540.036 198.497C539.346 198.833 538.664 199.121 537.999 199.412C538.793 199.294 539.487 199.025 540.036 198.497Z" fill="#005C41"/>
<path d="M310.258 315.966C316.158 314.932 320.383 314.723 323.426 315.16C323.529 313.442 323.609 311.753 323.623 310.067C323.661 306.401 323.034 302.863 322.176 299.409C296.55 296.706 314.341 225.384 367.378 193.27C422.252 160.019 459.07 147.559 488.969 170.595C504.512 182.586 512.488 193.879 519.75 202.305C524.99 203.154 530.857 202.524 538.014 199.416C536.81 199.614 535.342 199.333 533.685 198.686C533.572 198.679 533.471 198.691 533.342 198.681C531.004 198.404 528.666 196.831 526.214 194.366C507.564 180.958 477.389 145.616 464.161 139.195C462.13 138.209 460.09 137.352 458.043 136.609C456.153 136.39 454.199 136.24 452.21 136.181C402.089 134.989 387.461 140.731 322.017 199.176C256.579 257.589 275.68 321.993 310.258 315.966Z" fill="url(#paint27_linear)"/>
<path opacity="0.7" d="M529.968 485.053C565.576 483.008 599.274 434.574 635.621 375.018C654.287 344.43 663.474 321.037 670.947 303.595C664.755 309.867 658.398 316.876 651.9 324.742C574.125 418.602 507.285 460.316 448.491 463.318C437.388 463.887 427.595 464.788 418.797 466.12C418.553 466.677 418.278 467.228 418.068 467.776" fill="#005C41"/>
<path d="M726.241 263.345C726.213 263.159 726.188 262.957 726.16 262.771C705.309 272.433 680.015 290.822 651.916 324.745C583.713 407.066 523.91 449.255 470.56 460.429C516.982 477.681 576.633 429.852 646.497 340.308C681.687 295.195 708.789 276.862 727.293 269.397C726.948 267.375 726.604 265.354 726.241 263.345Z" fill="url(#paint28_linear)"/>
<path d="M307.657 473.891C304.249 483.662 293.572 488.844 283.784 485.433C274.012 482.025 268.83 471.348 272.242 461.56C275.65 451.788 286.327 446.606 296.115 450.018C305.89 453.41 311.068 464.103 307.657 473.891Z" fill="url(#paint29_linear)"/>
<path d="M327.74 504.333C326.51 507.888 322.619 509.772 319.067 508.527C315.511 507.298 313.627 503.407 314.857 499.851C316.102 496.299 319.977 494.412 323.53 495.657C327.101 496.889 328.985 500.781 327.74 504.333Z" fill="url(#paint30_linear)"/>
<path d="M210.646 514.127C206.628 525.694 193.994 531.791 182.443 527.777C170.876 523.758 164.779 511.125 168.794 499.573C172.812 488.007 185.446 481.909 196.997 485.924C208.548 489.939 214.661 502.576 210.646 514.127Z" fill="url(#paint31_linear)"/>
<path d="M223.029 556.341C221.8 559.897 217.908 561.781 214.356 560.536C210.8 559.306 208.916 555.415 210.161 551.863C211.391 548.307 215.282 546.423 218.834 547.668C222.39 548.898 224.258 552.786 223.029 556.341Z" fill="url(#paint32_linear)"/>
<path d="M176.156 286.463C172.281 297.567 160.133 303.451 149.026 299.592C137.919 295.732 132.035 283.584 135.897 272.462C139.756 261.355 151.904 255.47 163.027 259.333C174.131 263.208 180.015 275.356 176.156 286.463Z" fill="url(#paint33_linear)"/>
<path d="M203.303 312.155C202.525 314.375 200.104 315.557 197.884 314.779C195.664 314.001 194.482 311.58 195.26 309.36C196.038 307.14 198.459 305.958 200.679 306.736C202.902 307.498 204.081 309.935 203.303 312.155Z" fill="url(#paint34_linear)"/>
<path d="M312.361 112.777C310.51 118.109 304.674 120.927 299.342 119.075C294.011 117.223 291.193 111.388 293.044 106.056C294.896 100.725 300.732 97.9064 306.063 99.7582C311.411 101.613 314.229 107.449 312.361 112.777Z" fill="url(#paint35_linear)"/>
<path d="M341.633 101.296C340.388 104.849 336.513 106.736 332.96 105.491C329.405 104.262 327.521 100.37 328.766 96.8178C329.995 93.2624 333.887 91.3783 337.439 92.6234C340.979 93.8495 342.863 97.741 341.633 101.296Z" fill="url(#paint36_linear)"/>
<path d="M486.005 459.231C484.309 464.119 478.962 466.708 474.059 465.009C469.172 463.313 466.582 457.966 468.279 453.079C469.975 448.191 475.321 445.602 480.209 447.298C485.128 449.001 487.701 454.344 486.005 459.231Z" fill="url(#paint37_linear)"/>
<path d="M511.429 453.628C510.028 457.625 505.663 459.741 501.664 458.356C497.664 456.971 495.552 452.59 496.937 448.591C498.321 444.591 502.702 442.478 506.702 443.863C510.698 445.264 512.814 449.629 511.429 453.628Z" fill="url(#paint38_linear)"/>
<path d="M546.847 216.917C543.906 225.357 534.684 229.834 526.228 226.889C517.788 223.948 513.312 214.726 516.256 206.27C519.197 197.831 528.42 193.354 536.859 196.295C545.315 199.24 549.791 208.462 546.847 216.917Z" fill="url(#paint39_linear)"/>
<path d="M569.736 218.557C568.196 223.001 563.323 225.358 558.883 223.802C554.439 222.261 552.078 217.404 553.638 212.948C555.194 208.508 560.036 206.144 564.492 207.703C568.932 209.26 571.277 214.114 569.736 218.557Z" fill="url(#paint40_linear)"/>
<path d="M705.505 376.446C702.513 385.056 693.111 389.611 684.504 386.603C675.894 383.611 671.339 374.208 674.347 365.602C677.339 356.992 686.741 352.437 695.348 355.445C703.942 358.434 708.494 367.852 705.505 376.446Z" fill="url(#paint41_linear)"/>
<path d="M688.58 426.837C686.884 431.724 681.537 434.314 676.65 432.618C671.762 430.921 669.173 425.575 670.869 420.688C672.565 415.8 677.912 413.211 682.799 414.907C687.687 416.603 690.276 421.949 688.58 426.837Z" fill="url(#paint42_linear)"/>
<path d="M340.064 551.93C338.819 555.483 334.943 557.37 331.375 556.122C327.82 554.892 325.936 551.001 327.181 547.449C328.426 543.896 332.302 542.009 335.854 543.254C339.425 544.487 341.293 548.375 340.064 551.93Z" fill="url(#paint43_linear)"/>
<path d="M431.701 428.607C429.849 433.938 424.014 436.756 418.682 434.905C413.35 433.053 410.532 427.217 412.384 421.886C414.236 416.554 420.072 413.736 425.403 415.588C430.735 417.44 433.553 423.275 431.701 428.607Z" fill="url(#paint44_linear)"/>
<path d="M445.123 576.742C443.426 581.63 438.08 584.219 433.193 582.523C428.305 580.827 425.716 575.48 427.412 570.593C429.108 565.705 434.454 563.116 439.342 564.812C444.242 566.527 446.819 571.855 445.123 576.742Z" fill="url(#paint45_linear)"/>
<path d="M431.829 604.615C430.117 609.499 424.786 612.092 419.899 610.396C415.011 608.7 412.422 603.353 414.118 598.466C415.814 593.578 421.161 590.989 426.048 592.685C430.936 594.381 433.525 599.728 431.829 604.615Z" fill="white"/>
<path d="M485.024 596.952C482.239 604.948 473.493 609.177 465.494 606.407C457.499 603.621 453.27 594.876 456.04 586.877C458.825 578.881 467.555 574.649 475.566 577.438C483.565 580.208 487.797 588.937 485.024 596.952Z" fill="url(#paint46_linear)"/>
<path opacity="0.5" d="M277.57 384.005L275.141 381.102L274.776 380.798C275.074 385.155 276.031 422.412 246.11 453.67C219.328 481.662 56.1906 549.014 39.4396 659.692C41.0739 674.52 46.0523 690.65 54.9692 708.546C62.2045 670.113 83.9306 601.705 148.708 564.182C242.137 510.066 322.111 494.566 324.413 429.188C324.515 426.339 324.5 423.663 324.425 421.122L278.349 383.72C277.838 383.896 277.57 384.005 277.57 384.005Z" fill="url(#paint47_radial)"/>
<path d="M256.1 365.663L353.952 445.1L353.956 445.084L354.176 445.293L354.415 445.489L449.63 528.064C434.586 531.573 397.469 516.553 338.274 633.548C288.44 732.041 257.33 808.878 163.292 789.81C144.83 786.067 123.939 778.617 100.005 766.925L60.3023 814.239L51.3043 806.692L50.8419 806.303L41.8439 798.755L81.5502 751.425C-13.968 620.196 65.8485 572.8 171.543 493.62C276.495 415.028 255.255 381.071 256.1 365.663ZM257.058 360.937C256.097 360.743 255.075 360.847 254.141 361.248C252.485 361.978 251.371 363.589 251.284 365.392C251.148 367.84 251.438 370.376 251.789 373.333C253.801 390.747 257.554 423.192 168.666 489.773C162.807 494.161 157.034 498.452 151.358 502.663C103.055 538.525 61.334 569.506 43.4589 607.356C33.8541 627.712 31.5883 648.834 36.5544 671.98C41.6668 695.779 54.3984 721.714 75.461 751.207L38.1611 795.647C37.339 796.628 36.9353 797.891 37.0549 799.161C37.1744 800.432 37.7702 801.619 38.7514 802.441L47.7494 809.989L48.2117 810.378L57.2097 817.925C57.8262 818.444 58.5754 818.793 59.3473 818.949C59.8041 819.042 60.2579 819.068 60.7245 819.032C61.9951 818.912 63.1819 818.316 64.004 817.335L101.304 772.896C123.923 783.714 143.923 790.787 162.352 794.523C204.567 803.083 237.383 793.616 265.624 764.74C290.928 738.859 310.385 700.002 332.903 655.025C336.072 648.698 339.295 642.267 342.606 635.722C392.744 536.619 425.345 534.685 442.842 533.641C445.812 533.472 448.368 533.318 450.746 532.751C452.519 532.34 453.894 530.979 454.333 529.215C454.773 527.451 454.179 525.608 452.814 524.413L357.819 442.046C357.696 441.923 357.586 441.819 357.445 441.708L357.303 441.597L357.165 441.471C357.026 441.344 356.885 441.234 356.727 441.12L259.139 361.917C258.535 361.417 257.814 361.091 257.058 360.937Z" fill="url(#paint48_linear)"/>
<path opacity="0.5" d="M354.434 445.476L354.195 445.28L353.975 445.071L353.971 445.087L256.119 365.65C255.886 370.031 257.431 375.92 257.337 383.904L429.508 530.413C438.317 528.46 445.035 529.133 449.649 528.052L354.434 445.476Z" fill="url(#paint49_radial)"/>
<g opacity="0.5">
<path opacity="0.5" d="M336.855 471.595L336.656 471.44C336.656 471.44 336.461 471.269 336.458 471.285L254.621 404.902C253.735 418.006 271.304 446.611 181.674 514.583C144.057 543.117 92.6121 572.962 73.7768 618.702C65.2743 639.364 66.5334 661.381 73.7876 682.22C91.4931 733.122 148.234 774.376 203.387 767.897C250.374 762.386 276.11 717.471 296.295 679.712C304.804 663.792 312.809 647.605 321.047 631.564C360.916 553.912 388.652 543.94 405.036 541.916C407.572 540.085 410.006 538.512 412.361 537.169C396.172 523.112 336.836 471.607 336.855 471.595Z" fill="url(#paint50_radial)"/>
</g>
<path d="M432.746 529.807C439.974 528.615 445.618 529.005 449.662 528.071L354.446 445.495L354.207 445.299L353.987 445.09L353.984 445.106L256.131 365.669C255.969 368.572 256.583 372.173 257.004 376.572C259.326 375.632 262.496 375.93 266.309 380.098C274.81 389.366 438.285 523.845 438.285 523.845C438.285 523.845 435.403 526.409 432.746 529.807Z" fill="white"/>
<path opacity="0.5" d="M84.8755 758.56C83.2449 760.132 59.1783 786.46 45.3224 801.658L50.8576 806.306L51.32 806.695L55.355 810.088L97.4809 763.199L84.8755 758.56Z" fill="url(#paint51_radial)"/>
<defs>
<linearGradient id="paint0_linear" x1="624.789" y1="639.524" x2="639.281" y2="644.566" gradientUnits="userSpaceOnUse">
<stop offset="0.0167" stop-color="#00EF9A"/>
<stop offset="0.1253" stop-color="#2AF19A"/>
<stop offset="0.3062" stop-color="#69F49B"/>
<stop offset="0.4792" stop-color="#9FF69C"/>
<stop offset="0.6394" stop-color="#C8F89C"/>
<stop offset="0.784" stop-color="#E6FA9D"/>
<stop offset="0.9081" stop-color="#F8FB9D"/>
<stop offset="0.9972" stop-color="#FEFB9D"/>
</linearGradient>
<linearGradient id="paint1_linear" x1="781.596" y1="571.027" x2="810.573" y2="581.107" gradientUnits="userSpaceOnUse">
<stop offset="0.0167" stop-color="#00EF9A"/>
<stop offset="0.1253" stop-color="#2AF19A"/>
<stop offset="0.3062" stop-color="#69F49B"/>
<stop offset="0.4792" stop-color="#9FF69C"/>
<stop offset="0.6394" stop-color="#C8F89C"/>
<stop offset="0.784" stop-color="#E6FA9D"/>
<stop offset="0.9081" stop-color="#F8FB9D"/>
<stop offset="0.9972" stop-color="#FEFB9D"/>
</linearGradient>
<linearGradient id="paint2_linear" x1="764.201" y1="437.974" x2="781.907" y2="444.133" gradientUnits="userSpaceOnUse">
<stop offset="0.0167" stop-color="#00EF9A"/>
<stop offset="0.1253" stop-color="#2AF19A"/>
<stop offset="0.3062" stop-color="#69F49B"/>
<stop offset="0.4792" stop-color="#9FF69C"/>
<stop offset="0.6394" stop-color="#C8F89C"/>
<stop offset="0.784" stop-color="#E6FA9D"/>
<stop offset="0.9081" stop-color="#F8FB9D"/>
<stop offset="0.9972" stop-color="#FEFB9D"/>
</linearGradient>
<linearGradient id="paint3_linear" x1="613.201" y1="275.974" x2="630.907" y2="282.133" gradientUnits="userSpaceOnUse">
<stop offset="0.0167" stop-color="#00EF9A"/>
<stop offset="0.1253" stop-color="#2AF19A"/>
<stop offset="0.3062" stop-color="#69F49B"/>
<stop offset="0.4792" stop-color="#9FF69C"/>
<stop offset="0.6394" stop-color="#C8F89C"/>
<stop offset="0.784" stop-color="#E6FA9D"/>
<stop offset="0.9081" stop-color="#F8FB9D"/>
<stop offset="0.9972" stop-color="#FEFB9D"/>
</linearGradient>
<linearGradient id="paint4_linear" x1="335.201" y1="36.9736" x2="352.907" y2="43.1329" gradientUnits="userSpaceOnUse">
<stop offset="0.0167" stop-color="#00EF9A"/>
<stop offset="0.1253" stop-color="#2AF19A"/>
<stop offset="0.3062" stop-color="#69F49B"/>
<stop offset="0.4792" stop-color="#9FF69C"/>
<stop offset="0.6394" stop-color="#C8F89C"/>
<stop offset="0.784" stop-color="#E6FA9D"/>
<stop offset="0.9081" stop-color="#F8FB9D"/>
<stop offset="0.9972" stop-color="#FEFB9D"/>
</linearGradient>
<radialGradient id="paint5_radial" cx="0" cy="0" r="1" gradientUnits="userSpaceOnUse" gradientTransform="translate(342.589 403.687) rotate(79.3756) scale(46.9863)">
<stop offset="0.0279" stop-color="white" stop-opacity="0.6"/>
<stop offset="1" stop-color="white" stop-opacity="0.6"/>
</radialGradient>
<radialGradient id="paint6_radial" cx="0" cy="0" r="1" gradientUnits="userSpaceOnUse" gradientTransform="translate(344.492 400.192) rotate(79.3756) scale(43.6269)">
<stop offset="0.0279" stop-color="white" stop-opacity="0.6"/>
<stop offset="1" stop-color="white" stop-opacity="0.6"/>
</radialGradient>
<radialGradient id="paint7_radial" cx="0" cy="0" r="1" gradientUnits="userSpaceOnUse" gradientTransform="translate(332.74 394.242) rotate(79.3756) scale(29.464)">
<stop offset="0.0279" stop-color="white" stop-opacity="0.6"/>
<stop offset="1" stop-color="white" stop-opacity="0.6"/>
</radialGradient>
<radialGradient id="paint8_radial" cx="0" cy="0" r="1" gradientUnits="userSpaceOnUse" gradientTransform="translate(332.741 394.243) rotate(79.3756) scale(29.4617)">
<stop offset="0.0279" stop-color="white" stop-opacity="0.6"/>
<stop offset="1" stop-color="white" stop-opacity="0.6"/>
</radialGradient>
<linearGradient id="paint9_linear" x1="367.379" y1="231.529" x2="398.256" y2="252.656" gradientUnits="userSpaceOnUse">
<stop offset="0.0167" stop-color="#00EF9A"/>
<stop offset="0.9972" stop-color="#FEFB9D"/>
</linearGradient>
<linearGradient id="paint10_linear" x1="357.961" y1="351.895" x2="405.376" y2="368.388" gradientUnits="userSpaceOnUse">
<stop offset="0.0167" stop-color="#00EF9A"/>
<stop offset="0.1253" stop-color="#2AF19A"/>
<stop offset="0.3062" stop-color="#69F49B"/>
<stop offset="0.4792" stop-color="#9FF69C"/>
<stop offset="0.6394" stop-color="#C8F89C"/>
<stop offset="0.784" stop-color="#E6FA9D"/>
<stop offset="0.9081" stop-color="#F8FB9D"/>
<stop offset="0.9972" stop-color="#FEFB9D"/>
</linearGradient>
<linearGradient id="paint11_linear" x1="127.694" y1="364.657" x2="703.677" y2="565.017" gradientUnits="userSpaceOnUse">
<stop offset="0.0167" stop-color="#00EF9A"/>
<stop offset="0.9972" stop-color="#FEFB9D"/>
</linearGradient>
<linearGradient id="paint12_linear" x1="476.202" y1="539.289" x2="586.867" y2="577.785" gradientUnits="userSpaceOnUse">
<stop offset="0.0167" stop-color="#00EF9A"/>
<stop offset="0.1253" stop-color="#2AF19A"/>
<stop offset="0.3062" stop-color="#69F49B"/>
<stop offset="0.4792" stop-color="#9FF69C"/>
<stop offset="0.6394" stop-color="#C8F89C"/>
<stop offset="0.784" stop-color="#E6FA9D"/>
<stop offset="0.9081" stop-color="#F8FB9D"/>
<stop offset="0.9972" stop-color="#FEFB9D"/>
</linearGradient>
<linearGradient id="paint13_linear" x1="181.835" y1="125.863" x2="220.699" y2="139.382" gradientUnits="userSpaceOnUse">
<stop offset="0.0167" stop-color="#00EF9A"/>
<stop offset="0.1253" stop-color="#2AF19A"/>
<stop offset="0.3062" stop-color="#69F49B"/>
<stop offset="0.4792" stop-color="#9FF69C"/>
<stop offset="0.6394" stop-color="#C8F89C"/>
<stop offset="0.784" stop-color="#E6FA9D"/>
<stop offset="0.9081" stop-color="#F8FB9D"/>
<stop offset="0.9972" stop-color="#FEFB9D"/>
</linearGradient>
<linearGradient id="paint14_linear" x1="112.032" y1="333.313" x2="183.494" y2="349.17" gradientUnits="userSpaceOnUse">
<stop offset="0.0167" stop-color="#00EF9A"/>
<stop offset="0.1253" stop-color="#2AF19A"/>
<stop offset="0.3062" stop-color="#69F49B"/>
<stop offset="0.4792" stop-color="#9FF69C"/>
<stop offset="0.6394" stop-color="#C8F89C"/>
<stop offset="0.784" stop-color="#E6FA9D"/>
<stop offset="0.9081" stop-color="#F8FB9D"/>
<stop offset="0.9972" stop-color="#FEFB9D"/>
</linearGradient>
<linearGradient id="paint15_linear" x1="417.821" y1="507.39" x2="503.613" y2="537.233" gradientUnits="userSpaceOnUse">
<stop offset="0.0167" stop-color="#00EF9A"/>
<stop offset="0.8524" stop-color="#00EF9A"/>
</linearGradient>
<linearGradient id="paint16_linear" x1="240.813" y1="375.574" x2="587.225" y2="496.076" gradientUnits="userSpaceOnUse">
<stop offset="0.0167" stop-color="#00EF9A"/>
<stop offset="0.9972" stop-color="#FEFB9D"/>
</linearGradient>
<linearGradient id="paint17_linear" x1="240.813" y1="375.574" x2="587.225" y2="496.076" gradientUnits="userSpaceOnUse">
<stop offset="0.0167" stop-color="#00EF9A"/>
<stop offset="0.9972" stop-color="#FEFB9D"/>
</linearGradient>
<radialGradient id="paint18_radial" cx="0" cy="0" r="1" gradientUnits="userSpaceOnUse" gradientTransform="translate(311.433 350.293) rotate(32.772) scale(46.9865)">
<stop offset="0.0279" stop-color="white" stop-opacity="0.6"/>
<stop offset="1" stop-color="white" stop-opacity="0.6"/>
</radialGradient>
<radialGradient id="paint19_radial" cx="0" cy="0" r="1" gradientUnits="userSpaceOnUse" gradientTransform="translate(310.202 346.508) rotate(32.772) scale(43.6278)">
<stop offset="0.0279" stop-color="white" stop-opacity="0.6"/>
<stop offset="1" stop-color="white" stop-opacity="0.6"/>
</radialGradient>
<radialGradient id="paint20_radial" cx="0" cy="0" r="1" gradientUnits="userSpaceOnUse" gradientTransform="translate(297.803 350.962) rotate(32.772) scale(29.4633)">
<stop offset="0.0279" stop-color="white" stop-opacity="0.6"/>
<stop offset="1" stop-color="white" stop-opacity="0.6"/>
</radialGradient>
<radialGradient id="paint21_radial" cx="0" cy="0" r="1" gradientUnits="userSpaceOnUse" gradientTransform="translate(297.803 350.961) rotate(32.772) scale(29.4628)">
<stop offset="0.0279" stop-color="white" stop-opacity="0.6"/>
<stop offset="1" stop-color="white" stop-opacity="0.6"/>
</radialGradient>
<radialGradient id="paint22_radial" cx="0" cy="0" r="1" gradientUnits="userSpaceOnUse" gradientTransform="translate(574.822 402.548) rotate(-174.403) scale(43.743)">
<stop offset="0.0279" stop-color="white" stop-opacity="0.6"/>
<stop offset="1" stop-color="white" stop-opacity="0.6"/>
</radialGradient>
<radialGradient id="paint23_radial" cx="0" cy="0" r="1" gradientUnits="userSpaceOnUse" gradientTransform="translate(577.907 400.498) rotate(-174.403) scale(40.6161)">
<stop offset="0.0279" stop-color="white" stop-opacity="0.6"/>
<stop offset="1" stop-color="white" stop-opacity="0.6"/>
</radialGradient>
<radialGradient id="paint24_radial" cx="0" cy="0" r="1" gradientUnits="userSpaceOnUse" gradientTransform="translate(584.382 410.913) rotate(-174.403) scale(27.4312)">
<stop offset="0.0279" stop-color="white" stop-opacity="0.6"/>
<stop offset="1" stop-color="white" stop-opacity="0.6"/>
</radialGradient>
<radialGradient id="paint25_radial" cx="0" cy="0" r="1" gradientUnits="userSpaceOnUse" gradientTransform="translate(584.386 410.911) rotate(-174.403) scale(27.4299)">
<stop offset="0.0279" stop-color="white" stop-opacity="0.6"/>
<stop offset="1" stop-color="white" stop-opacity="0.6"/>
</radialGradient>
<radialGradient id="paint26_radial" cx="0" cy="0" r="1" gradientUnits="userSpaceOnUse" gradientTransform="translate(242.96 664.028) rotate(19.1806) scale(175.323)">
<stop offset="0.1103" stop-color="white"/>
<stop offset="0.95" stop-color="white" stop-opacity="0"/>
</radialGradient>
<linearGradient id="paint27_linear" x1="302.098" y1="199.394" x2="512.55" y2="272.602" gradientUnits="userSpaceOnUse">
<stop offset="0.0167" stop-color="#00EF9A"/>
<stop offset="0.9972" stop-color="#FEFB9D"/>
</linearGradient>
<linearGradient id="paint28_linear" x1="515.015" y1="332.618" x2="703.444" y2="398.164" gradientUnits="userSpaceOnUse">
<stop offset="0.0167" stop-color="#00EF9A"/>
<stop offset="0.9972" stop-color="#FEFB9D"/>
</linearGradient>
<linearGradient id="paint29_linear" x1="272.24" y1="461.564" x2="307.658" y2="473.884" gradientUnits="userSpaceOnUse">
<stop offset="0.0167" stop-color="#00EF9A"/>
<stop offset="0.1253" stop-color="#2AF19A"/>
<stop offset="0.3062" stop-color="#69F49B"/>
<stop offset="0.4792" stop-color="#9FF69C"/>
<stop offset="0.6394" stop-color="#C8F89C"/>
<stop offset="0.784" stop-color="#E6FA9D"/>
<stop offset="0.9081" stop-color="#F8FB9D"/>
<stop offset="0.9972" stop-color="#FEFB9D"/>
</linearGradient>
<linearGradient id="paint30_linear" x1="314.863" y1="499.852" x2="327.743" y2="504.333" gradientUnits="userSpaceOnUse">
<stop offset="0.0167" stop-color="#00EF9A"/>
<stop offset="0.1253" stop-color="#2AF19A"/>
<stop offset="0.3062" stop-color="#69F49B"/>
<stop offset="0.4792" stop-color="#9FF69C"/>
<stop offset="0.6394" stop-color="#C8F89C"/>
<stop offset="0.784" stop-color="#E6FA9D"/>
<stop offset="0.9081" stop-color="#F8FB9D"/>
<stop offset="0.9972" stop-color="#FEFB9D"/>
</linearGradient>
<linearGradient id="paint31_linear" x1="168.786" y1="499.567" x2="210.641" y2="514.127" gradientUnits="userSpaceOnUse">
<stop offset="0.0167" stop-color="#00EF9A"/>
<stop offset="0.1253" stop-color="#2AF19A"/>
<stop offset="0.3062" stop-color="#69F49B"/>
<stop offset="0.4792" stop-color="#9FF69C"/>
<stop offset="0.6394" stop-color="#C8F89C"/>
<stop offset="0.784" stop-color="#E6FA9D"/>
<stop offset="0.9081" stop-color="#F8FB9D"/>
<stop offset="0.9972" stop-color="#FEFB9D"/>
</linearGradient>
<linearGradient id="paint32_linear" x1="210.152" y1="551.856" x2="223.029" y2="556.335" gradientUnits="userSpaceOnUse">
<stop offset="0.0167" stop-color="#00EF9A"/>
<stop offset="0.1253" stop-color="#2AF19A"/>
<stop offset="0.3062" stop-color="#69F49B"/>
<stop offset="0.4792" stop-color="#9FF69C"/>
<stop offset="0.6394" stop-color="#C8F89C"/>
<stop offset="0.784" stop-color="#E6FA9D"/>
<stop offset="0.9081" stop-color="#F8FB9D"/>
<stop offset="0.9972" stop-color="#FEFB9D"/>
</linearGradient>
<linearGradient id="paint33_linear" x1="135.9" y1="272.462" x2="176.151" y2="286.463" gradientUnits="userSpaceOnUse">
<stop offset="0.0167" stop-color="#00EF9A"/>
<stop offset="0.1253" stop-color="#2AF19A"/>
<stop offset="0.3062" stop-color="#69F49B"/>
<stop offset="0.4792" stop-color="#9FF69C"/>
<stop offset="0.6394" stop-color="#C8F89C"/>
<stop offset="0.784" stop-color="#E6FA9D"/>
<stop offset="0.9081" stop-color="#F8FB9D"/>
<stop offset="0.9972" stop-color="#FEFB9D"/>
</linearGradient>
<linearGradient id="paint34_linear" x1="195.255" y1="309.353" x2="203.305" y2="312.154" gradientUnits="userSpaceOnUse">
<stop offset="0.0167" stop-color="#00EF9A"/>
<stop offset="0.1253" stop-color="#2AF19A"/>
<stop offset="0.3062" stop-color="#69F49B"/>
<stop offset="0.4792" stop-color="#9FF69C"/>
<stop offset="0.6394" stop-color="#C8F89C"/>
<stop offset="0.784" stop-color="#E6FA9D"/>
<stop offset="0.9081" stop-color="#F8FB9D"/>
<stop offset="0.9972" stop-color="#FEFB9D"/>
</linearGradient>
<linearGradient id="paint35_linear" x1="293.052" y1="106.057" x2="312.37" y2="112.777" gradientUnits="userSpaceOnUse">
<stop offset="0.0167" stop-color="#00EF9A"/>
<stop offset="0.1253" stop-color="#2AF19A"/>
<stop offset="0.3062" stop-color="#69F49B"/>
<stop offset="0.4792" stop-color="#9FF69C"/>
<stop offset="0.6394" stop-color="#C8F89C"/>
<stop offset="0.784" stop-color="#E6FA9D"/>
<stop offset="0.9081" stop-color="#F8FB9D"/>
<stop offset="0.9972" stop-color="#FEFB9D"/>
</linearGradient>
<linearGradient id="paint36_linear" x1="328.751" y1="96.8212" x2="341.629" y2="101.301" gradientUnits="userSpaceOnUse">
<stop offset="0.0167" stop-color="#00EF9A"/>
<stop offset="0.1253" stop-color="#2AF19A"/>
<stop offset="0.3062" stop-color="#69F49B"/>
<stop offset="0.4792" stop-color="#9FF69C"/>
<stop offset="0.6394" stop-color="#C8F89C"/>
<stop offset="0.784" stop-color="#E6FA9D"/>
<stop offset="0.9081" stop-color="#F8FB9D"/>
<stop offset="0.9972" stop-color="#FEFB9D"/>
</linearGradient>
<linearGradient id="paint37_linear" x1="468.299" y1="453.07" x2="486.01" y2="459.231" gradientUnits="userSpaceOnUse">
<stop offset="0.0167" stop-color="#00EF9A"/>
<stop offset="0.1253" stop-color="#2AF19A"/>
<stop offset="0.3062" stop-color="#69F49B"/>
<stop offset="0.4792" stop-color="#9FF69C"/>
<stop offset="0.6394" stop-color="#C8F89C"/>
<stop offset="0.784" stop-color="#E6FA9D"/>
<stop offset="0.9081" stop-color="#F8FB9D"/>
<stop offset="0.9972" stop-color="#FEFB9D"/>
</linearGradient>
<linearGradient id="paint38_linear" x1="496.929" y1="448.591" x2="511.421" y2="453.633" gradientUnits="userSpaceOnUse">
<stop offset="0.0167" stop-color="#00EF9A"/>
<stop offset="0.1253" stop-color="#2AF19A"/>
<stop offset="0.3062" stop-color="#69F49B"/>
<stop offset="0.4792" stop-color="#9FF69C"/>
<stop offset="0.6394" stop-color="#C8F89C"/>
<stop offset="0.784" stop-color="#E6FA9D"/>
<stop offset="0.9081" stop-color="#F8FB9D"/>
<stop offset="0.9972" stop-color="#FEFB9D"/>
</linearGradient>
<linearGradient id="paint39_linear" x1="516.264" y1="206.271" x2="546.851" y2="216.911" gradientUnits="userSpaceOnUse">
<stop offset="0.0167" stop-color="#00EF9A"/>
<stop offset="0.1253" stop-color="#2AF19A"/>
<stop offset="0.3062" stop-color="#69F49B"/>
<stop offset="0.4792" stop-color="#9FF69C"/>
<stop offset="0.6394" stop-color="#C8F89C"/>
<stop offset="0.784" stop-color="#E6FA9D"/>
<stop offset="0.9081" stop-color="#F8FB9D"/>
<stop offset="0.9972" stop-color="#FEFB9D"/>
</linearGradient>
<linearGradient id="paint40_linear" x1="553.638" y1="212.955" x2="569.738" y2="218.556" gradientUnits="userSpaceOnUse">
<stop offset="0.0167" stop-color="#00EF9A"/>
<stop offset="0.1253" stop-color="#2AF19A"/>
<stop offset="0.3062" stop-color="#69F49B"/>
<stop offset="0.4792" stop-color="#9FF69C"/>
<stop offset="0.6394" stop-color="#C8F89C"/>
<stop offset="0.784" stop-color="#E6FA9D"/>
<stop offset="0.9081" stop-color="#F8FB9D"/>
<stop offset="0.9972" stop-color="#FEFB9D"/>
</linearGradient>
<linearGradient id="paint41_linear" x1="674.332" y1="365.609" x2="705.498" y2="376.45" gradientUnits="userSpaceOnUse">
<stop offset="0.0167" stop-color="#00EF9A"/>
<stop offset="0.1253" stop-color="#2AF19A"/>
<stop offset="0.3062" stop-color="#69F49B"/>
<stop offset="0.4792" stop-color="#9FF69C"/>
<stop offset="0.6394" stop-color="#C8F89C"/>
<stop offset="0.784" stop-color="#E6FA9D"/>
<stop offset="0.9081" stop-color="#F8FB9D"/>
<stop offset="0.9972" stop-color="#FEFB9D"/>
</linearGradient>
<linearGradient id="paint42_linear" x1="670.87" y1="420.675" x2="688.579" y2="426.835" gradientUnits="userSpaceOnUse">
<stop offset="0.0167" stop-color="#00EF9A"/>
<stop offset="0.1253" stop-color="#2AF19A"/>
<stop offset="0.3062" stop-color="#69F49B"/>
<stop offset="0.4792" stop-color="#9FF69C"/>
<stop offset="0.6394" stop-color="#C8F89C"/>
<stop offset="0.784" stop-color="#E6FA9D"/>
<stop offset="0.9081" stop-color="#F8FB9D"/>
<stop offset="0.9972" stop-color="#FEFB9D"/>
</linearGradient>
<linearGradient id="paint43_linear" x1="327.18" y1="547.452" x2="340.062" y2="551.933" gradientUnits="userSpaceOnUse">
<stop offset="0.0167" stop-color="#00EF9A"/>
<stop offset="0.1253" stop-color="#2AF19A"/>
<stop offset="0.3062" stop-color="#69F49B"/>
<stop offset="0.4792" stop-color="#9FF69C"/>
<stop offset="0.6394" stop-color="#C8F89C"/>
<stop offset="0.784" stop-color="#E6FA9D"/>
<stop offset="0.9081" stop-color="#F8FB9D"/>
<stop offset="0.9972" stop-color="#FEFB9D"/>
</linearGradient>
<linearGradient id="paint44_linear" x1="412.377" y1="421.887" x2="431.693" y2="428.606" gradientUnits="userSpaceOnUse">
<stop offset="0.0167" stop-color="#00EF9A"/>
<stop offset="0.1253" stop-color="#2AF19A"/>
<stop offset="0.3062" stop-color="#69F49B"/>
<stop offset="0.4792" stop-color="#9FF69C"/>
<stop offset="0.6394" stop-color="#C8F89C"/>
<stop offset="0.784" stop-color="#E6FA9D"/>
<stop offset="0.9081" stop-color="#F8FB9D"/>
<stop offset="0.9972" stop-color="#FEFB9D"/>
</linearGradient>
<linearGradient id="paint45_linear" x1="427.417" y1="570.59" x2="445.123" y2="576.749" gradientUnits="userSpaceOnUse">
<stop offset="0.0167" stop-color="#00EF9A"/>
<stop offset="0.1253" stop-color="#2AF19A"/>
<stop offset="0.3062" stop-color="#69F49B"/>
<stop offset="0.4792" stop-color="#9FF69C"/>
<stop offset="0.6394" stop-color="#C8F89C"/>
<stop offset="0.784" stop-color="#E6FA9D"/>
<stop offset="0.9081" stop-color="#F8FB9D"/>
<stop offset="0.9972" stop-color="#FEFB9D"/>
</linearGradient>
<linearGradient id="paint46_linear" x1="456.043" y1="586.868" x2="485.02" y2="596.948" gradientUnits="userSpaceOnUse">
<stop offset="0.0167" stop-color="#00EF9A"/>
<stop offset="0.1253" stop-color="#2AF19A"/>
<stop offset="0.3062" stop-color="#69F49B"/>
<stop offset="0.4792" stop-color="#9FF69C"/>
<stop offset="0.6394" stop-color="#C8F89C"/>
<stop offset="0.784" stop-color="#E6FA9D"/>
<stop offset="0.9081" stop-color="#F8FB9D"/>
<stop offset="0.9972" stop-color="#FEFB9D"/>
</linearGradient>
<radialGradient id="paint47_radial" cx="0" cy="0" r="1" gradientUnits="userSpaceOnUse" gradientTransform="translate(288.117 367.518) rotate(19.1806) scale(516.038)">
<stop offset="0.1103" stop-color="white"/>
<stop offset="0.95" stop-color="white" stop-opacity="0"/>
</radialGradient>
<linearGradient id="paint48_linear" x1="60.6833" y1="556.023" x2="403.542" y2="675.289" gradientUnits="userSpaceOnUse">
<stop stop-color="#FEFB9D"/>
<stop offset="0.9972" stop-color="#FEFB9D"/>
</linearGradient>
<radialGradient id="paint49_radial" cx="0" cy="0" r="1" gradientUnits="userSpaceOnUse" gradientTransform="translate(359.017 395.329) rotate(19.1806) scale(304.986)">
<stop offset="0.0167" stop-color="white"/>
<stop offset="0.8663" stop-color="white" stop-opacity="0"/>
</radialGradient>
<radialGradient id="paint50_radial" cx="0" cy="0" r="1" gradientUnits="userSpaceOnUse" gradientTransform="translate(362.886 413.687) rotate(19.1806) scale(457.498)">
<stop offset="0.0167" stop-color="white"/>
<stop offset="0.8663" stop-color="white" stop-opacity="0"/>
</radialGradient>
<radialGradient id="paint51_radial" cx="0" cy="0" r="1" gradientUnits="userSpaceOnUse" gradientTransform="translate(70.9426 784.505) rotate(12.5108) scale(25.0718)">
<stop offset="0.0167" stop-color="white"/>
<stop offset="0.8663" stop-color="white" stop-opacity="0"/>
</radialGradient>
</defs>
</svg>
