<svg width="1932" height="567" viewBox="0 0 1932 567" fill="none" xmlns="http://www.w3.org/2000/svg">
<path d="M46.0001 328C-16.6142 384.819 4.00005 489 4.00002 561L917 561L1929.97 561L1929.97 375L1929.97 30.4177L1905.24 19.0704C1883.67 9.17552 1833.75 -4.06914 1771.25 15.7496C1709.8 34.5714 1648.36 53.3932 1586.72 139.215C1525.07 226.036 1463.24 378.858 1400.82 369.676C1339.46 359.498 1278.57 186.321 1217.32 138.143C1156.06 89.9652 1093.39 166.784 1031.86 214.605C970.332 262.427 908.887 281.249 847.522 272.071C786.161 261.893 723.822 223.712 662.406 232.534C600.986 242.355 539.427 300.177 478.15 260.999C415.811 222.818 358.196 452.178 297 385C235.804 317.822 107.559 270.178 46.0001 328Z" fill="#23144D"/>
</svg>
