<svg id="glasseSvg2" width="726" height="505" viewBox="0 0 726 505" fill="none" xmlns="http://www.w3.org/2000/svg">
<g clip-path="url(#clip0)">
<path d="M541.26 237.03C541.26 237.03 554.37 245.1 550.34 252.16C546.3 259.22 541.26 283.43 531.18 285.44C521.09 287.46 488.82 271.32 484.79 264.26C480.76 257.2 474.71 251.15 477.73 244.09C480.76 237.03 491.85 211.82 495.88 214.84C499.91 217.86 523.11 219.55 529.16 224.59C535.21 229.63 541.26 237.03 541.26 237.03Z" fill="url(#paint0_radial)"/>
<path d="M485.46 260.22C490.17 257.53 502.94 238.71 502.61 232.99C502.27 227.27 500.59 229.29 493.87 221.9C492.65 220.56 491.75 219.27 491.08 218.05C492.23 216.49 493.29 215.36 494.21 214.87C497.48 219.5 501.8 225.22 504.29 226.94C508.66 229.97 511.69 231.31 518.75 233.33C525.81 235.35 538.58 245.1 536.23 236.02C535.45 233.01 534.27 229.79 533.31 227C537.62 231.81 541.27 237.03 541.27 237.03C541.27 237.03 548.45 241.46 550.55 246.62C550.38 246.68 550.21 246.74 550.01 246.78C548.69 247.05 534.88 243.42 527.82 240.39C520.76 237.37 517.73 235.35 512.36 236.02C506.98 236.69 492.19 265.27 492.19 265.27C492.19 265.27 502.69 273.92 513.04 281.45C500.79 276.59 487.31 268.66 484.79 264.26C483.99 262.87 483.12 261.51 482.25 260.18C483.35 260.64 484.47 260.79 485.46 260.22Z" fill="url(#paint1_radial)"/>
<path d="M530.68 285.51C529.29 269.28 527.75 253.06 525.29 236.94C526.78 237.5 528.29 238.19 529.83 239.04C530.57 239.45 531.31 239.64 532 239.66C532.02 239.66 532.04 239.68 532.06 239.68C533.09 248.22 535.72 270.37 535.79 282.77C534.38 284.15 532.85 285.1 531.17 285.43C531.02 285.47 530.85 285.49 530.68 285.51Z" fill="url(#paint2_radial)"/>
<path d="M509.42 236.3C513.38 235.24 517.1 235.02 520.82 235.7C520.18 236.31 519.78 237.19 519.95 238.27C522.33 253.83 523.81 269.5 525.15 285.18C520.92 284.39 515.65 282.6 510.3 280.32C509.92 269.87 509.23 248.63 509.42 236.3Z" fill="url(#paint3_radial)"/>
<path d="M447.92 238.05C447.92 238.05 463.25 236.66 464.25 244.73C465.25 252.8 475.7 275.21 468.83 282.86C461.96 290.51 426.45 296.91 418.99 293.67C411.53 290.43 403.06 289.21 401.26 281.74C399.46 274.27 393.25 247.44 398.29 247.44C403.33 247.45 422.92 234.91 430.78 235.32C438.64 235.75 447.92 238.05 447.92 238.05Z" fill="url(#paint4_radial)"/>
<path d="M417.11 290.04C419.27 285.07 418.23 262.34 414.54 257.96C410.85 253.58 410.71 256.21 400.9 254.31C399.12 253.96 397.63 253.47 396.36 252.89C396.34 250.96 396.53 249.41 396.97 248.47C402.36 250.22 409.25 252.22 412.27 252.11C417.58 251.92 420.81 251.18 427.67 248.57C434.53 245.96 450.6 246.12 443.28 240.26C440.86 238.32 437.98 236.44 435.54 234.78C441.87 236.05 447.92 238.05 447.92 238.05C447.92 238.05 456.32 237.29 461.09 240.18C460.99 240.33 460.89 240.48 460.76 240.63C459.87 241.64 446.63 246.99 439.16 248.8C431.69 250.6 428.06 250.8 424.16 254.56C420.25 258.32 425.52 290.06 425.52 290.06C425.52 290.06 439.11 290.7 451.91 290.53C439.19 293.97 423.64 295.7 418.99 293.68C417.52 293.04 416.01 292.48 414.52 291.93C415.66 291.64 416.65 291.09 417.11 290.04Z" fill="url(#paint5_radial)"/>
<path d="M468.47 283.22C457.64 271.05 446.69 258.98 435.07 247.55C436.6 247.1 438.22 246.76 439.97 246.52C440.81 246.4 441.51 246.12 442.08 245.72C442.1 245.71 442.12 245.71 442.14 245.7C448.08 251.92 463.45 268.09 470.93 277.98C470.62 279.93 469.97 281.61 468.83 282.88C468.72 282.98 468.59 283.1 468.47 283.22Z" fill="url(#paint6_radial)"/>
<path d="M421.97 256.54C424.51 253.33 427.35 250.92 430.74 249.23C430.59 250.1 430.8 251.05 431.58 251.81C442.81 262.85 453.37 274.51 463.83 286.27C459.97 288.17 454.67 289.89 449.03 291.27C442.48 283.12 429.2 266.52 421.97 256.54Z" fill="url(#paint7_radial)"/>
<path opacity="0.4" d="M113.12 181.75C137.12 169.75 170.12 174.75 196.12 177.75C222.12 180.75 172.12 201.75 188.12 208.75C204.12 215.75 241.12 205.75 252.12 199.75C265.84 192.27 286.04 196 300.84 196.76C306.89 197.07 317.45 198.88 312.13 205.77C308.51 210.46 290.39 208.94 301.45 218.07C307.64 223.18 320.64 216.72 327.42 215.62C342.45 213.18 357.67 213.86 372.58 216.55C389.42 216.76 406.25 218.34 422.92 220.88C445.93 224.38 468.29 231.62 487.46 245.04C495.89 250.94 503.87 257.42 513.23 261.83C523.5 266.67 535.15 267.54 546.12 264.99C552.75 263.45 559 260.61 564.53 256.76C570.55 251.73 575.96 245.59 580.74 238.72C583.26 234.06 585.04 228.98 585.89 223.62C586.28 221.16 588.82 220.97 590.42 222.16C606.62 189.09 610.81 147.62 600.12 125.75C593.79 112.79 583.3 101.17 570.68 91.82C570.3 92 569.84 92.01 569.36 91.72C551.86 80.73 531.98 70.47 510.72 71.7C499.4 72.35 489.06 77.48 480.57 84.78C472.8 91.46 467.06 99.34 458.01 104.54C442.9 113.23 424.99 111.9 411.21 101.4C403.97 95.89 399.11 88.42 394.18 80.93C389.67 74.08 384.34 67.03 376.6 64.34C374.94 66.92 372.86 70.39 368.11 72.76C356.11 78.76 352.11 67.76 345.11 78.76C338.11 89.76 319.11 116.76 310.11 82.76C301.11 48.76 296.11 52.76 284.11 48.76C272.11 44.76 263.11 77.76 254.11 84.76C245.11 91.76 236.11 85.76 214.11 87.76C192.11 89.76 202.11 105.76 179.11 87.76C156.11 69.76 156.11 82.76 132.11 82.76C113.01 82.76 109.13 63.76 119.93 51.47C120.82 49.44 121.98 47.48 123.47 45.63C130.87 36.4 143.68 35.7 154.37 37.89C164.9 40.05 171.78 48.45 177.35 56.99C183.3 66.12 188.8 76.32 200.52 78.32C201.34 78.46 201.65 79.07 201.6 79.7C209.07 78.81 217.35 73.94 227.12 75.77C243.12 78.77 251.12 75.77 262.12 63.77C273.12 51.77 279.12 41.77 292.12 36.77C305.12 31.77 312.12 59.77 325.12 67.77C338.12 75.77 333.12 64.77 342.12 55.77C351.12 46.77 351.12 60.77 363.12 59.77C375.12 58.77 373.12 49.77 392.12 50.77C411.12 51.77 414.12 68.77 434.12 71.77C454.12 74.77 433.12 54.77 489.12 42.77C545.12 30.77 603.12 79.77 606.12 82.77C648.27 124.92 678.12 174.77 678.12 174.77C723.12 254.77 681.12 344.77 605.12 371.77C553.27 390.19 512.13 372.77 480.74 344.6C468.75 344.62 458.87 336.86 450.86 328.69C440.9 318.54 433.05 306.42 425.12 294.69C415.88 281.02 405.16 269.91 391.35 260.71C376.69 250.94 360.34 243.88 343.87 237.77C331.29 235.2 320.16 234.83 312.12 236.77C283.12 243.77 271.12 229.77 248.12 246.77C225.12 263.77 283.12 280.77 322.12 299.77C361.12 318.77 325.12 346.77 325.12 346.77C278.76 360.67 231.8 331.11 186.17 344.52C168.18 349.81 134.35 359.77 119.4 342.66C102 322.73 118.47 290.79 121.12 268.77C124.12 243.77 106.12 225.77 104.12 213.77C102.12 201.77 89.1199 193.75 113.12 181.75ZM162.32 44.49C152.86 37.98 137.73 37.72 128.56 44.82C128.47 44.89 128.4 44.96 128.31 45.02C129.21 44.56 130.13 44.13 131.11 43.74C147.18 37.45 163.25 47.77 175.23 59.33C171.56 53.7 167.72 48.2 162.32 44.49ZM468.12 78.75C430.12 105.75 403.12 77.75 389.12 65.75C382.81 60.35 380.37 60.02 378.48 61.83C392.03 67.1 398.01 83.8 407.61 94.1C422.7 110.28 444.71 110.8 462.18 98.28C471.01 91.94 477.08 82.76 486.27 76.74C493.82 71.8 502.6 69.23 511.54 68.66C495.44 67.3 480.09 70.24 468.12 78.75ZM558.78 336.68C594.08 336.09 622.46 304.39 641.03 277.54C650.44 263.94 656.86 248.83 659.44 232.43C662.2 214.93 662.91 196.15 656.52 179.3C653.77 172.04 647.01 167.13 638.98 169.34C629.29 172.01 629.16 179.03 630.48 186.56C631.89 194.61 630.83 202.47 630.77 210.56C630.68 222.28 628.79 233.9 623.44 244.44C613.48 264.05 595.46 278 585.02 296.74C585.44 296.53 585.93 296.13 586.38 295.96C584.49 297.39 582.57 298.78 580.58 300.05C577.89 301.77 575.14 303.43 572.25 304.81C571.75 305.05 571.24 305.28 570.74 305.51C570.59 305.56 570.22 305.7 569.61 305.94C568.01 306.49 566.39 307.04 564.74 307.42C564.14 307.56 560.37 308.07 561.42 308.04C560.54 308.1 559.66 308.14 558.78 308.15C551.01 308.28 544.52 314.54 544.52 322.41C544.52 330.09 551.01 336.81 558.78 336.68ZM523.22 270.98C513.83 268.93 504.78 264.63 496.5 258.9C487.18 252.45 478.41 245.48 468.21 240.41C456.51 234.58 443.67 231.02 430.92 228.37C421.3 226.37 411.49 224.9 401.6 223.91C436.11 234.81 468.95 251.9 502.13 265.75C509.5 268.83 516.54 270.51 523.22 270.98ZM422.83 286.07C430.88 297.32 438.1 309.11 446.93 319.79C454.58 329.05 464.73 339.64 477.22 341.34C464.1 328.95 452.75 314.77 443.12 300.75C425.98 275.82 399.14 257.64 373.23 246.9C392.47 256.33 410.31 268.56 422.83 286.07Z" fill="url(#paint8_linear)"/>
<path d="M156.12 277.75C159.12 254.75 144.12 239.75 132.12 208.75C120.12 177.75 147.12 186.75 173.12 184.75C199.12 182.75 164.12 193.75 166.12 214.75C168.12 235.75 202.12 231.75 219.12 224.75C236.12 217.75 262.12 194.75 292.12 200.75C322.12 206.75 282.12 205.75 276.12 214.75C270.12 223.75 299.12 220.75 349.12 219.75C399.12 218.75 467.12 262.75 494.12 294.75C503.12 305.41 514.79 320.73 530.57 318.52C538.45 317.42 568.87 303.5 567.35 293.85C556.58 294.14 546.6 299.59 535.02 299.78C541.52 297.34 549.23 295.94 556.13 293.58C565.05 290.53 570.24 285.48 576.78 279.04C598.92 257.26 612.58 227.99 621.11 198.74C628.11 174.74 632.11 188.74 632.11 188.74C638.11 256.74 576.11 303.74 578.11 317.74C580.11 331.74 600.11 334.74 637.11 275.74C674.11 216.74 642.11 183.74 634.11 173.74C626.11 163.74 617.11 171.74 610.11 156.74C608.82 153.97 607.29 150.97 605.63 147.81C604.89 139.35 603.07 131.79 600.11 125.74C596.39 118.12 591.22 110.96 585.04 104.45C581.45 90.15 606.11 120.74 606.11 120.74C618.11 137.74 632.11 149.74 645.11 150.74C658.11 151.74 677.11 193.74 678.11 248.74C678.36 262.66 676.07 277.24 670.12 289.93C666.61 297.42 657.84 310.35 648.21 309.64C645.58 297.33 665.88 287.56 664.01 273.18C653.57 273.15 644.62 293.75 639.61 301.11C636.04 306.36 632.13 311.32 628.11 316.26C625.59 319.36 618.59 324.55 617.58 328.41C616.37 333.03 619.9 332.06 619.98 334.54C620.11 338.66 617.84 340.18 615.41 343.07C598.03 363.82 563.42 369.11 538.16 363.85C511.22 358.23 486.45 340.99 473.11 316.74C451.11 276.74 378.11 231.74 352.11 230.74C326.11 229.74 311.11 232.74 289.11 229.74C267.11 226.74 249.11 220.74 227.11 242.74C205.11 264.74 279.3 296.5 283.11 299.74C316.11 327.74 248.11 308.74 231.11 306.74C214.11 304.74 172.11 321.74 150.11 321.74C128.11 321.74 153.12 300.75 156.12 277.75Z" fill="url(#paint9_linear)"/>
<path d="M113.12 181.75C113.66 181.48 114.2 181.23 114.75 180.98C115.85 180.48 117.11 179.95 118.5 179.41C130.7 174.75 144.73 173.74 158.79 174.24C159 174.37 159.21 174.5 159.39 174.64C156.57 177.65 152.09 175.84 148.29 176.91C141.3 178.87 136.78 182.14 129.55 182.89C124.33 183.43 118.43 184.16 115.85 189.4C111.47 198.29 119.43 214.41 120.8 223.42C124.8 249.75 131.47 237.75 139.47 262.42C147.47 287.09 128.14 319.09 135.47 333.09C142.8 347.09 183.47 335.09 216.14 325.76C248.81 316.43 284.14 337.09 312.14 333.76C332.7 331.31 335.28 316.65 335.21 309.03C335.41 309.25 335.6 309.48 335.78 309.7C335.84 309.77 335.9 309.84 335.96 309.92C336.13 310.13 336.3 310.35 336.46 310.56C336.52 310.64 336.58 310.72 336.64 310.81C336.8 311.02 336.95 311.24 337.09 311.45C337.14 311.52 337.19 311.6 337.24 311.67C337.39 311.9 337.54 312.12 337.67 312.35C337.69 312.38 337.7 312.4 337.72 312.43C338.2 313.23 338.6 314.03 338.94 314.83C338.95 314.85 338.96 314.87 338.97 314.9C339.07 315.14 339.16 315.38 339.25 315.62C339.27 315.68 339.29 315.74 339.31 315.8C339.39 316.03 339.47 316.26 339.54 316.49C339.56 316.55 339.58 316.61 339.59 316.67C339.66 316.91 339.73 317.14 339.78 317.38C339.79 317.42 339.8 317.45 339.81 317.49C340.07 318.56 340.21 319.63 340.27 320.69C340.27 320.72 340.27 320.74 340.27 320.77C340.28 321.01 340.28 321.26 340.29 321.5C340.29 321.54 340.29 321.59 340.29 321.63C340.29 321.87 340.28 322.11 340.27 322.35C340.27 322.38 340.27 322.42 340.26 322.45C340.19 323.77 339.98 325.08 339.66 326.36C339.65 326.39 339.65 326.42 339.64 326.44C339.58 326.68 339.51 326.91 339.45 327.15C339.44 327.18 339.43 327.21 339.42 327.25C339.35 327.49 339.27 327.73 339.2 327.97C339.2 327.98 339.2 327.98 339.19 327.99C338.85 329.01 338.45 330.02 337.99 330.99V331C337.88 331.23 337.77 331.46 337.66 331.68C337.65 331.71 337.63 331.73 337.62 331.76C337.51 331.98 337.4 332.2 337.28 332.42C337.27 332.44 337.26 332.46 337.25 332.48C336.63 333.64 335.95 334.75 335.24 335.81C335.22 335.83 335.21 335.86 335.19 335.88C335.06 336.08 334.92 336.27 334.79 336.46C334.77 336.49 334.75 336.51 334.73 336.54C334.59 336.73 334.46 336.93 334.32 337.12C334.31 337.13 334.31 337.14 334.3 337.15C333.71 337.96 333.11 338.73 332.5 339.45C332.49 339.47 332.47 339.49 332.46 339.5C332.32 339.66 332.19 339.82 332.05 339.98C332.02 340.01 331.99 340.05 331.97 340.08C331.84 340.23 331.71 340.38 331.58 340.53C331.55 340.56 331.52 340.59 331.5 340.63C331.37 340.78 331.23 340.93 331.1 341.08L331.09 341.09C330.65 341.58 330.21 342.04 329.79 342.48C329.78 342.49 329.77 342.5 329.76 342.51C329.64 342.63 329.52 342.75 329.4 342.87C329.37 342.91 329.33 342.94 329.3 342.98C329.19 343.09 329.09 343.2 328.98 343.3C328.94 343.34 328.9 343.38 328.86 343.42C328.75 343.52 328.65 343.63 328.55 343.73C328.52 343.76 328.49 343.79 328.46 343.82C328.11 344.16 327.78 344.48 327.47 344.76C327.45 344.77 327.44 344.79 327.42 344.81C327.34 344.89 327.25 344.96 327.17 345.04C327.13 345.07 327.09 345.11 327.06 345.14C326.98 345.21 326.91 345.27 326.84 345.34C326.8 345.37 326.76 345.41 326.73 345.44C326.66 345.5 326.6 345.56 326.53 345.61C326.49 345.64 326.45 345.68 326.41 345.71C326.35 345.76 326.3 345.81 326.24 345.86C326.19 345.9 326.15 345.94 326.11 345.97C326.07 346.01 326.02 346.05 325.98 346.08C325.95 346.11 325.92 346.13 325.89 346.15C325.8 346.22 325.72 346.29 325.65 346.35C325.62 346.38 325.59 346.4 325.56 346.43C325.53 346.45 325.51 346.47 325.48 346.5C325.45 346.52 325.42 346.55 325.39 346.57C325.37 346.59 325.35 346.6 325.33 346.62C325.3 346.64 325.27 346.66 325.25 346.68C325.24 346.69 325.24 346.69 325.23 346.7C325.2 346.72 325.18 346.74 325.16 346.76C325.14 346.77 325.13 346.78 325.13 346.78C278.77 360.68 231.81 331.12 186.18 344.53C168.19 349.82 134.36 359.78 119.41 342.67C102.01 322.74 118.48 290.8 121.13 268.78C124.13 243.78 106.13 225.78 104.13 213.78C103.63 210.78 102.44 208.03 101.32 205.4C97.93 197.5 95.12 190.75 113.12 181.75Z" fill="#008BC1"/>
<path opacity="0.4" d="M687.45 155.75C690.13 143.05 691.58 129.77 691.39 116.8C691.26 108.3 690.71 98.69 686.63 91.02C682.46 83.19 668.68 71.11 660.14 78.54C646.47 90.44 668.27 99.67 674.01 108.75C682.84 122.73 686.43 139.44 687.45 155.75Z" fill="url(#paint10_linear)"/>
<path opacity="0.4" d="M687.45 155.75C690.13 143.05 691.58 129.77 691.39 116.8C691.26 108.3 690.71 98.69 686.63 91.02C682.46 83.19 668.68 71.11 660.14 78.54C646.47 90.44 668.27 99.67 674.01 108.75C682.84 122.73 686.43 139.44 687.45 155.75Z" fill="url(#paint11_linear)"/>
<path d="M660.92 77.94C669.5 71.83 682.59 83.44 686.63 91.03C690.71 98.7 691.26 108.31 691.39 116.81C691.47 121.97 691.28 127.17 690.86 132.37C689.01 120.06 685.34 107.97 678.68 97.43C674.78 91.26 663.5 85.03 660.92 77.94Z" fill="url(#paint12_radial)"/>
<path opacity="0.4" d="M704.92 238.76C710.59 232.55 715.77 225.61 719.92 218.31C722.64 213.52 725.5 207.97 725.74 202.35C725.98 196.61 722.26 185.33 715.05 186.68C703.51 188.83 712.64 201.15 712.86 208.11C713.19 218.8 709.71 229.31 704.92 238.76Z" fill="url(#paint13_linear)"/>
<path opacity="0.4" d="M580.12 122.75C565.58 119.13 576.01 137.95 569.12 142.77C564.51 145.99 559.34 140.3 556.08 146.75C553.75 151.37 557.45 159.86 561.13 162.55C565.22 165.54 573.76 166.14 578.12 163.55C581.21 161.71 580.91 157.44 583.32 155.7C584.89 154.57 589.2 153.6 590.12 152.75C595.26 147.99 597.08 144.05 593.36 134.73C590.8 128.33 585.83 121.79 578.11 122.75" fill="url(#paint14_linear)"/>
<path d="M149.12 138.75C153.42 132.57 171.36 140.09 167.17 149.8C165.28 154.18 161.16 152.03 158.12 153.76C154.66 155.73 151.78 159.75 148.39 161.78C127.06 174.57 124.9 134.72 150.12 136.76" fill="#EC46BE"/>
<path d="M146.44 143.41L145.49 145.44C149.11 139.94 163.46 144.66 164.33 152.5C162.38 153.12 160.04 152.66 158.12 153.76C154.66 155.73 151.78 159.75 148.39 161.78C135.89 169.28 129.98 158.69 132.3 149.05C135.21 145.49 139.85 143.05 146.44 143.41Z" fill="url(#paint15_linear)"/>
<path d="M332.25 186.67C337.91 187.23 339.55 201.85 331.6 202.65C328.01 203.01 327.92 199.5 325.66 198.13C323.08 196.57 319.37 196.15 316.78 194.66C300.48 185.28 326 169.19 333.94 186.59" fill="url(#paint16_linear)"/>
<path d="M333.93 186.59L332.24 186.67C335.44 186.99 337.35 191.78 336.98 196.04C336.63 196.14 336.27 196.23 335.88 196.27C332.22 196.67 332.16 193.14 329.88 191.79C327.27 190.25 323.5 189.86 320.88 188.39C316.92 186.16 315.42 183.53 315.53 181.04C320.81 177.56 329.78 177.49 333.93 186.59Z" fill="url(#paint17_radial)"/>
<path d="M305.12 26.75C305.12 26.75 269.12 -0.249967 257.12 23.75C245.12 47.75 268.12 19.75 305.12 26.75Z" fill="url(#paint18_linear)"/>
<path d="M262.01 17.47C270.42 10.65 283.23 14.61 292.7 19.28C266.46 21.21 252.25 37.08 262.01 17.47Z" fill="#EC46BE"/>
<path d="M144.12 87.75C147.22 85.91 119.12 94.75 108.12 88.75C97.12 82.75 90.12 119.75 144.12 87.75Z" fill="url(#paint19_linear)"/>
<path d="M137.38 88.37C108.58 103.14 101.61 94.32 103.14 88.11C104.06 88 105.07 88.18 106.12 88.75C113.69 92.88 129.36 89.98 137.38 88.37Z" fill="url(#paint20_linear)"/>
<path d="M490.12 48.42C452.79 61.09 456.79 87.09 436.12 81.09C415.45 75.09 413.45 59.76 388.79 56.42C364.12 53.09 370.79 73.09 362.12 67.09C353.45 61.09 352.12 53.09 347.45 58.42C342.78 63.75 330.78 99.75 323.45 89.09C316.12 78.43 310.78 38.42 296.78 40.42C292.4 41.05 286.4 44.34 280.03 48.78C278.19 49.4 276.42 50.78 274.7 52.69C271.35 55.25 268 58 264.81 60.74C274.17 50.09 280.22 41.33 292.11 36.75C305.11 31.75 312.11 59.75 325.11 67.75C338.11 75.75 333.11 64.75 342.11 55.75C351.11 46.75 351.11 60.75 363.11 59.75C375.11 58.75 373.11 49.75 392.11 50.75C411.11 51.75 414.11 68.75 434.11 71.75C454.11 74.75 433.11 54.75 489.11 42.75C545.11 30.75 603.11 79.75 606.11 82.75C608.08 84.72 610.02 86.7 611.93 88.69C607.72 90.58 526.46 36.09 490.12 48.42Z" fill="url(#paint21_linear)"/>
<path d="M131.12 43.75C154.12 34.75 177.12 59.75 188.12 73.75C199.12 87.75 211.12 72.75 227.12 75.75C237.62 77.72 244.67 77.08 251.38 73.04C249.01 75.35 247.17 77.24 246.12 78.42C240.12 85.09 228.79 84.42 218.79 81.75C208.79 79.08 203.46 83.75 197.46 85.08C191.46 86.41 182.79 59.75 156.79 53.75C131.17 47.84 112.04 59.41 117.23 76.33C110.1 67.01 114.84 50.12 131.12 43.75Z" fill="url(#paint22_linear)"/>
<path d="M363.93 243.35C375.69 243.3 413.19 252.35 442.12 289.76C480.79 339.76 500.79 365.09 547.45 369.09C594.11 373.09 646.12 357.76 676.12 299.76C706.12 241.76 676.12 171.76 664.79 158.43C653.46 145.1 642.79 145.1 630.79 136.43C618.79 127.76 596.79 95.1 586.12 92.43C577.92 90.38 576.42 93.44 572.83 93.46C541.54 69.15 495.8 59.09 468.12 78.76C467.55 79.17 466.98 79.56 466.41 79.94C459.76 80.85 455.05 82.68 453.45 85.76C451.48 89.55 458.78 71.09 484.78 63.76C510.78 56.43 530.78 56.43 562.78 73.76C594.78 91.09 614.11 107.09 622.78 107.76C625.59 107.98 627.91 108.26 630.17 108.96C659.18 143.13 678.12 174.76 678.12 174.76C723.12 254.76 681.12 344.76 605.12 371.76C529.12 398.76 476.12 348.76 443.12 300.76C423.92 272.82 392.53 253.36 363.93 243.35Z" fill="url(#paint23_radial)"/>
<path d="M196.12 177.75C206.73 178.97 204.68 183.19 199.63 188.24C199.39 187.59 198.51 187 196.78 186.42C186.78 183.09 167.45 176.42 150.78 175.09C149.66 175 149.33 174.68 149.69 174.16C165.52 173.87 181.87 176.11 196.12 177.75Z" fill="url(#paint24_radial)"/>
<path d="M178.79 204.42C183.31 199.6 189.47 196.14 193.93 193.49C187.25 199.47 180.83 205.57 188.12 208.76C204.12 215.76 241.12 205.76 252.12 199.76C265.84 192.28 286.04 196.01 300.84 196.77C306.89 197.08 317.45 198.89 312.13 205.78C308.51 210.47 290.39 208.95 301.45 218.08C302.95 219.31 304.84 219.87 306.95 219.99C296 222.06 282.35 223.92 288.12 217.1C295.45 208.43 314.12 202.43 306.12 201.77C298.12 201.11 247.45 199.1 234.12 208.44C220.79 217.77 214.12 217.11 204.12 219.11C194.12 221.08 168.79 215.08 178.79 204.42Z" fill="url(#paint25_radial)"/>
<path d="M318.73 217.97C322.01 217.01 325.09 215.99 327.42 215.61C345.13 212.74 363.09 214.18 380.52 218.15C422.9 227.79 462.26 249.11 502.12 265.75C564.69 291.88 603.42 217.02 605.89 162.39C606.04 162.41 606.12 162.41 606.12 162.41C606.79 166.41 606.12 195.74 600.12 215.08C594.12 234.41 590.79 243.08 584.79 247.08C578.79 251.08 586.12 235.08 580.79 243.75C575.46 252.42 562.12 269.75 551.46 272.42C540.79 275.09 546.79 282.42 537.46 281.75C528.13 281.08 499.46 281.75 489.46 268.42C479.46 255.09 412.79 231.09 393.46 225.09C375.99 219.66 334.05 216.97 318.73 217.97Z" fill="url(#paint26_radial)"/>
<path d="M582.57 325.18C582.18 325.4 581.81 325.59 581.45 325.76C560.78 335.09 575.45 301.09 586.12 288.43C596.79 275.76 597.45 263.76 615.45 242.43C630.83 224.21 629.65 192.87 630.24 185.35C631.47 186.5 632.12 188.76 632.12 188.76C638.12 256.76 576.12 303.76 578.12 317.76C578.59 321.07 580.09 323.77 582.57 325.18Z" fill="url(#paint27_radial)"/>
<path d="M206.79 87.08C216.79 82.41 237.46 84.41 248.12 83.08C251.9 82.61 257.01 78.16 262.65 72.48C259.74 77.83 256.93 82.56 254.12 84.75C245.12 91.75 236.12 85.75 214.12 87.75C192.12 89.75 202.12 105.75 179.12 87.75C156.12 69.75 156.12 82.75 132.12 82.75C119.45 82.75 113.49 74.4 114.05 65.19C117.21 68.33 120.88 71.87 124.79 75.09C136.12 84.42 144.79 68.42 160.12 64.42C175.45 60.42 180.12 83.09 188.12 88.42C196.12 93.75 196.79 91.75 206.79 87.08Z" fill="url(#paint28_radial)"/>
<path d="M345.12 78.75C338.12 89.75 319.12 116.75 310.12 82.75C301.75 51.15 296.84 52.37 286.55 49.49C289.22 47.61 291.77 46.25 294.12 45.75C308.21 42.72 314.12 89.75 320.79 95.75C327.46 101.75 342.12 75.75 348.12 69.08C354.12 62.41 358.79 73.08 360.79 73.08C360.79 73.08 360.42 73.64 359.75 74.65C353.67 74.34 350.18 70.8 345.12 78.75Z" fill="url(#paint29_radial)"/>
<path d="M150.79 261.75C146.002 261.75 142.12 257.868 142.12 253.08C142.12 248.292 146.002 244.41 150.79 244.41C155.578 244.41 159.46 248.292 159.46 253.08C159.46 257.868 155.578 261.75 150.79 261.75Z" fill="url(#paint30_linear)"/>
<path d="M145.79 285.75C143.763 285.75 142.12 284.107 142.12 282.08C142.12 280.053 143.763 278.41 145.79 278.41C147.817 278.41 149.46 280.053 149.46 282.08C149.46 284.107 147.817 285.75 145.79 285.75Z" fill="url(#paint31_linear)"/>
<path d="M178.12 270.75C178.12 275.35 181.85 279.08 186.45 279.08C191.05 279.08 194.78 275.35 194.78 270.75C194.78 266.15 191.05 262.42 186.45 262.42C181.85 262.42 178.12 266.15 178.12 270.75Z" fill="url(#paint32_linear)"/>
<path d="M157.45 303.42C157.45 305.44 159.09 307.09 161.12 307.09C163.15 307.09 164.79 305.45 164.79 303.42C164.79 301.39 163.15 299.75 161.12 299.75C159.09 299.75 157.45 301.39 157.45 303.42Z" fill="url(#paint33_linear)"/>
<path d="M123.79 226.42C122.133 226.42 120.79 225.077 120.79 223.42C120.79 221.763 122.133 220.42 123.79 220.42C125.447 220.42 126.79 221.763 126.79 223.42C126.79 225.077 125.447 226.42 123.79 226.42Z" fill="url(#paint34_linear)"/>
<path d="M195.45 203.08C195.45 207.13 198.73 210.41 202.78 210.41C206.83 210.41 210.11 207.13 210.11 203.08C210.11 199.03 206.83 195.75 202.78 195.75C198.73 195.75 195.45 199.03 195.45 203.08Z" fill="url(#paint35_linear)"/>
<path d="M180.45 219.75C178.423 219.75 176.78 218.107 176.78 216.08C176.78 214.053 178.423 212.41 180.45 212.41C182.477 212.41 184.12 214.053 184.12 216.08C184.12 218.107 182.477 219.75 180.45 219.75Z" fill="url(#paint36_linear)"/>
<path d="M274.79 281.75C274.79 286.54 278.67 290.42 283.46 290.42C288.25 290.42 292.13 286.54 292.13 281.75C292.13 276.96 288.25 273.08 283.46 273.08C278.67 273.08 274.79 276.96 274.79 281.75Z" fill="url(#paint37_linear)"/>
<path d="M290.79 297.75C290.79 299.22 291.98 300.42 293.46 300.42C294.93 300.42 296.13 299.23 296.13 297.75C296.13 296.27 294.94 295.08 293.46 295.08C291.98 295.08 290.79 296.28 290.79 297.75Z" fill="url(#paint38_linear)"/>
<path d="M329.12 303.75C325.254 303.75 322.12 300.616 322.12 296.75C322.12 292.884 325.254 289.75 329.12 289.75C332.986 289.75 336.12 292.884 336.12 296.75C336.12 300.616 332.986 303.75 329.12 303.75Z" fill="url(#paint39_linear)"/>
<path d="M306.79 262.08C306.79 264.47 308.73 266.41 311.12 266.41C313.51 266.41 315.45 264.47 315.45 262.08C315.45 259.69 313.51 257.75 311.12 257.75C308.73 257.75 306.79 259.69 306.79 262.08Z" fill="url(#paint40_linear)"/>
<path d="M506.12 377.75C499.493 377.75 494.12 372.377 494.12 365.75C494.12 359.123 499.493 353.75 506.12 353.75C512.747 353.75 518.12 359.123 518.12 365.75C518.12 372.377 512.747 377.75 506.12 377.75Z" fill="url(#paint41_linear)"/>
<path d="M479.62 366.75C477.687 366.75 476.12 365.183 476.12 363.25C476.12 361.317 477.687 359.75 479.62 359.75C481.553 359.75 483.12 361.317 483.12 363.25C483.12 365.183 481.553 366.75 479.62 366.75Z" fill="url(#paint42_linear)"/>
<path d="M516.12 88.75C511.702 88.75 508.12 85.1683 508.12 80.75C508.12 76.3318 511.702 72.75 516.12 72.75C520.538 72.75 524.12 76.3318 524.12 80.75C524.12 85.1683 520.538 88.75 516.12 88.75Z" fill="url(#paint43_linear)"/>
<path d="M494.62 97.75C492.687 97.75 491.12 96.183 491.12 94.25C491.12 92.317 492.687 90.75 494.62 90.75C496.553 90.75 498.12 92.317 498.12 94.25C498.12 96.183 496.553 97.75 494.62 97.75Z" fill="url(#paint44_linear)"/>
<path d="M561.62 59.75C556.373 59.75 552.12 55.4967 552.12 50.25C552.12 45.0033 556.373 40.75 561.62 40.75C566.867 40.75 571.12 45.0033 571.12 50.25C571.12 55.4967 566.867 59.75 561.62 59.75Z" fill="url(#paint45_linear)"/>
<path d="M536.12 50.75C533.911 50.75 532.12 48.9592 532.12 46.75C532.12 44.5409 533.911 42.75 536.12 42.75C538.329 42.75 540.12 44.5409 540.12 46.75C540.12 48.9592 538.329 50.75 536.12 50.75Z" fill="url(#paint46_linear)"/>
<path d="M676.12 342.75C669.493 342.75 664.12 337.377 664.12 330.75C664.12 324.123 669.493 318.75 676.12 318.75C682.747 318.75 688.12 324.123 688.12 330.75C688.12 337.377 682.747 342.75 676.12 342.75Z" fill="url(#paint47_linear)"/>
<path d="M649.12 358.75C646.911 358.75 645.12 356.959 645.12 354.75C645.12 352.541 646.911 350.75 649.12 350.75C651.329 350.75 653.12 352.541 653.12 354.75C653.12 356.959 651.329 358.75 649.12 358.75Z" fill="url(#paint48_linear)"/>
<path d="M226.62 80.75C222.478 80.75 219.12 77.3922 219.12 73.25C219.12 69.1079 222.478 65.75 226.62 65.75C230.762 65.75 234.12 69.1079 234.12 73.25C234.12 77.3922 230.762 80.75 226.62 80.75Z" fill="url(#paint49_linear)"/>
<path d="M207.12 83.75C204.911 83.75 203.12 81.9592 203.12 79.75C203.12 77.5409 204.911 75.75 207.12 75.75C209.329 75.75 211.12 77.5409 211.12 79.75C211.12 81.9592 209.329 83.75 207.12 83.75Z" fill="url(#paint50_linear)"/>
<path d="M570.09 161.12C579.53 162.54 570.31 152.51 576.11 149.67C577.93 148.78 581.26 153.42 584.32 151.28C585.99 150.11 586 146.16 586.12 144.42C586.49 139.29 585.44 131.84 581.93 127.89C579.29 124.92 575.37 124.14 573.08 125.7C573.23 124.75 573.45 123.93 573.72 123.22C574.9 122.29 576.78 122.01 579.72 122.68C586.53 122.75 590.99 128.79 593.36 134.74C597.08 144.06 595.26 148.01 590.12 152.76C589.2 153.61 584.89 154.58 583.32 155.71C580.91 157.45 581.21 161.72 578.12 163.56C573.75 166.16 565.22 165.55 561.13 162.56C560.72 162.26 560.31 161.88 559.91 161.45C559.43 153.02 566.78 160.62 570.09 161.12Z" fill="url(#paint51_radial)"/>
<path d="M557.03 157.03C555.43 153.59 554.69 149.49 556.07 146.75C559.33 140.29 564.5 145.99 569.11 142.77C573.56 139.66 570.81 130.75 572.18 125.77C572.73 128.54 575.4 132.55 576.64 133.88C578.66 136.04 585.1 142.42 580.63 144.79C576.93 146.76 575.19 141.37 572.59 147.23C570.94 150.95 574.36 154.89 573.14 158.25C571.04 164.05 561.91 162.25 557.03 157.03Z" fill="url(#paint52_linear)"/>
<path d="M576.17 123.33C577.15 124.05 576.2 124.04 576.12 124.75L573.08 123.88C573.36 123.52 573.7 123.21 574.11 122.96C574.66 122.97 575.33 123.08 576.17 123.33Z" fill="url(#paint53_linear)"/>
<path d="M691.39 118.92C691.41 131.22 689.99 143.75 687.46 155.76C686.44 139.45 682.84 122.74 674.02 108.77C668.85 100.59 650.66 92.28 657.1 82.02C659.56 91.81 672.43 94.95 677.63 102.93C680.69 107.61 680.83 114.68 682.95 119.93C685.97 127.41 692.11 131.85 690.8 120.43L691.39 118.92Z" fill="url(#paint54_linear)"/>
<path d="M716.79 194.42C713.58 191.44 711.16 190.82 709.36 191.3C709.8 189.07 711.38 187.36 715.04 186.67C722.25 185.32 725.97 196.6 725.73 202.34C725.49 207.96 722.63 213.51 719.91 218.3C715.76 225.61 710.58 232.55 704.91 238.75C704.92 238.76 726.12 203.08 716.79 194.42Z" fill="url(#paint55_radial)"/>
<path d="M225 227.12C225 227.12 214.92 217.92 209.89 223.08C204.86 228.24 185.47 238.45 186.21 247.53C186.95 256.61 208.58 280.17 215.58 281.89C222.58 283.6 229.21 287.28 234.49 282.98C239.77 278.68 258.54 263.07 254.98 260.37C251.42 257.67 244.32 238.32 238.55 234.39C232.78 230.47 225 227.12 225 227.12Z" fill="url(#paint56_radial)"/>
<path d="M218.86 280.33C220 275.66 232.92 260.18 237.87 259.07C242.82 257.96 241.51 259.89 249.46 263.81C250.9 264.52 252.22 264.97 253.43 265.24C254.48 263.88 255.18 262.7 255.37 261.8C250.63 260.14 244.69 257.86 242.62 256.16C238.97 253.17 237.09 250.92 233.65 245.4C230.21 239.88 218.78 231.38 227.09 231.16C229.84 231.09 232.88 231.31 235.49 231.44C230.34 228.95 225 227.11 225 227.11C225 227.11 219.47 222.07 214.56 221.55C214.55 221.71 214.54 221.87 214.55 222.05C214.64 223.24 221.11 234.12 225.41 239.39C229.71 244.67 232.17 246.75 232.91 251.5C233.65 256.25 212.92 275.83 212.92 275.83C212.92 275.83 202.99 268.99 194.05 262.01C201.18 271.26 211.23 280.81 215.59 281.88C216.97 282.22 218.34 282.63 219.68 283.05C219.03 282.23 218.62 281.31 218.86 280.33Z" fill="url(#paint57_radial)"/>
<path d="M186.28 247.98C200.45 245.2 214.65 242.55 228.98 240.71C228.14 239.57 227.18 238.46 226.08 237.35C225.55 236.82 225.21 236.24 225.02 235.65C225.01 235.63 225 235.62 224.99 235.6C217.47 236.81 197.95 239.98 187.37 242.94C186.54 244.48 186.1 246.02 186.23 247.52C186.23 247.68 186.26 247.83 186.28 247.98Z" fill="url(#paint58_radial)"/>
<path d="M233.4 254.08C233.33 250.45 232.61 247.23 231.13 244.22C230.77 244.92 230.11 245.47 229.15 245.59C215.31 247.36 201.6 249.93 187.92 252.62C189.62 256.03 192.44 260.09 195.69 264.08C204.68 261.84 222.94 257.25 233.4 254.08Z" fill="url(#paint59_radial)"/>
<path d="M458.95 176.92C457.45 174.92 386.45 1.42003 386.45 1.42003C386.45 1.42003 382.45 -2.07997 380.95 1.92003C379.45 5.92003 458.95 176.92 458.95 176.92Z" fill="#E2DEE6"/>
<path d="M397.48 109.65C406.18 126.09 424.7 133.34 438.86 125.85C453.02 118.36 457.44 98.97 448.75 82.53C440.06 66.09 421.53 58.84 407.37 66.33C393.22 73.82 388.79 93.21 397.48 109.65Z" fill="url(#paint60_linear)"/>
<path opacity="0.5" d="M425.79 123.08C445.4 127.66 451.26 109.78 453.18 101.45C452.77 111.81 447.72 121.15 438.87 125.84C424.71 133.33 406.19 126.08 397.49 109.64C391.06 97.48 391.81 83.7 398.38 74.32C393.25 92.83 402.55 117.65 425.79 123.08Z" fill="#00F096"/>
<path d="M423.17 118.47C424.26 123.6 429.83 126.77 435.6 125.54C441.37 124.31 445.17 119.16 444.08 114.02C442.99 108.89 437.42 105.72 431.65 106.95C425.87 108.19 422.07 113.34 423.17 118.47Z" fill="#D129BE"/>
<path d="M433.64 108.62C436.7 107.97 439.69 108.56 442 110.01C443.01 111.13 443.75 112.48 444.07 114.02C445.16 119.15 441.36 124.31 435.59 125.54C432.53 126.19 429.54 125.6 427.23 124.15C426.22 123.03 425.48 121.68 425.16 120.14C424.07 115.01 427.87 109.85 433.64 108.62Z" fill="#EC46BE"/>
<path d="M432.95 115.24C436.07 118.51 439.61 130.82 440.72 133.5C443.29 139.71 445.86 145.92 448.44 152.13C451.59 159.71 454.55 167.44 458.01 174.89C454.54 167.41 451.08 159.93 447.62 152.45C444.79 146.33 441.97 140.2 439.15 134.07C436.53 128.38 431.06 120.76 431.5 114.45C431.97 114.43 432.45 114.72 432.95 115.24Z" fill="#E2DEE6"/>
<path opacity="0.5" d="M425.12 73.75C423.463 73.75 422.12 72.4069 422.12 70.75C422.12 69.0932 423.463 67.75 425.12 67.75C426.777 67.75 428.12 69.0932 428.12 70.75C428.12 72.4069 426.777 73.75 425.12 73.75Z" fill="#FFFF79"/>
<path opacity="0.5" d="M426.12 83.92C426.12 88.8 430.08 92.75 434.95 92.75C439.83 92.75 443.78 88.8 443.78 83.92C443.78 79.04 439.82 75.09 434.95 75.09C430.07 75.08 426.12 79.04 426.12 83.92Z" fill="#FFFF79"/>
<g opacity="0.5">
<path opacity="0.5" d="M11.7799 493.69C33.7499 467.68 95.56 394.36 97.62 390.26C100.12 385.26 96.68 375.84 96.68 375.84C102.24 385.42 120.62 394.76 120.62 394.76L118.62 396.26C116.62 393.76 104.12 396.76 104.12 396.76L26.56 497.98L11.7799 493.69Z" fill="url(#paint61_radial)"/>
<path opacity="0.5" d="M11.7799 493.69C33.7499 467.68 95.56 394.36 97.62 390.26C100.12 385.26 96.68 375.84 96.68 375.84C102.24 385.42 120.62 394.76 120.62 394.76L118.62 396.26C116.62 393.76 104.12 396.76 104.12 396.76L26.56 497.98L11.7799 493.69Z" fill="url(#paint62_radial)"/>
<path opacity="0.5" d="M118.12 394.25C118.12 394.25 120.62 394.75 128.62 391.25C136.62 387.75 133.17 378.14 134.53 379.47C137.83 384.62 138.79 389.48 136.58 392.57C134.22 395.85 128.8 396.36 122.34 394.5L36.12 500.75L32.55 499.71L118.12 394.25Z" fill="url(#paint63_radial)"/>
<path opacity="0.5" d="M94.33 362.26C96.4 359.38 100.84 358.64 106.27 359.76C106.27 359.76 95.13 362.75 99.63 378.25L7.90995 492.56L5.12998 491.75L96.69 375.83C93.14 370.51 92.05 365.44 94.33 362.26Z" fill="url(#paint64_radial)"/>
</g>
<path opacity="0.3" d="M328.21 332.47C328.25 332.5 328.31 332.53 328.39 332.58C328.41 332.59 328.44 332.61 328.46 332.62C328.53 332.66 328.61 332.71 328.7 332.77C328.73 332.79 328.75 332.8 328.78 332.82C328.89 332.89 329.02 332.97 329.15 333.06C329.2 333.09 329.24 333.12 329.29 333.15C329.43 333.24 329.59 333.34 329.75 333.44C329.8 333.47 329.86 333.51 329.91 333.54C330.05 333.63 330.19 333.72 330.35 333.82C330.41 333.86 330.48 333.9 330.54 333.95C330.73 334.08 330.94 334.21 331.15 334.35C331.23 334.4 331.3 334.45 331.38 334.5C331.58 334.63 331.79 334.77 332.01 334.92C332.07 334.96 332.14 335 332.2 335.04C332.42 335.19 332.65 335.34 332.89 335.5C332.97 335.56 333.06 335.61 333.14 335.67C333.4 335.84 333.67 336.02 333.94 336.21C334.02 336.27 334.11 336.33 334.2 336.39C334.43 336.55 334.66 336.71 334.9 336.87C334.98 336.93 335.06 336.98 335.14 337.04C335.43 337.24 335.72 337.44 336.01 337.65C336.11 337.72 336.21 337.79 336.31 337.86C336.61 338.07 336.91 338.29 337.22 338.51C337.3 338.57 337.38 338.63 337.46 338.68C337.72 338.87 337.98 339.06 338.24 339.25C338.33 339.32 338.43 339.39 338.52 339.46C338.83 339.69 339.14 339.92 339.45 340.16C339.55 340.24 339.65 340.31 339.75 340.39C340.06 340.62 340.36 340.85 340.67 341.09C340.7 341.11 340.73 341.13 340.75 341.15C340.11 344.49 339.08 347.87 337.61 351.27L161.11 366.27C161.11 366.27 117.11 364.27 111.11 329.27C110.94 328.27 110.78 327.27 110.62 326.27C106.64 300.69 105.04 274.66 103.15 248.87C102.21 236 101.34 223.12 100.53 210.24C99.9699 201.41 95.88 180.33 110.12 181.27C111.53 181.36 112.75 181.75 113.91 182.3C119.42 186.02 135.33 197.1 156.16 211.67C156.17 211.67 156.17 211.68 156.18 211.68C165.9 218.48 175.62 225.29 185.33 232.1C185.5 232.22 185.68 232.35 185.86 232.47C207.39 247.56 228.9 262.67 250.41 277.79C276.32 296 302.23 314.22 328.13 332.45C328.13 332.45 328.16 332.47 328.19 332.49C328.19 332.46 328.2 332.46 328.21 332.47Z" fill="#00A5F2"/>
<path opacity="0.5" d="M325.71 335.47C325.75 335.5 325.81 335.53 325.89 335.58C325.91 335.59 325.94 335.61 325.96 335.62C326.03 335.66 326.11 335.71 326.2 335.77C326.23 335.79 326.25 335.8 326.28 335.82C326.39 335.89 326.52 335.97 326.65 336.06C326.7 336.09 326.74 336.12 326.79 336.15C326.93 336.24 327.09 336.34 327.25 336.44C327.3 336.47 327.36 336.51 327.41 336.54C327.55 336.63 327.69 336.72 327.85 336.82C327.91 336.86 327.98 336.9 328.04 336.95C328.23 337.08 328.44 337.21 328.65 337.35C328.73 337.4 328.8 337.45 328.88 337.5C329.08 337.63 329.29 337.77 329.51 337.92C329.57 337.96 329.64 338 329.7 338.04C329.92 338.19 330.15 338.34 330.39 338.5C330.47 338.56 330.56 338.61 330.64 338.67C330.9 338.84 331.17 339.02 331.44 339.21C331.52 339.27 331.61 339.33 331.7 339.39C331.93 339.55 332.16 339.71 332.4 339.87C332.48 339.93 332.56 339.98 332.64 340.04C332.93 340.24 333.22 340.44 333.51 340.65C333.61 340.72 333.71 340.79 333.81 340.86C334.11 341.07 334.41 341.29 334.72 341.51C334.8 341.57 334.88 341.63 334.96 341.68C335.22 341.87 335.48 342.06 335.74 342.25C335.83 342.32 335.93 342.39 336.02 342.46C336.33 342.69 336.64 342.92 336.95 343.16C337.05 343.24 337.15 343.31 337.25 343.39C337.56 343.62 337.86 343.85 338.17 344.09C338.2 344.11 338.23 344.13 338.25 344.15C337.61 347.49 336.58 350.87 335.11 354.27L158.61 369.27C158.61 369.27 114.61 367.27 108.61 332.27C108.44 331.27 108.28 330.27 108.12 329.27C104.14 303.69 102.54 277.66 100.65 251.87C99.7099 239 98.8399 226.12 98.0299 213.24C97.4699 204.41 93.38 183.33 107.62 184.27C109.03 184.36 110.25 184.75 111.41 185.3C116.92 189.02 132.83 200.1 153.66 214.67C153.67 214.67 153.67 214.68 153.68 214.68C163.4 221.48 173.12 228.29 182.83 235.1C183 235.22 183.18 235.35 183.36 235.47C204.89 250.56 226.4 265.67 247.91 280.79C273.82 299 299.73 317.22 325.63 335.45C325.63 335.45 325.66 335.47 325.69 335.49C325.69 335.46 325.7 335.46 325.71 335.47Z" fill="url(#paint65_radial)"/>
<path opacity="0.2" d="M94.12 182.25C92.73 183.64 90.4699 186.76 88.3999 189.5C87.8699 182.78 87.79 175.03 91.29 172.99C97.59 169.32 108.28 178.52 113.12 181.75C131.12 193.75 328.12 332.42 328.12 332.42C328.12 332.42 366.97 356.02 346.12 358.75C345.41 358.84 344.61 358.94 343.71 359.05C343.76 356.09 341.03 351.82 332.12 345.75C308.62 329.75 97.12 179.25 94.12 182.25Z" fill="white"/>
<path d="M91.29 172.99C97.59 169.32 108.28 178.52 113.12 181.75C131.12 193.75 328.12 332.42 328.12 332.42C328.12 332.42 328.42 332.6 328.95 332.93C329.78 333.51 330.22 333.82 330.22 333.82C330.22 333.82 331.73 334.74 334 336.23C342.52 342.04 356.7 352.87 350.93 357.17C350.33 354.17 347.18 350.08 339.03 344.53C314.67 327.94 95.4499 171.89 92.3399 175C91.5499 175.79 90.49 177.12 89.35 178.62C89.02 178.46 88.76 178.35 88.52 178.25C88.94 175.81 89.7799 173.87 91.29 172.99Z" fill="white"/>
<path d="M134.79 380.25C122.56 378.64 111.33 370.6 105.65 359.66C105.86 359.7 106.05 359.72 106.26 359.76C106.01 357.34 105.77 354.91 105.52 352.49C105.83 352.65 106.09 352.93 106.23 353.36C110.15 365.66 121.96 375.57 134.78 377.26C135.61 377.37 136.08 378.01 136.18 378.66C135.48 378.72 135.11 378.76 135.11 378.76L134.52 379.48C134.69 379.74 134.85 380 135 380.26C134.94 380.26 134.87 380.26 134.79 380.25Z" fill="#00A5F2"/>
<path opacity="0.5" d="M123.62 377.06L282.62 303.75L327.12 336.75C323.83 338.16 145.12 373.24 124.13 377.36C123.96 377.26 123.79 377.16 123.62 377.06Z" fill="url(#paint66_radial)"/>
<path opacity="0.5" d="M123.26 376.62C134.55 364.65 223.12 261.25 223.12 261.25L256.12 284.75C253.79 289.41 137.08 367.57 123.41 376.86C123.36 376.78 123.31 376.7 123.26 376.62Z" fill="url(#paint67_radial)"/>
<path opacity="0.5" d="M91.29 172.99C97.59 169.32 108.28 178.52 113.12 181.75C116.07 183.71 123.82 189.08 134.71 196.67C134.85 198.12 134.88 199.59 134.78 201.08L107.45 191.08L106.84 357.79L105.91 356.24C105.35 350.71 104.78 345.18 104.22 339.65C101.21 310.08 98.2 280.51 95.19 250.93C93.39 233.3 89.92 215.94 89.17 198.19C88.92 192.39 85.97 176.09 91.29 172.99Z" fill="url(#paint68_radial)"/>
<path d="M94.6499 172.14C93.4399 172.14 92.3099 172.4 91.29 172.99C85.9699 176.09 88.92 192.39 89.1599 198.19C89.9099 215.94 93.38 233.31 95.18 250.93C98.19 280.5 101.2 310.07 104.21 339.65C104.89 346.35 105.58 353.06 106.26 359.76C104.66 359.43 103.15 359.26 101.75 359.26C98.42 359.26 95.78 360.23 94.32 362.26C92.04 365.44 93.13 370.51 96.68 375.83L5.11998 491.75L36.12 500.75L122.34 394.5C124.8 395.21 127.1 395.58 129.15 395.58C132.48 395.58 135.12 394.61 136.58 392.58C138.79 389.5 137.83 384.63 134.53 379.48L135.12 378.76C135.12 378.76 318.12 362.43 346.12 358.76C366.97 356.03 328.12 332.43 328.12 332.43C328.12 332.43 131.12 193.76 113.12 181.76C109.06 179.05 100.89 172.14 94.6499 172.14ZM94.6499 169.14C100.73 169.14 107.41 173.96 112.29 177.49C113.26 178.19 114.1 178.8 114.79 179.26C132.48 191.05 324.87 326.46 329.77 329.91C330.6 330.42 336.63 334.14 342.58 338.74C352.2 346.18 356.08 351.48 355.14 355.91C354.47 359.1 351.56 361.06 346.51 361.72C320.96 365.07 164.92 379.09 139.01 381.41C141.32 386.47 141.36 391.05 139.01 394.32C137.62 396.26 134.78 398.57 129.14 398.57C127.37 398.57 125.46 398.34 123.44 397.88L38.43 502.64L37.18 504.19L35.27 503.63L4.27 494.63L-0.0100277 493.39L2.74998 489.89L93.01 375.62C89.62 369.69 89.18 364.26 91.87 360.51C93.26 358.57 96.1 356.26 101.74 356.26C102.11 356.26 102.49 356.27 102.88 356.29L101.93 346.97L101.22 339.95L96.7 295.59L92.18 251.23C91.5 244.56 90.5599 237.79 89.6499 231.25C88.1599 220.53 86.6199 209.44 86.1499 198.31C86.1099 197.27 85.96 195.8 85.79 194.09C84.71 183.02 84.25 173.6 89.76 170.39C91.21 169.56 92.85 169.14 94.6499 169.14Z" fill="#00A5F2"/>
<path d="M137.29 391.06C137.29 391.06 132.14 394.86 113.64 381.64C95.14 368.42 96.61 361.48 96.61 361.48C96.61 361.48 84.79 371.76 110.79 387.09C129.43 398.08 134.63 394.96 137.29 391.06Z" fill="url(#paint69_radial)"/>
</g>
<defs>
<radialGradient id="paint0_radial" cx="0" cy="0" r="1" gradientUnits="userSpaceOnUse" gradientTransform="translate(514.01 250.101) rotate(180) scale(36.3158)">
<stop offset="0.0279" stop-color="white" stop-opacity="0.6"/>
<stop offset="1" stop-color="white" stop-opacity="0.6"/>
</radialGradient>
<radialGradient id="paint1_radial" cx="0" cy="0" r="1" gradientUnits="userSpaceOnUse" gradientTransform="translate(516.393 248.158) rotate(180) scale(33.7199)">
<stop offset="0.0279" stop-color="white" stop-opacity="0.6"/>
<stop offset="1" stop-color="white" stop-opacity="0.6"/>
</radialGradient>
<radialGradient id="paint2_radial" cx="0" cy="0" r="1" gradientUnits="userSpaceOnUse" gradientTransform="translate(522.588 256.238) rotate(180) scale(22.7727)">
<stop offset="0.0279" stop-color="white" stop-opacity="0.6"/>
<stop offset="1" stop-color="white" stop-opacity="0.6"/>
</radialGradient>
<radialGradient id="paint3_radial" cx="0" cy="0" r="1" gradientUnits="userSpaceOnUse" gradientTransform="translate(522.587 256.238) rotate(180) scale(22.7719)">
<stop offset="0.0279" stop-color="white" stop-opacity="0.6"/>
<stop offset="1" stop-color="white" stop-opacity="0.6"/>
</radialGradient>
<radialGradient id="paint4_radial" cx="0" cy="0" r="1" gradientUnits="userSpaceOnUse" gradientTransform="translate(433.913 264.838) rotate(143.221) scale(36.3158)">
<stop offset="0.0279" stop-color="white" stop-opacity="0.6"/>
<stop offset="1" stop-color="white" stop-opacity="0.6"/>
</radialGradient>
<radialGradient id="paint5_radial" cx="0" cy="0" r="1" gradientUnits="userSpaceOnUse" gradientTransform="translate(434.66 261.855) rotate(143.221) scale(33.7198)">
<stop offset="0.0279" stop-color="white" stop-opacity="0.6"/>
<stop offset="1" stop-color="white" stop-opacity="0.6"/>
</radialGradient>
<radialGradient id="paint6_radial" cx="0" cy="0" r="1" gradientUnits="userSpaceOnUse" gradientTransform="translate(444.459 264.617) rotate(143.221) scale(22.773)">
<stop offset="0.0279" stop-color="white" stop-opacity="0.6"/>
<stop offset="1" stop-color="white" stop-opacity="0.6"/>
</radialGradient>
<radialGradient id="paint7_radial" cx="0" cy="0" r="1" gradientUnits="userSpaceOnUse" gradientTransform="translate(444.458 264.618) rotate(143.221) scale(22.7717)">
<stop offset="0.0279" stop-color="white" stop-opacity="0.6"/>
<stop offset="1" stop-color="white" stop-opacity="0.6"/>
</radialGradient>
<linearGradient id="paint8_linear" x1="542.319" y1="33.3648" x2="191.748" y2="399.379" gradientUnits="userSpaceOnUse">
<stop offset="0.00278549" stop-color="#FE31AC"/>
<stop offset="0.9833" stop-color="#00A6EF"/>
</linearGradient>
<linearGradient id="paint9_linear" x1="678.138" y1="233.209" x2="129.184" y2="233.209" gradientUnits="userSpaceOnUse">
<stop offset="0.0167" stop-color="#00A6EF"/>
<stop offset="0.9972" stop-color="#FE9DEF"/>
</linearGradient>
<linearGradient id="paint10_linear" x1="646.791" y1="145.285" x2="306.306" y2="500.768" gradientUnits="userSpaceOnUse">
<stop offset="0.00278549" stop-color="#FE31AC"/>
<stop offset="0.9833" stop-color="#00A6EF"/>
</linearGradient>
<linearGradient id="paint11_linear" x1="646.791" y1="145.285" x2="306.306" y2="500.768" gradientUnits="userSpaceOnUse">
<stop offset="0.00278549" stop-color="#FE31AC"/>
<stop offset="0.9833" stop-color="#00A6EF"/>
</linearGradient>
<radialGradient id="paint12_radial" cx="0" cy="0" r="1" gradientUnits="userSpaceOnUse" gradientTransform="translate(682.121 49.751) rotate(180) scale(86.7304)">
<stop offset="0.0167" stop-color="white"/>
<stop offset="0.8663" stop-color="white" stop-opacity="0"/>
</radialGradient>
<linearGradient id="paint13_linear" x1="712.797" y1="208.506" x2="372.317" y2="563.986" gradientUnits="userSpaceOnUse">
<stop offset="0.00278549" stop-color="#FE31AC"/>
<stop offset="0.9833" stop-color="#00A6EF"/>
</linearGradient>
<linearGradient id="paint14_linear" x1="609.321" y1="109.397" x2="268.84" y2="464.877" gradientUnits="userSpaceOnUse">
<stop offset="0.00278549" stop-color="#FE31AC"/>
<stop offset="0.9833" stop-color="#00A6EF"/>
</linearGradient>
<linearGradient id="paint15_linear" x1="340.211" y1="-49.611" x2="66.0484" y2="236.629" gradientUnits="userSpaceOnUse">
<stop offset="0.00278549" stop-color="#FE31AC"/>
<stop offset="0.9833" stop-color="#00A6EF"/>
</linearGradient>
<linearGradient id="paint16_linear" x1="501.858" y1="6.45486" x2="161.362" y2="361.95" gradientUnits="userSpaceOnUse">
<stop offset="0.00278549" stop-color="#FE31AC"/>
<stop offset="0.9833" stop-color="#00A6EF"/>
</linearGradient>
<radialGradient id="paint17_radial" cx="0" cy="0" r="1" gradientUnits="userSpaceOnUse" gradientTransform="translate(338.118 161.75) rotate(180) scale(58.1375)">
<stop offset="0.0167" stop-color="white"/>
<stop offset="0.8663" stop-color="white" stop-opacity="0"/>
</radialGradient>
<linearGradient id="paint18_linear" x1="396.776" y1="-96.1838" x2="56.2902" y2="259.301" gradientUnits="userSpaceOnUse">
<stop offset="0.00278549" stop-color="#FE31AC"/>
<stop offset="0.9833" stop-color="#00A6EF"/>
</linearGradient>
<linearGradient id="paint19_linear" x1="345.455" y1="-143.343" x2="4.96907" y2="212.142" gradientUnits="userSpaceOnUse">
<stop offset="0.00278549" stop-color="#FE31AC"/>
<stop offset="0.9833" stop-color="#00A6EF"/>
</linearGradient>
<linearGradient id="paint20_linear" x1="280.54" y1="-79.0988" x2="35.65" y2="176.579" gradientUnits="userSpaceOnUse">
<stop offset="0.0167" stop-color="#00A6EF"/>
<stop offset="0.9972" stop-color="#FE9DEF"/>
</linearGradient>
<linearGradient id="paint21_linear" x1="611.936" y1="63.6035" x2="264.817" y2="63.6035" gradientUnits="userSpaceOnUse">
<stop offset="0.0167" stop-color="#00A6EF"/>
<stop offset="0.9972" stop-color="#FE9DEF"/>
</linearGradient>
<linearGradient id="paint22_linear" x1="251.383" y1="63.4883" x2="114.004" y2="63.4883" gradientUnits="userSpaceOnUse">
<stop offset="0.0167" stop-color="#00A6EF"/>
<stop offset="0.9972" stop-color="#FE9DEF"/>
</linearGradient>
<radialGradient id="paint23_radial" cx="0" cy="0" r="1" gradientUnits="userSpaceOnUse" gradientTransform="translate(595.452 79.7505) rotate(180) scale(510.754)">
<stop offset="0.0167" stop-color="white"/>
<stop offset="0.8663" stop-color="white" stop-opacity="0"/>
</radialGradient>
<radialGradient id="paint24_radial" cx="0" cy="0" r="1" gradientUnits="userSpaceOnUse" gradientTransform="translate(187.278 175.036) rotate(180) scale(53.9081)">
<stop offset="0.0167" stop-color="white"/>
<stop offset="0.8663" stop-color="white" stop-opacity="0"/>
</radialGradient>
<radialGradient id="paint25_radial" cx="0" cy="0" r="1" gradientUnits="userSpaceOnUse" gradientTransform="translate(271.897 195.314) rotate(180) scale(133.59)">
<stop offset="0.0167" stop-color="white"/>
<stop offset="0.8663" stop-color="white" stop-opacity="0"/>
</radialGradient>
<radialGradient id="paint26_radial" cx="0" cy="0" r="1" gradientUnits="userSpaceOnUse" gradientTransform="translate(518.874 170.09) rotate(180) scale(309.184)">
<stop offset="0.0167" stop-color="white"/>
<stop offset="0.8663" stop-color="white" stop-opacity="0"/>
</radialGradient>
<radialGradient id="paint27_radial" cx="0" cy="0" r="1" gradientUnits="userSpaceOnUse" gradientTransform="translate(651.453 111.084) rotate(180) scale(294.865)">
<stop offset="0.0167" stop-color="white"/>
<stop offset="0.8663" stop-color="white" stop-opacity="0"/>
</radialGradient>
<radialGradient id="paint28_radial" cx="0" cy="0" r="1" gradientUnits="userSpaceOnUse" gradientTransform="translate(321.452 56.4173) rotate(180) scale(192.899)">
<stop offset="0.0167" stop-color="white"/>
<stop offset="0.8663" stop-color="white" stop-opacity="0"/>
</radialGradient>
<radialGradient id="paint29_radial" cx="0" cy="0" r="1" gradientUnits="userSpaceOnUse" gradientTransform="translate(321.452 56.4166) rotate(180) scale(192.9)">
<stop offset="0.0167" stop-color="white"/>
<stop offset="0.8663" stop-color="white" stop-opacity="0"/>
</radialGradient>
<linearGradient id="paint30_linear" x1="156.395" y1="247.229" x2="145.234" y2="258.882" gradientUnits="userSpaceOnUse">
<stop offset="0.00278549" stop-color="#FE31AC"/>
<stop offset="0.9833" stop-color="#00A6EF"/>
</linearGradient>
<linearGradient id="paint31_linear" x1="148.159" y1="279.607" x2="143.437" y2="284.538" gradientUnits="userSpaceOnUse">
<stop offset="0.00278549" stop-color="#FE31AC"/>
<stop offset="0.9833" stop-color="#00A6EF"/>
</linearGradient>
<linearGradient id="paint32_linear" x1="191.846" y1="265.121" x2="181.114" y2="276.325" gradientUnits="userSpaceOnUse">
<stop offset="0.00278549" stop-color="#FE31AC"/>
<stop offset="0.9833" stop-color="#00A6EF"/>
</linearGradient>
<linearGradient id="paint33_linear" x1="163.493" y1="300.941" x2="158.771" y2="305.871" gradientUnits="userSpaceOnUse">
<stop offset="0.00278549" stop-color="#FE31AC"/>
<stop offset="0.9833" stop-color="#00A6EF"/>
</linearGradient>
<linearGradient id="paint34_linear" x1="125.728" y1="221.391" x2="121.864" y2="225.425" gradientUnits="userSpaceOnUse">
<stop offset="0.00278549" stop-color="#FE31AC"/>
<stop offset="0.9833" stop-color="#00A6EF"/>
</linearGradient>
<linearGradient id="paint35_linear" x1="207.532" y1="198.13" x2="198.089" y2="207.989" gradientUnits="userSpaceOnUse">
<stop offset="0.00278549" stop-color="#FE31AC"/>
<stop offset="0.9833" stop-color="#00A6EF"/>
</linearGradient>
<linearGradient id="paint36_linear" x1="182.825" y1="213.607" x2="178.103" y2="218.538" gradientUnits="userSpaceOnUse">
<stop offset="0.00278549" stop-color="#FE31AC"/>
<stop offset="0.9833" stop-color="#00A6EF"/>
</linearGradient>
<linearGradient id="paint37_linear" x1="289.061" y1="275.896" x2="277.901" y2="287.548" gradientUnits="userSpaceOnUse">
<stop offset="0.00278549" stop-color="#FE31AC"/>
<stop offset="0.9833" stop-color="#00A6EF"/>
</linearGradient>
<linearGradient id="paint38_linear" x1="295.179" y1="295.949" x2="291.745" y2="299.535" gradientUnits="userSpaceOnUse">
<stop offset="0.00278549" stop-color="#FE31AC"/>
<stop offset="0.9833" stop-color="#00A6EF"/>
</linearGradient>
<linearGradient id="paint39_linear" x1="333.649" y1="292.022" x2="324.635" y2="301.434" gradientUnits="userSpaceOnUse">
<stop offset="0.00278549" stop-color="#FE31AC"/>
<stop offset="0.9833" stop-color="#00A6EF"/>
</linearGradient>
<linearGradient id="paint40_linear" x1="313.924" y1="259.157" x2="308.344" y2="264.984" gradientUnits="userSpaceOnUse">
<stop offset="0.00278549" stop-color="#FE31AC"/>
<stop offset="0.9833" stop-color="#00A6EF"/>
</linearGradient>
<linearGradient id="paint41_linear" x1="513.885" y1="357.643" x2="498.432" y2="373.777" gradientUnits="userSpaceOnUse">
<stop offset="0.00278549" stop-color="#FE31AC"/>
<stop offset="0.9833" stop-color="#00A6EF"/>
</linearGradient>
<linearGradient id="paint42_linear" x1="481.884" y1="360.886" x2="477.377" y2="365.592" gradientUnits="userSpaceOnUse">
<stop offset="0.00278549" stop-color="#FE31AC"/>
<stop offset="0.9833" stop-color="#00A6EF"/>
</linearGradient>
<linearGradient id="paint43_linear" x1="521.297" y1="75.3455" x2="510.994" y2="86.1016" gradientUnits="userSpaceOnUse">
<stop offset="0.00278549" stop-color="#FE31AC"/>
<stop offset="0.9833" stop-color="#00A6EF"/>
</linearGradient>
<linearGradient id="paint44_linear" x1="496.884" y1="91.8861" x2="492.377" y2="96.5918" gradientUnits="userSpaceOnUse">
<stop offset="0.00278549" stop-color="#FE31AC"/>
<stop offset="0.9833" stop-color="#00A6EF"/>
</linearGradient>
<linearGradient id="paint45_linear" x1="567.767" y1="43.832" x2="555.533" y2="56.6049" gradientUnits="userSpaceOnUse">
<stop offset="0.00278549" stop-color="#FE31AC"/>
<stop offset="0.9833" stop-color="#00A6EF"/>
</linearGradient>
<linearGradient id="paint46_linear" x1="538.708" y1="44.0482" x2="533.557" y2="49.4262" gradientUnits="userSpaceOnUse">
<stop offset="0.00278549" stop-color="#FE31AC"/>
<stop offset="0.9833" stop-color="#00A6EF"/>
</linearGradient>
<linearGradient id="paint47_linear" x1="683.885" y1="322.643" x2="668.432" y2="338.777" gradientUnits="userSpaceOnUse">
<stop offset="0.00278549" stop-color="#FE31AC"/>
<stop offset="0.9833" stop-color="#00A6EF"/>
</linearGradient>
<linearGradient id="paint48_linear" x1="651.708" y1="352.048" x2="646.557" y2="357.426" gradientUnits="userSpaceOnUse">
<stop offset="0.00278549" stop-color="#FE31AC"/>
<stop offset="0.9833" stop-color="#00A6EF"/>
</linearGradient>
<linearGradient id="paint49_linear" x1="231.473" y1="68.1833" x2="221.815" y2="78.2673" gradientUnits="userSpaceOnUse">
<stop offset="0.00278549" stop-color="#FE31AC"/>
<stop offset="0.9833" stop-color="#00A6EF"/>
</linearGradient>
<linearGradient id="paint50_linear" x1="209.708" y1="77.0482" x2="204.557" y2="82.4262" gradientUnits="userSpaceOnUse">
<stop offset="0.00278549" stop-color="#FE31AC"/>
<stop offset="0.9833" stop-color="#00A6EF"/>
</linearGradient>
<radialGradient id="paint51_radial" cx="0" cy="0" r="1" gradientUnits="userSpaceOnUse" gradientTransform="translate(577.607 143.744) rotate(180) scale(19.6724)">
<stop offset="0.0167" stop-color="white"/>
<stop offset="0.8663" stop-color="white" stop-opacity="0"/>
</radialGradient>
<linearGradient id="paint52_linear" x1="582.177" y1="143.807" x2="555.345" y2="143.807" gradientUnits="userSpaceOnUse">
<stop offset="0.0167" stop-color="#00A6EF"/>
<stop offset="0.9972" stop-color="#FE9DEF"/>
</linearGradient>
<linearGradient id="paint53_linear" x1="576.606" y1="123.857" x2="573.078" y2="123.857" gradientUnits="userSpaceOnUse">
<stop offset="0.0167" stop-color="#00A6EF"/>
<stop offset="0.9972" stop-color="#FE9DEF"/>
</linearGradient>
<linearGradient id="paint54_linear" x1="691.388" y1="118.882" x2="655.724" y2="118.882" gradientUnits="userSpaceOnUse">
<stop offset="0.0167" stop-color="#00A6EF"/>
<stop offset="0.9972" stop-color="#FE9DEF"/>
</linearGradient>
<radialGradient id="paint55_radial" cx="0" cy="0" r="1" gradientUnits="userSpaceOnUse" gradientTransform="translate(715.328 212.66) rotate(180) scale(19.8683)">
<stop offset="0.0167" stop-color="white"/>
<stop offset="0.8663" stop-color="white" stop-opacity="0"/>
</radialGradient>
<radialGradient id="paint56_radial" cx="0" cy="0" r="1" gradientUnits="userSpaceOnUse" gradientTransform="translate(220.518 253.532) rotate(74.0082) scale(32.1859)">
<stop offset="0.0279" stop-color="white" stop-opacity="0.6"/>
<stop offset="1" stop-color="white" stop-opacity="0.6"/>
</radialGradient>
<radialGradient id="paint57_radial" cx="0" cy="0" r="1" gradientUnits="userSpaceOnUse" gradientTransform="translate(221.592 251.027) rotate(74.0082) scale(29.8851)">
<stop offset="0.0279" stop-color="white" stop-opacity="0.6"/>
<stop offset="1" stop-color="white" stop-opacity="0.6"/>
</radialGradient>
<radialGradient id="paint58_radial" cx="0" cy="0" r="1" gradientUnits="userSpaceOnUse" gradientTransform="translate(213.195 247.723) rotate(74.0082) scale(20.183)">
<stop offset="0.0279" stop-color="white" stop-opacity="0.6"/>
<stop offset="1" stop-color="white" stop-opacity="0.6"/>
</radialGradient>
<radialGradient id="paint59_radial" cx="0" cy="0" r="1" gradientUnits="userSpaceOnUse" gradientTransform="translate(213.196 247.724) rotate(74.0082) scale(20.1821)">
<stop offset="0.0279" stop-color="white" stop-opacity="0.6"/>
<stop offset="1" stop-color="white" stop-opacity="0.6"/>
</radialGradient>
<linearGradient id="paint60_linear" x1="453.204" y1="96.0843" x2="393.032" y2="96.0843" gradientUnits="userSpaceOnUse">
<stop offset="0.0167" stop-color="#00EF9A"/>
<stop offset="0.9972" stop-color="#FEFB9D"/>
</linearGradient>
<radialGradient id="paint61_radial" cx="0" cy="0" r="1" gradientUnits="userSpaceOnUse" gradientTransform="translate(124.119 355.251) rotate(180) scale(188.59)">
<stop offset="0.0167" stop-color="white"/>
<stop offset="0.8663" stop-color="white" stop-opacity="0"/>
</radialGradient>
<radialGradient id="paint62_radial" cx="0" cy="0" r="1" gradientUnits="userSpaceOnUse" gradientTransform="translate(66.2014 436.903) rotate(180) scale(57.8409)">
<stop offset="0.0167" stop-color="white"/>
<stop offset="0.8663" stop-color="white" stop-opacity="0"/>
</radialGradient>
<radialGradient id="paint63_radial" cx="0" cy="0" r="1" gradientUnits="userSpaceOnUse" gradientTransform="translate(124.119 355.251) rotate(180) scale(188.59)">
<stop offset="0.0167" stop-color="white"/>
<stop offset="0.8663" stop-color="white" stop-opacity="0"/>
</radialGradient>
<radialGradient id="paint64_radial" cx="0" cy="0" r="1" gradientUnits="userSpaceOnUse" gradientTransform="translate(124.119 355.251) rotate(180) scale(188.59)">
<stop offset="0.0167" stop-color="white"/>
<stop offset="0.8663" stop-color="white" stop-opacity="0"/>
</radialGradient>
<radialGradient id="paint65_radial" cx="0" cy="0" r="1" gradientUnits="userSpaceOnUse" gradientTransform="translate(227.911 214.362) rotate(180) scale(307.107)">
<stop offset="0.0167" stop-color="white"/>
<stop offset="0.8663" stop-color="white" stop-opacity="0"/>
</radialGradient>
<radialGradient id="paint66_radial" cx="0" cy="0" r="1" gradientUnits="userSpaceOnUse" gradientTransform="translate(214.953 232.918) rotate(180) scale(253.197)">
<stop offset="0.0167" stop-color="white"/>
<stop offset="0.8663" stop-color="white" stop-opacity="0"/>
</radialGradient>
<radialGradient id="paint67_radial" cx="0" cy="0" r="1" gradientUnits="userSpaceOnUse" gradientTransform="translate(225.316 287.754) rotate(180) scale(200.288)">
<stop offset="0.0167" stop-color="white"/>
<stop offset="0.8663" stop-color="white" stop-opacity="0"/>
</radialGradient>
<radialGradient id="paint68_radial" cx="0" cy="0" r="1" gradientUnits="userSpaceOnUse" gradientTransform="translate(124.108 217.543) rotate(180) scale(231.559)">
<stop offset="0.0167" stop-color="white"/>
<stop offset="0.8663" stop-color="white" stop-opacity="0"/>
</radialGradient>
<radialGradient id="paint69_radial" cx="0" cy="0" r="1" gradientUnits="userSpaceOnUse" gradientTransform="translate(99.1192 459.251) rotate(180) scale(113.487)">
<stop offset="0.0167" stop-color="white"/>
<stop offset="0.8663" stop-color="white" stop-opacity="0"/>
</radialGradient>
<clipPath id="clip0">
<rect width="725.74" height="504.19" fill="white" transform="matrix(-1 0 0 1 725.74 3.05176e-05)"/>
</clipPath>
</defs>
</svg>
