<svg id="glasseSvg" width="726" height="505" viewBox="0 0 726 505" fill="none" xmlns="http://www.w3.org/2000/svg">
<g id="Frame" clip-path="url(#clip0)">
<g id="IceCubes">
<g id="Group">
<path id="Vector" d="M184.48 237.03C184.48 237.03 171.37 245.1 175.4 252.16C179.44 259.22 184.48 283.43 194.56 285.44C204.65 287.46 236.92 271.32 240.95 264.26C244.98 257.2 251.03 251.15 248.01 244.09C244.98 237.03 233.89 211.82 229.86 214.84C225.83 217.86 202.63 219.55 196.58 224.59C190.53 229.63 184.48 237.03 184.48 237.03Z" fill="url(#paint0_radial)"/>
<path id="Vector_2" d="M240.28 260.22C235.57 257.53 222.8 238.71 223.13 232.99C223.47 227.27 225.15 229.29 231.87 221.9C233.09 220.56 233.99 219.27 234.66 218.05C233.51 216.49 232.45 215.36 231.53 214.87C228.26 219.5 223.94 225.22 221.45 226.94C217.08 229.97 214.05 231.31 206.99 233.33C199.93 235.35 187.16 245.1 189.51 236.02C190.29 233.01 191.47 229.79 192.43 227C188.12 231.81 184.47 237.03 184.47 237.03C184.47 237.03 177.29 241.46 175.19 246.62C175.36 246.68 175.53 246.74 175.73 246.78C177.05 247.05 190.86 243.42 197.92 240.39C204.98 237.37 208.01 235.35 213.38 236.02C218.76 236.69 233.55 265.27 233.55 265.27C233.55 265.27 223.05 273.92 212.7 281.45C224.95 276.59 238.43 268.66 240.95 264.26C241.75 262.87 242.62 261.51 243.49 260.18C242.39 260.64 241.27 260.79 240.28 260.22Z" fill="url(#paint1_radial)"/>
<path id="Vector_3" d="M195.06 285.51C196.45 269.28 197.99 253.06 200.45 236.94C198.96 237.5 197.45 238.19 195.91 239.04C195.17 239.45 194.43 239.64 193.74 239.66C193.72 239.66 193.7 239.68 193.68 239.68C192.65 248.22 190.02 270.37 189.95 282.77C191.36 284.15 192.89 285.1 194.57 285.43C194.72 285.47 194.89 285.49 195.06 285.51Z" fill="url(#paint2_radial)"/>
<path id="Vector_4" d="M216.32 236.3C212.36 235.24 208.64 235.02 204.92 235.7C205.56 236.31 205.96 237.19 205.79 238.27C203.41 253.83 201.93 269.5 200.59 285.18C204.82 284.39 210.09 282.6 215.44 280.32C215.82 269.87 216.51 248.63 216.32 236.3Z" fill="url(#paint3_radial)"/>
</g>
<g id="Group_2">
<path id="Vector_5" d="M277.82 238.05C277.82 238.05 262.49 236.66 261.49 244.73C260.49 252.8 250.04 275.21 256.91 282.86C263.78 290.51 299.29 296.91 306.75 293.67C314.21 290.43 322.68 289.21 324.48 281.74C326.28 274.27 332.49 247.44 327.45 247.44C322.41 247.45 302.82 234.91 294.96 235.32C287.1 235.75 277.82 238.05 277.82 238.05Z" fill="url(#paint4_radial)"/>
<path id="Vector_6" d="M308.63 290.04C306.47 285.07 307.51 262.34 311.2 257.96C314.89 253.58 315.03 256.21 324.84 254.31C326.62 253.96 328.11 253.47 329.38 252.89C329.4 250.96 329.21 249.41 328.77 248.47C323.38 250.22 316.49 252.22 313.47 252.11C308.16 251.92 304.93 251.18 298.07 248.57C291.21 245.96 275.14 246.12 282.46 240.26C284.88 238.32 287.76 236.44 290.2 234.78C283.87 236.05 277.82 238.05 277.82 238.05C277.82 238.05 269.42 237.29 264.65 240.18C264.75 240.33 264.85 240.48 264.98 240.63C265.87 241.64 279.11 246.99 286.58 248.8C294.05 250.6 297.68 250.8 301.58 254.56C305.49 258.32 300.22 290.06 300.22 290.06C300.22 290.06 286.63 290.7 273.83 290.53C286.55 293.97 302.1 295.7 306.75 293.68C308.22 293.04 309.73 292.48 311.22 291.93C310.08 291.64 309.09 291.09 308.63 290.04Z" fill="url(#paint5_radial)"/>
<path id="Vector_7" d="M257.27 283.22C268.1 271.05 279.05 258.98 290.67 247.55C289.14 247.1 287.52 246.76 285.77 246.52C284.93 246.4 284.23 246.12 283.66 245.72C283.64 245.71 283.62 245.71 283.6 245.7C277.66 251.92 262.29 268.09 254.81 277.98C255.12 279.93 255.77 281.61 256.91 282.88C257.02 282.98 257.15 283.1 257.27 283.22Z" fill="url(#paint6_radial)"/>
<path id="Vector_8" d="M303.77 256.54C301.23 253.33 298.39 250.92 295 249.23C295.15 250.1 294.94 251.05 294.16 251.81C282.93 262.85 272.37 274.51 261.91 286.27C265.77 288.17 271.07 289.89 276.71 291.27C283.26 283.12 296.54 266.52 303.77 256.54Z" fill="url(#paint7_radial)"/>
</g>
</g>
<g id="Liquid">
<path id="Vector_9" opacity="0.4" d="M612.62 181.75C588.62 169.75 555.62 174.75 529.62 177.75C503.62 180.75 553.62 201.75 537.62 208.75C521.62 215.75 484.62 205.75 473.62 199.75C459.9 192.27 439.7 196 424.9 196.76C418.85 197.07 408.29 198.88 413.61 205.77C417.23 210.46 435.35 208.94 424.29 218.07C418.1 223.18 405.1 216.72 398.32 215.62C383.29 213.18 368.07 213.86 353.16 216.55C336.32 216.76 319.49 218.34 302.82 220.88C279.81 224.38 257.45 231.62 238.28 245.04C229.85 250.94 221.87 257.42 212.51 261.83C202.24 266.67 190.59 267.54 179.62 264.99C172.99 263.45 166.74 260.61 161.21 256.76C155.19 251.73 149.78 245.59 145 238.72C142.48 234.06 140.7 228.98 139.85 223.62C139.46 221.16 136.92 220.97 135.32 222.16C119.12 189.09 114.93 147.62 125.62 125.75C131.95 112.79 142.44 101.17 155.06 91.82C155.44 92 155.9 92.01 156.38 91.72C173.88 80.73 193.76 70.47 215.02 71.7C226.34 72.35 236.68 77.48 245.17 84.78C252.94 91.46 258.68 99.34 267.73 104.54C282.84 113.23 300.75 111.9 314.53 101.4C321.77 95.89 326.63 88.42 331.56 80.93C336.07 74.08 341.4 67.03 349.14 64.34C350.8 66.92 352.88 70.39 357.63 72.76C369.63 78.76 373.63 67.76 380.63 78.76C387.63 89.76 406.63 116.76 415.63 82.76C424.63 48.76 429.63 52.76 441.63 48.76C453.63 44.76 462.63 77.76 471.63 84.76C480.63 91.76 489.63 85.76 511.63 87.76C533.63 89.76 523.63 105.76 546.63 87.76C569.63 69.76 569.63 82.76 593.63 82.76C612.73 82.76 616.61 63.76 605.81 51.47C604.92 49.44 603.76 47.48 602.27 45.63C594.87 36.4 582.06 35.7 571.37 37.89C560.84 40.05 553.96 48.45 548.39 56.99C542.44 66.12 536.94 76.32 525.22 78.32C524.4 78.46 524.09 79.07 524.14 79.7C516.67 78.81 508.39 73.94 498.62 75.77C482.62 78.77 474.62 75.77 463.62 63.77C452.62 51.77 446.62 41.77 433.62 36.77C420.62 31.77 413.62 59.77 400.62 67.77C387.62 75.77 392.62 64.77 383.62 55.77C374.62 46.77 374.62 60.77 362.62 59.77C350.62 58.77 352.62 49.77 333.62 50.77C314.62 51.77 311.62 68.77 291.62 71.77C271.62 74.77 292.62 54.77 236.62 42.77C180.62 30.77 122.62 79.77 119.62 82.77C77.47 124.92 47.62 174.77 47.62 174.77C2.62 254.77 44.62 344.77 120.62 371.77C172.47 390.19 213.61 372.77 245 344.6C256.99 344.62 266.87 336.86 274.88 328.69C284.84 318.54 292.69 306.42 300.62 294.69C309.86 281.02 320.58 269.91 334.39 260.71C349.05 250.94 365.4 243.88 381.87 237.77C394.45 235.2 405.58 234.83 413.62 236.77C442.62 243.77 454.62 229.77 477.62 246.77C500.62 263.77 442.62 280.77 403.62 299.77C364.62 318.77 400.62 346.77 400.62 346.77C446.98 360.67 493.94 331.11 539.57 344.52C557.56 349.81 591.39 359.77 606.34 342.66C623.74 322.73 607.27 290.79 604.62 268.77C601.62 243.77 619.62 225.77 621.62 213.77C623.62 201.77 636.62 193.75 612.62 181.75ZM563.42 44.49C572.88 37.98 588.01 37.72 597.18 44.82C597.27 44.89 597.34 44.96 597.43 45.02C596.53 44.56 595.61 44.13 594.63 43.74C578.56 37.45 562.49 47.77 550.51 59.33C554.18 53.7 558.02 48.2 563.42 44.49ZM257.62 78.75C295.62 105.75 322.62 77.75 336.62 65.75C342.93 60.35 345.37 60.02 347.26 61.83C333.71 67.1 327.73 83.8 318.13 94.1C303.04 110.28 281.03 110.8 263.56 98.28C254.73 91.94 248.66 82.76 239.47 76.74C231.92 71.8 223.14 69.23 214.2 68.66C230.3 67.3 245.65 70.24 257.62 78.75ZM166.96 336.68C131.66 336.09 103.28 304.39 84.71 277.54C75.3 263.94 68.88 248.83 66.3 232.43C63.54 214.93 62.83 196.15 69.22 179.3C71.97 172.04 78.73 167.13 86.76 169.34C96.45 172.01 96.58 179.03 95.26 186.56C93.85 194.61 94.91 202.47 94.97 210.56C95.06 222.28 96.95 233.9 102.3 244.44C112.26 264.05 130.28 278 140.72 296.74C140.3 296.53 139.81 296.13 139.36 295.96C141.25 297.39 143.17 298.78 145.16 300.05C147.85 301.77 150.6 303.43 153.49 304.81C153.99 305.05 154.5 305.28 155 305.51C155.15 305.56 155.52 305.7 156.13 305.94C157.73 306.49 159.35 307.04 161 307.42C161.6 307.56 165.37 308.07 164.32 308.04C165.2 308.1 166.08 308.14 166.96 308.15C174.73 308.28 181.22 314.54 181.22 322.41C181.22 330.09 174.73 336.81 166.96 336.68ZM202.52 270.98C211.91 268.93 220.96 264.63 229.24 258.9C238.56 252.45 247.33 245.48 257.53 240.41C269.23 234.58 282.07 231.02 294.82 228.37C304.44 226.37 314.25 224.9 324.14 223.91C289.63 234.81 256.79 251.9 223.61 265.75C216.24 268.83 209.2 270.51 202.52 270.98ZM302.91 286.07C294.86 297.32 287.64 309.11 278.81 319.79C271.16 329.05 261.01 339.64 248.52 341.34C261.64 328.95 272.99 314.77 282.62 300.75C299.76 275.82 326.6 257.64 352.51 246.9C333.27 256.33 315.43 268.56 302.91 286.07Z" fill="url(#paint8_linear)"/>
<path id="Vector_10" d="M569.62 277.75C566.62 254.75 581.62 239.75 593.62 208.75C605.62 177.75 578.62 186.75 552.62 184.75C526.62 182.75 561.62 193.75 559.62 214.75C557.62 235.75 523.62 231.75 506.62 224.75C489.62 217.75 463.62 194.75 433.62 200.75C403.62 206.75 443.62 205.75 449.62 214.75C455.62 223.75 426.62 220.75 376.62 219.75C326.62 218.75 258.62 262.75 231.62 294.75C222.62 305.41 210.95 320.73 195.17 318.52C187.29 317.42 156.87 303.5 158.39 293.85C169.16 294.14 179.14 299.59 190.72 299.78C184.22 297.34 176.51 295.94 169.61 293.58C160.69 290.53 155.5 285.48 148.96 279.04C126.82 257.26 113.16 227.99 104.63 198.74C97.63 174.74 93.63 188.74 93.63 188.74C87.63 256.74 149.63 303.74 147.63 317.74C145.63 331.74 125.63 334.74 88.63 275.74C51.63 216.74 83.63 183.74 91.63 173.74C99.63 163.74 108.63 171.74 115.63 156.74C116.92 153.97 118.45 150.97 120.11 147.81C120.85 139.35 122.67 131.79 125.63 125.74C129.35 118.12 134.52 110.96 140.7 104.45C144.29 90.15 119.63 120.74 119.63 120.74C107.63 137.74 93.63 149.74 80.63 150.74C67.63 151.74 48.63 193.74 47.63 248.74C47.38 262.66 49.67 277.24 55.62 289.93C59.13 297.42 67.9 310.35 77.53 309.64C80.16 297.33 59.86 287.56 61.73 273.18C72.17 273.15 81.12 293.75 86.13 301.11C89.7 306.36 93.61 311.32 97.63 316.26C100.15 319.36 107.15 324.55 108.16 328.41C109.37 333.03 105.84 332.06 105.76 334.54C105.63 338.66 107.9 340.18 110.33 343.07C127.71 363.82 162.32 369.11 187.58 363.85C214.52 358.23 239.29 340.99 252.63 316.74C274.63 276.74 347.63 231.74 373.63 230.74C399.63 229.74 414.63 232.74 436.63 229.74C458.63 226.74 476.63 220.74 498.63 242.74C520.63 264.74 446.44 296.5 442.63 299.74C409.63 327.74 477.63 308.74 494.63 306.74C511.63 304.74 553.63 321.74 575.63 321.74C597.63 321.74 572.62 300.75 569.62 277.75Z" fill="url(#paint9_linear)"/>
<path id="Vector_11" d="M612.62 181.75C612.08 181.48 611.54 181.23 610.99 180.98C609.89 180.48 608.63 179.95 607.24 179.41C595.04 174.75 581.01 173.74 566.95 174.24C566.74 174.37 566.53 174.5 566.35 174.64C569.17 177.65 573.65 175.84 577.45 176.91C584.44 178.87 588.96 182.14 596.19 182.89C601.41 183.43 607.31 184.16 609.89 189.4C614.27 198.29 606.31 214.41 604.94 223.42C600.94 249.75 594.27 237.75 586.27 262.42C578.27 287.09 597.6 319.09 590.27 333.09C582.94 347.09 542.27 335.09 509.6 325.76C476.93 316.43 441.6 337.09 413.6 333.76C393.04 331.31 390.46 316.65 390.53 309.03C390.33 309.25 390.14 309.48 389.96 309.7C389.9 309.77 389.84 309.84 389.78 309.92C389.61 310.13 389.44 310.35 389.28 310.56C389.22 310.64 389.16 310.72 389.1 310.81C388.94 311.02 388.79 311.24 388.65 311.45C388.6 311.52 388.55 311.6 388.5 311.67C388.35 311.9 388.2 312.12 388.07 312.35C388.05 312.38 388.04 312.4 388.02 312.43C387.54 313.23 387.14 314.03 386.8 314.83C386.79 314.85 386.78 314.87 386.77 314.9C386.67 315.14 386.58 315.38 386.49 315.62C386.47 315.68 386.45 315.74 386.43 315.8C386.35 316.03 386.27 316.26 386.2 316.49C386.18 316.55 386.16 316.61 386.15 316.67C386.08 316.91 386.01 317.14 385.96 317.38C385.95 317.42 385.94 317.45 385.93 317.49C385.67 318.56 385.53 319.63 385.47 320.69C385.47 320.72 385.47 320.74 385.47 320.77C385.46 321.01 385.46 321.26 385.45 321.5C385.45 321.54 385.45 321.59 385.45 321.63C385.45 321.87 385.46 322.11 385.47 322.35C385.47 322.38 385.47 322.42 385.48 322.45C385.55 323.77 385.76 325.08 386.08 326.36C386.09 326.39 386.09 326.42 386.1 326.44C386.16 326.68 386.23 326.91 386.29 327.15C386.3 327.18 386.31 327.21 386.32 327.25C386.39 327.49 386.47 327.73 386.54 327.97C386.54 327.98 386.54 327.98 386.55 327.99C386.89 329.01 387.29 330.02 387.75 330.99V331C387.86 331.23 387.97 331.46 388.08 331.68C388.09 331.71 388.11 331.73 388.12 331.76C388.23 331.98 388.34 332.2 388.46 332.42C388.47 332.44 388.48 332.46 388.49 332.48C389.11 333.64 389.79 334.75 390.5 335.81C390.52 335.83 390.53 335.86 390.55 335.88C390.68 336.08 390.82 336.27 390.95 336.46C390.97 336.49 390.99 336.51 391.01 336.54C391.15 336.73 391.28 336.93 391.42 337.12C391.43 337.13 391.43 337.14 391.44 337.15C392.03 337.96 392.63 338.73 393.24 339.45C393.25 339.47 393.27 339.49 393.28 339.5C393.42 339.66 393.55 339.82 393.69 339.98C393.72 340.01 393.75 340.05 393.77 340.08C393.9 340.23 394.03 340.38 394.16 340.53C394.19 340.56 394.22 340.59 394.24 340.63C394.37 340.78 394.51 340.93 394.64 341.08L394.65 341.09C395.09 341.58 395.53 342.04 395.95 342.48C395.96 342.49 395.97 342.5 395.98 342.51C396.1 342.63 396.22 342.75 396.34 342.87C396.37 342.91 396.41 342.94 396.44 342.98C396.55 343.09 396.65 343.2 396.76 343.3C396.8 343.34 396.84 343.38 396.88 343.42C396.99 343.52 397.09 343.63 397.19 343.73C397.22 343.76 397.25 343.79 397.28 343.82C397.63 344.16 397.96 344.48 398.27 344.76C398.29 344.77 398.3 344.79 398.32 344.81C398.4 344.89 398.49 344.96 398.57 345.04C398.61 345.07 398.65 345.11 398.68 345.14C398.76 345.21 398.83 345.27 398.9 345.34C398.94 345.37 398.98 345.41 399.01 345.44C399.08 345.5 399.14 345.56 399.21 345.61C399.25 345.64 399.29 345.68 399.33 345.71C399.39 345.76 399.44 345.81 399.5 345.86C399.55 345.9 399.59 345.94 399.63 345.97C399.67 346.01 399.72 346.05 399.76 346.08C399.79 346.11 399.82 346.13 399.85 346.15C399.94 346.22 400.02 346.29 400.09 346.35C400.12 346.38 400.15 346.4 400.18 346.43C400.21 346.45 400.23 346.47 400.26 346.5C400.29 346.52 400.32 346.55 400.35 346.57C400.37 346.59 400.39 346.6 400.41 346.62C400.44 346.64 400.47 346.66 400.49 346.68C400.5 346.69 400.5 346.69 400.51 346.7C400.54 346.72 400.56 346.74 400.58 346.76C400.6 346.77 400.61 346.78 400.61 346.78C446.97 360.68 493.93 331.12 539.56 344.53C557.55 349.82 591.38 359.78 606.33 342.67C623.73 322.74 607.26 290.8 604.61 268.78C601.61 243.78 619.61 225.78 621.61 213.78C622.11 210.78 623.3 208.03 624.42 205.4C627.81 197.5 630.62 190.75 612.62 181.75Z" fill="#008BC1"/>
<path id="Vector_12" opacity="0.4" d="M38.29 155.75C35.61 143.05 34.16 129.77 34.35 116.8C34.48 108.3 35.03 98.69 39.11 91.02C43.28 83.19 57.06 71.11 65.6 78.54C79.27 90.44 57.47 99.67 51.73 108.75C42.9 122.73 39.31 139.44 38.29 155.75Z" fill="url(#paint10_linear)"/>
<path id="Vector_13" opacity="0.4" d="M38.29 155.75C35.61 143.05 34.16 129.77 34.35 116.8C34.48 108.3 35.03 98.69 39.11 91.02C43.28 83.19 57.06 71.11 65.6 78.54C79.27 90.44 57.47 99.67 51.73 108.75C42.9 122.73 39.31 139.44 38.29 155.75Z" fill="url(#paint11_linear)"/>
<path id="Vector_14" d="M64.82 77.94C56.24 71.83 43.15 83.44 39.11 91.03C35.03 98.7 34.48 108.31 34.35 116.81C34.27 121.97 34.46 127.17 34.88 132.37C36.73 120.06 40.4 107.97 47.06 97.43C50.96 91.26 62.24 85.03 64.82 77.94Z" fill="url(#paint12_radial)"/>
<path id="Vector_15" opacity="0.4" d="M20.82 238.76C15.15 232.55 9.97 225.61 5.82 218.31C3.1 213.52 0.239997 207.97 -3.08733e-06 202.35C-0.240003 196.61 3.48 185.33 10.69 186.68C22.23 188.83 13.1 201.15 12.88 208.11C12.55 218.8 16.03 229.31 20.82 238.76Z" fill="url(#paint13_linear)"/>
<path id="Vector_16" opacity="0.4" d="M145.62 122.75C160.16 119.13 149.73 137.95 156.62 142.77C161.23 145.99 166.4 140.3 169.66 146.75C171.99 151.37 168.29 159.86 164.61 162.55C160.52 165.54 151.98 166.14 147.62 163.55C144.53 161.71 144.83 157.44 142.42 155.7C140.85 154.57 136.54 153.6 135.62 152.75C130.48 147.99 128.66 144.05 132.38 134.73C134.94 128.33 139.91 121.79 147.63 122.75" fill="url(#paint14_linear)"/>
<path id="Vector_17" d="M576.62 138.75C572.32 132.57 554.38 140.09 558.57 149.8C560.46 154.18 564.58 152.03 567.62 153.76C571.08 155.73 573.96 159.75 577.35 161.78C598.68 174.57 600.84 134.72 575.62 136.76" fill="#EC46BE"/>
<path id="Vector_18" d="M579.3 143.41L580.25 145.44C576.63 139.94 562.28 144.66 561.41 152.5C563.36 153.12 565.7 152.66 567.62 153.76C571.08 155.73 573.96 159.75 577.35 161.78C589.85 169.28 595.76 158.69 593.44 149.05C590.53 145.49 585.89 143.05 579.3 143.41Z" fill="url(#paint15_linear)"/>
<path id="Vector_19" d="M393.49 186.67C387.83 187.23 386.19 201.85 394.14 202.65C397.73 203.01 397.82 199.5 400.08 198.13C402.66 196.57 406.37 196.15 408.96 194.66C425.26 185.28 399.74 169.19 391.8 186.59" fill="url(#paint16_linear)"/>
<path id="Vector_20" d="M391.81 186.59L393.5 186.67C390.3 186.99 388.39 191.78 388.76 196.04C389.11 196.14 389.47 196.23 389.86 196.27C393.52 196.67 393.58 193.14 395.86 191.79C398.47 190.25 402.24 189.86 404.86 188.39C408.82 186.16 410.32 183.53 410.21 181.04C404.93 177.56 395.96 177.49 391.81 186.59Z" fill="url(#paint17_radial)"/>
<path id="Vector_21" d="M420.62 26.75C420.62 26.75 456.62 -0.249998 468.62 23.75C480.62 47.75 457.62 19.75 420.62 26.75Z" fill="url(#paint18_linear)"/>
<path id="Vector_22" d="M463.73 17.47C455.32 10.65 442.51 14.61 433.04 19.28C459.28 21.21 473.49 37.08 463.73 17.47Z" fill="#EC46BE"/>
<path id="Vector_23" d="M581.62 87.75C578.52 85.91 606.62 94.75 617.62 88.75C628.62 82.75 635.62 119.75 581.62 87.75Z" fill="url(#paint19_linear)"/>
<path id="Vector_24" d="M588.36 88.37C617.16 103.14 624.13 94.32 622.6 88.11C621.68 88 620.67 88.18 619.62 88.75C612.05 92.88 596.38 89.98 588.36 88.37Z" fill="url(#paint20_linear)"/>
<g id="Group_3">
<path id="Vector_25" d="M235.62 48.42C272.95 61.09 268.95 87.09 289.62 81.09C310.29 75.09 312.29 59.76 336.95 56.42C361.62 53.09 354.95 73.09 363.62 67.09C372.29 61.09 373.62 53.09 378.29 58.42C382.96 63.75 394.96 99.75 402.29 89.09C409.62 78.43 414.96 38.42 428.96 40.42C433.34 41.05 439.34 44.34 445.71 48.78C447.55 49.4 449.32 50.78 451.04 52.69C454.39 55.25 457.74 58 460.93 60.74C451.57 50.09 445.52 41.33 433.63 36.75C420.63 31.75 413.63 59.75 400.63 67.75C387.63 75.75 392.63 64.75 383.63 55.75C374.63 46.75 374.63 60.75 362.63 59.75C350.63 58.75 352.63 49.75 333.63 50.75C314.63 51.75 311.63 68.75 291.63 71.75C271.63 74.75 292.63 54.75 236.63 42.75C180.63 30.75 122.63 79.75 119.63 82.75C117.66 84.72 115.72 86.7 113.81 88.69C118.02 90.58 199.28 36.09 235.62 48.42Z" fill="url(#paint21_linear)"/>
<path id="Vector_26" d="M594.62 43.75C571.62 34.75 548.62 59.75 537.62 73.75C526.62 87.75 514.62 72.75 498.62 75.75C488.12 77.72 481.07 77.08 474.36 73.04C476.73 75.35 478.57 77.24 479.62 78.42C485.62 85.09 496.95 84.42 506.95 81.75C516.95 79.08 522.28 83.75 528.28 85.08C534.28 86.41 542.95 59.75 568.95 53.75C594.57 47.84 613.7 59.41 608.51 76.33C615.64 67.01 610.9 50.12 594.62 43.75Z" fill="url(#paint22_linear)"/>
</g>
<path id="Vector_27" d="M361.81 243.35C350.05 243.3 312.55 252.35 283.62 289.76C244.95 339.76 224.95 365.09 178.29 369.09C131.63 373.09 79.62 357.76 49.62 299.76C19.62 241.76 49.62 171.76 60.95 158.43C72.28 145.1 82.95 145.1 94.95 136.43C106.95 127.76 128.95 95.1 139.62 92.43C147.82 90.38 149.32 93.44 152.91 93.46C184.2 69.15 229.94 59.09 257.62 78.76C258.19 79.17 258.76 79.56 259.33 79.94C265.98 80.85 270.69 82.68 272.29 85.76C274.26 89.55 266.96 71.09 240.96 63.76C214.96 56.43 194.96 56.43 162.96 73.76C130.96 91.09 111.63 107.09 102.96 107.76C100.15 107.98 97.83 108.26 95.57 108.96C66.56 143.13 47.62 174.76 47.62 174.76C2.62 254.76 44.62 344.76 120.62 371.76C196.62 398.76 249.62 348.76 282.62 300.76C301.82 272.82 333.21 253.36 361.81 243.35Z" fill="url(#paint23_radial)"/>
<g id="Group_4">
<path id="Vector_28" d="M529.62 177.75C519.01 178.97 521.06 183.19 526.11 188.24C526.35 187.59 527.23 187 528.96 186.42C538.96 183.09 558.29 176.42 574.96 175.09C576.08 175 576.41 174.68 576.05 174.16C560.22 173.87 543.87 176.11 529.62 177.75Z" fill="url(#paint24_radial)"/>
<path id="Vector_29" d="M546.95 204.42C542.43 199.6 536.27 196.14 531.81 193.49C538.49 199.47 544.91 205.57 537.62 208.76C521.62 215.76 484.62 205.76 473.62 199.76C459.9 192.28 439.7 196.01 424.9 196.77C418.85 197.08 408.29 198.89 413.61 205.78C417.23 210.47 435.35 208.95 424.29 218.08C422.79 219.31 420.9 219.87 418.79 219.99C429.74 222.06 443.39 223.92 437.62 217.1C430.29 208.43 411.62 202.43 419.62 201.77C427.62 201.11 478.29 199.1 491.62 208.44C504.95 217.77 511.62 217.11 521.62 219.11C531.62 221.08 556.95 215.08 546.95 204.42Z" fill="url(#paint25_radial)"/>
<path id="Vector_30" d="M407.01 217.97C403.73 217.01 400.65 215.99 398.32 215.61C380.61 212.74 362.65 214.18 345.22 218.15C302.84 227.79 263.48 249.11 223.62 265.75C161.05 291.88 122.32 217.02 119.85 162.39C119.7 162.41 119.62 162.41 119.62 162.41C118.95 166.41 119.62 195.74 125.62 215.08C131.62 234.41 134.95 243.08 140.95 247.08C146.95 251.08 139.62 235.08 144.95 243.75C150.28 252.42 163.62 269.75 174.28 272.42C184.95 275.09 178.95 282.42 188.28 281.75C197.61 281.08 226.28 281.75 236.28 268.42C246.28 255.09 312.95 231.09 332.28 225.09C349.75 219.66 391.69 216.97 407.01 217.97Z" fill="url(#paint26_radial)"/>
</g>
<path id="Vector_31" d="M143.17 325.18C143.56 325.4 143.93 325.59 144.29 325.76C164.96 335.09 150.29 301.09 139.62 288.43C128.95 275.76 128.29 263.76 110.29 242.43C94.91 224.21 96.09 192.87 95.5 185.35C94.27 186.5 93.62 188.76 93.62 188.76C87.62 256.76 149.62 303.76 147.62 317.76C147.15 321.07 145.65 323.77 143.17 325.18Z" fill="url(#paint27_radial)"/>
<g id="Group_5">
<path id="Vector_32" d="M518.95 87.08C508.95 82.41 488.28 84.41 477.62 83.08C473.84 82.61 468.73 78.16 463.09 72.48C466 77.83 468.81 82.56 471.62 84.75C480.62 91.75 489.62 85.75 511.62 87.75C533.62 89.75 523.62 105.75 546.62 87.75C569.62 69.75 569.62 82.75 593.62 82.75C606.29 82.75 612.25 74.4 611.69 65.19C608.53 68.33 604.86 71.87 600.95 75.09C589.62 84.42 580.95 68.42 565.62 64.42C550.29 60.42 545.62 83.09 537.62 88.42C529.62 93.75 528.95 91.75 518.95 87.08Z" fill="url(#paint28_radial)"/>
<path id="Vector_33" d="M380.62 78.75C387.62 89.75 406.62 116.75 415.62 82.75C423.99 51.15 428.9 52.37 439.19 49.49C436.52 47.61 433.97 46.25 431.62 45.75C417.53 42.72 411.62 89.75 404.95 95.75C398.28 101.75 383.62 75.75 377.62 69.08C371.62 62.41 366.95 73.08 364.95 73.08C364.95 73.08 365.32 73.64 365.99 74.65C372.07 74.34 375.56 70.8 380.62 78.75Z" fill="url(#paint29_radial)"/>
</g>
<g id="Group_6">
<path id="Vector_34" d="M574.95 261.75C579.738 261.75 583.62 257.868 583.62 253.08C583.62 248.292 579.738 244.41 574.95 244.41C570.162 244.41 566.28 248.292 566.28 253.08C566.28 257.868 570.162 261.75 574.95 261.75Z" fill="url(#paint30_linear)"/>
<path id="Vector_35" d="M579.95 285.75C581.977 285.75 583.62 284.107 583.62 282.08C583.62 280.053 581.977 278.41 579.95 278.41C577.923 278.41 576.28 280.053 576.28 282.08C576.28 284.107 577.923 285.75 579.95 285.75Z" fill="url(#paint31_linear)"/>
<path id="Vector_36" d="M547.62 270.75C547.62 275.35 543.89 279.08 539.29 279.08C534.69 279.08 530.96 275.35 530.96 270.75C530.96 266.15 534.69 262.42 539.29 262.42C543.89 262.42 547.62 266.15 547.62 270.75Z" fill="url(#paint32_linear)"/>
<path id="Vector_37" d="M568.29 303.42C568.29 305.44 566.65 307.09 564.62 307.09C562.59 307.09 560.95 305.45 560.95 303.42C560.95 301.39 562.59 299.75 564.62 299.75C566.65 299.75 568.29 301.39 568.29 303.42Z" fill="url(#paint33_linear)"/>
<path id="Vector_38" d="M601.95 226.42C603.607 226.42 604.95 225.077 604.95 223.42C604.95 221.763 603.607 220.42 601.95 220.42C600.293 220.42 598.95 221.763 598.95 223.42C598.95 225.077 600.293 226.42 601.95 226.42Z" fill="url(#paint34_linear)"/>
<path id="Vector_39" d="M530.29 203.08C530.29 207.13 527.01 210.41 522.96 210.41C518.91 210.41 515.63 207.13 515.63 203.08C515.63 199.03 518.91 195.75 522.96 195.75C527.01 195.75 530.29 199.03 530.29 203.08Z" fill="url(#paint35_linear)"/>
<path id="Vector_40" d="M545.29 219.75C547.317 219.75 548.96 218.107 548.96 216.08C548.96 214.053 547.317 212.41 545.29 212.41C543.263 212.41 541.62 214.053 541.62 216.08C541.62 218.107 543.263 219.75 545.29 219.75Z" fill="url(#paint36_linear)"/>
<path id="Vector_41" d="M450.95 281.75C450.95 286.54 447.07 290.42 442.28 290.42C437.49 290.42 433.61 286.54 433.61 281.75C433.61 276.96 437.49 273.08 442.28 273.08C447.07 273.08 450.95 276.96 450.95 281.75Z" fill="url(#paint37_linear)"/>
<path id="Vector_42" d="M434.95 297.75C434.95 299.22 433.76 300.42 432.28 300.42C430.81 300.42 429.61 299.23 429.61 297.75C429.61 296.27 430.8 295.08 432.28 295.08C433.76 295.08 434.95 296.28 434.95 297.75Z" fill="url(#paint38_linear)"/>
<path id="Vector_43" d="M396.62 303.75C400.486 303.75 403.62 300.616 403.62 296.75C403.62 292.884 400.486 289.75 396.62 289.75C392.754 289.75 389.62 292.884 389.62 296.75C389.62 300.616 392.754 303.75 396.62 303.75Z" fill="url(#paint39_linear)"/>
<path id="Vector_44" d="M418.95 262.08C418.95 264.47 417.01 266.41 414.62 266.41C412.23 266.41 410.29 264.47 410.29 262.08C410.29 259.69 412.23 257.75 414.62 257.75C417.01 257.75 418.95 259.69 418.95 262.08Z" fill="url(#paint40_linear)"/>
<path id="Vector_45" d="M219.62 377.75C226.247 377.75 231.62 372.377 231.62 365.75C231.62 359.123 226.247 353.75 219.62 353.75C212.993 353.75 207.62 359.123 207.62 365.75C207.62 372.377 212.993 377.75 219.62 377.75Z" fill="url(#paint41_linear)"/>
<path id="Vector_46" d="M246.12 366.75C248.053 366.75 249.62 365.183 249.62 363.25C249.62 361.317 248.053 359.75 246.12 359.75C244.187 359.75 242.62 361.317 242.62 363.25C242.62 365.183 244.187 366.75 246.12 366.75Z" fill="url(#paint42_linear)"/>
<path id="Vector_47" d="M209.62 88.75C214.038 88.75 217.62 85.1683 217.62 80.75C217.62 76.3317 214.038 72.75 209.62 72.75C205.202 72.75 201.62 76.3317 201.62 80.75C201.62 85.1683 205.202 88.75 209.62 88.75Z" fill="url(#paint43_linear)"/>
<path id="Vector_48" d="M231.12 97.75C233.053 97.75 234.62 96.183 234.62 94.25C234.62 92.317 233.053 90.75 231.12 90.75C229.187 90.75 227.62 92.317 227.62 94.25C227.62 96.183 229.187 97.75 231.12 97.75Z" fill="url(#paint44_linear)"/>
<path id="Vector_49" d="M164.12 59.75C169.367 59.75 173.62 55.4967 173.62 50.25C173.62 45.0033 169.367 40.75 164.12 40.75C158.873 40.75 154.62 45.0033 154.62 50.25C154.62 55.4967 158.873 59.75 164.12 59.75Z" fill="url(#paint45_linear)"/>
<path id="Vector_50" d="M189.62 50.75C191.829 50.75 193.62 48.9591 193.62 46.75C193.62 44.5409 191.829 42.75 189.62 42.75C187.411 42.75 185.62 44.5409 185.62 46.75C185.62 48.9591 187.411 50.75 189.62 50.75Z" fill="url(#paint46_linear)"/>
<path id="Vector_51" d="M49.62 342.75C56.2474 342.75 61.62 337.377 61.62 330.75C61.62 324.123 56.2474 318.75 49.62 318.75C42.9926 318.75 37.62 324.123 37.62 330.75C37.62 337.377 42.9926 342.75 49.62 342.75Z" fill="url(#paint47_linear)"/>
<path id="Vector_52" d="M76.62 358.75C78.8291 358.75 80.62 356.959 80.62 354.75C80.62 352.541 78.8291 350.75 76.62 350.75C74.4109 350.75 72.62 352.541 72.62 354.75C72.62 356.959 74.4109 358.75 76.62 358.75Z" fill="url(#paint48_linear)"/>
<path id="Vector_53" d="M499.12 80.75C503.262 80.75 506.62 77.3921 506.62 73.25C506.62 69.1079 503.262 65.75 499.12 65.75C494.978 65.75 491.62 69.1079 491.62 73.25C491.62 77.3921 494.978 80.75 499.12 80.75Z" fill="url(#paint49_linear)"/>
<path id="Vector_54" d="M518.62 83.75C520.829 83.75 522.62 81.9591 522.62 79.75C522.62 77.5409 520.829 75.75 518.62 75.75C516.411 75.75 514.62 77.5409 514.62 79.75C514.62 81.9591 516.411 83.75 518.62 83.75Z" fill="url(#paint50_linear)"/>
</g>
<g id="Group_7">
<path id="Vector_55" d="M155.65 161.12C146.21 162.54 155.43 152.51 149.63 149.67C147.81 148.78 144.48 153.42 141.42 151.28C139.75 150.11 139.74 146.16 139.62 144.42C139.25 139.29 140.3 131.84 143.81 127.89C146.45 124.92 150.37 124.14 152.66 125.7C152.51 124.75 152.29 123.93 152.02 123.22C150.84 122.29 148.96 122.01 146.02 122.68C139.21 122.75 134.75 128.79 132.38 134.74C128.66 144.06 130.48 148.01 135.62 152.76C136.54 153.61 140.85 154.58 142.42 155.71C144.83 157.45 144.53 161.72 147.62 163.56C151.99 166.16 160.52 165.55 164.61 162.56C165.02 162.26 165.43 161.88 165.83 161.45C166.31 153.02 158.96 160.62 155.65 161.12Z" fill="url(#paint51_radial)"/>
</g>
<g id="Group_8">
<path id="Vector_56" d="M168.71 157.03C170.31 153.59 171.05 149.49 169.67 146.75C166.41 140.29 161.24 145.99 156.63 142.77C152.18 139.66 154.93 130.75 153.56 125.77C153.01 128.54 150.34 132.55 149.1 133.88C147.08 136.04 140.64 142.42 145.11 144.79C148.81 146.76 150.55 141.37 153.15 147.23C154.8 150.95 151.38 154.89 152.6 158.25C154.7 164.05 163.83 162.25 168.71 157.03Z" fill="url(#paint52_linear)"/>
<path id="Vector_57" d="M149.57 123.33C148.59 124.05 149.54 124.04 149.62 124.75L152.66 123.88C152.38 123.52 152.04 123.21 151.63 122.96C151.08 122.97 150.41 123.08 149.57 123.33Z" fill="url(#paint53_linear)"/>
</g>
<path id="Vector_58" d="M34.35 118.92C34.33 131.22 35.75 143.75 38.28 155.76C39.3 139.45 42.9 122.74 51.72 108.77C56.89 100.59 75.08 92.28 68.64 82.02C66.18 91.81 53.31 94.95 48.11 102.93C45.05 107.61 44.91 114.68 42.79 119.93C39.77 127.41 33.63 131.85 34.94 120.43L34.35 118.92Z" fill="url(#paint54_linear)"/>
<path id="Vector_59" d="M8.95001 194.42C12.16 191.44 14.58 190.82 16.38 191.3C15.94 189.07 14.36 187.36 10.7 186.67C3.49001 185.32 -0.229993 196.6 0.0100067 202.34C0.250007 207.96 3.11001 213.51 5.83001 218.3C9.98001 225.61 15.16 232.55 20.83 238.75C20.82 238.76 -0.379993 203.08 8.95001 194.42Z" fill="url(#paint55_radial)"/>
</g>
<g id="IceCube">
<path id="Vector_60" d="M500.74 227.12C500.74 227.12 510.82 217.92 515.85 223.08C520.88 228.24 540.27 238.45 539.53 247.53C538.79 256.61 517.16 280.17 510.16 281.89C503.16 283.6 496.53 287.28 491.25 282.98C485.97 278.68 467.2 263.07 470.76 260.37C474.32 257.67 481.42 238.32 487.19 234.39C492.96 230.47 500.74 227.12 500.74 227.12Z" fill="url(#paint56_radial)"/>
<path id="Vector_61" d="M506.88 280.33C505.74 275.66 492.82 260.18 487.87 259.07C482.92 257.96 484.23 259.89 476.28 263.81C474.84 264.52 473.52 264.97 472.31 265.24C471.26 263.88 470.56 262.7 470.37 261.8C475.11 260.14 481.05 257.86 483.12 256.16C486.77 253.17 488.65 250.92 492.09 245.4C495.53 239.88 506.96 231.38 498.65 231.16C495.9 231.09 492.86 231.31 490.25 231.44C495.4 228.95 500.74 227.11 500.74 227.11C500.74 227.11 506.27 222.07 511.18 221.55C511.19 221.71 511.2 221.87 511.19 222.05C511.1 223.24 504.63 234.12 500.33 239.39C496.03 244.67 493.57 246.75 492.83 251.5C492.09 256.25 512.82 275.83 512.82 275.83C512.82 275.83 522.75 268.99 531.69 262.01C524.56 271.26 514.51 280.81 510.15 281.88C508.77 282.22 507.4 282.63 506.06 283.05C506.71 282.23 507.12 281.31 506.88 280.33Z" fill="url(#paint57_radial)"/>
<path id="Vector_62" d="M539.46 247.98C525.29 245.2 511.09 242.55 496.76 240.71C497.6 239.57 498.56 238.46 499.66 237.35C500.19 236.82 500.53 236.24 500.72 235.65C500.73 235.63 500.74 235.62 500.75 235.6C508.27 236.81 527.79 239.98 538.37 242.94C539.2 244.48 539.64 246.02 539.51 247.52C539.51 247.68 539.48 247.83 539.46 247.98Z" fill="url(#paint58_radial)"/>
<path id="Vector_63" d="M492.34 254.08C492.41 250.45 493.13 247.23 494.61 244.22C494.97 244.92 495.63 245.47 496.59 245.59C510.43 247.36 524.14 249.93 537.82 252.62C536.12 256.03 533.3 260.09 530.05 264.08C521.06 261.84 502.8 257.25 492.34 254.08Z" fill="url(#paint59_radial)"/>
</g>
<g id="Olive">
<path id="Vector_64" d="M266.79 176.92C268.29 174.92 339.29 1.42 339.29 1.42C339.29 1.42 343.29 -2.08 344.79 1.92C346.29 5.92 266.79 176.92 266.79 176.92Z" fill="#E2DEE6"/>
<path id="Vector_65" d="M328.26 109.65C319.56 126.09 301.04 133.34 286.88 125.85C272.72 118.36 268.3 98.97 276.99 82.53C285.68 66.09 304.21 58.84 318.37 66.33C332.52 73.82 336.95 93.21 328.26 109.65Z" fill="url(#paint60_linear)"/>
<path id="Vector_66" opacity="0.5" d="M299.95 123.08C280.34 127.66 274.48 109.78 272.56 101.45C272.97 111.81 278.02 121.15 286.87 125.84C301.03 133.33 319.55 126.08 328.25 109.64C334.68 97.48 333.93 83.7 327.36 74.32C332.49 92.83 323.19 117.65 299.95 123.08Z" fill="#00F096"/>
<path id="Vector_67" d="M302.57 118.47C301.48 123.6 295.91 126.77 290.14 125.54C284.37 124.31 280.57 119.16 281.66 114.02C282.75 108.89 288.32 105.72 294.09 106.95C299.87 108.19 303.67 113.34 302.57 118.47Z" fill="#D129BE"/>
<path id="Vector_68" d="M292.1 108.62C289.04 107.97 286.05 108.56 283.74 110.01C282.73 111.13 281.99 112.48 281.67 114.02C280.58 119.15 284.38 124.31 290.15 125.54C293.21 126.19 296.2 125.6 298.51 124.15C299.52 123.03 300.26 121.68 300.58 120.14C301.67 115.01 297.87 109.85 292.1 108.62Z" fill="#EC46BE"/>
<path id="Vector_69" d="M292.79 115.24C289.67 118.51 286.13 130.82 285.02 133.5C282.45 139.71 279.88 145.92 277.3 152.13C274.15 159.71 271.19 167.44 267.73 174.89C271.2 167.41 274.66 159.93 278.12 152.45C280.95 146.33 283.77 140.2 286.59 134.07C289.21 128.38 294.68 120.76 294.24 114.45C293.77 114.43 293.29 114.72 292.79 115.24Z" fill="#E2DEE6"/>
<path id="Vector_70" opacity="0.5" d="M300.62 73.75C302.277 73.75 303.62 72.4069 303.62 70.75C303.62 69.0931 302.277 67.75 300.62 67.75C298.963 67.75 297.62 69.0931 297.62 70.75C297.62 72.4069 298.963 73.75 300.62 73.75Z" fill="#FFFF79"/>
<path id="Vector_71" opacity="0.5" d="M299.62 83.92C299.62 88.8 295.66 92.75 290.79 92.75C285.91 92.75 281.96 88.8 281.96 83.92C281.96 79.04 285.92 75.09 290.79 75.09C295.67 75.08 299.62 79.04 299.62 83.92Z" fill="#FFFF79"/>
</g>
<g id="Glasses">
<g id="Group_9" opacity="0.5">
<path id="Vector_72" opacity="0.5" d="M713.96 493.69C691.99 467.68 630.18 394.36 628.12 390.26C625.62 385.26 629.06 375.84 629.06 375.84C623.5 385.42 605.12 394.76 605.12 394.76L607.12 396.26C609.12 393.76 621.62 396.76 621.62 396.76L699.18 497.98L713.96 493.69Z" fill="url(#paint61_radial)"/>
<path id="Vector_73" opacity="0.5" d="M713.96 493.69C691.99 467.68 630.18 394.36 628.12 390.26C625.62 385.26 629.06 375.84 629.06 375.84C623.5 385.42 605.12 394.76 605.12 394.76L607.12 396.26C609.12 393.76 621.62 396.76 621.62 396.76L699.18 497.98L713.96 493.69Z" fill="url(#paint62_radial)"/>
<path id="Vector_74" opacity="0.5" d="M607.62 394.25C607.62 394.25 605.12 394.75 597.12 391.25C589.12 387.75 592.57 378.14 591.21 379.47C587.91 384.62 586.95 389.48 589.16 392.57C591.52 395.85 596.94 396.36 603.4 394.5L689.62 500.75L693.19 499.71L607.62 394.25Z" fill="url(#paint63_radial)"/>
<path id="Vector_75" opacity="0.5" d="M631.41 362.26C629.34 359.38 624.9 358.64 619.47 359.76C619.47 359.76 630.61 362.75 626.11 378.25L717.83 492.56L720.61 491.75L629.05 375.83C632.6 370.51 633.69 365.44 631.41 362.26Z" fill="url(#paint64_radial)"/>
</g>
<path id="Vector_76" opacity="0.3" d="M397.53 332.47C397.49 332.5 397.43 332.53 397.35 332.58C397.33 332.59 397.3 332.61 397.28 332.62C397.21 332.66 397.13 332.71 397.04 332.77C397.01 332.79 396.99 332.8 396.96 332.82C396.85 332.89 396.72 332.97 396.59 333.06C396.54 333.09 396.5 333.12 396.45 333.15C396.31 333.24 396.15 333.34 395.99 333.44C395.94 333.47 395.88 333.51 395.83 333.54C395.69 333.63 395.55 333.72 395.39 333.82C395.33 333.86 395.26 333.9 395.2 333.95C395.01 334.08 394.8 334.21 394.59 334.35C394.51 334.4 394.44 334.45 394.36 334.5C394.16 334.63 393.95 334.77 393.73 334.92C393.67 334.96 393.6 335 393.54 335.04C393.32 335.19 393.09 335.34 392.85 335.5C392.77 335.56 392.68 335.61 392.6 335.67C392.34 335.84 392.07 336.02 391.8 336.21C391.72 336.27 391.63 336.33 391.54 336.39C391.31 336.55 391.08 336.71 390.84 336.87C390.76 336.93 390.68 336.98 390.6 337.04C390.31 337.24 390.02 337.44 389.73 337.65C389.63 337.72 389.53 337.79 389.43 337.86C389.13 338.07 388.83 338.29 388.52 338.51C388.44 338.57 388.36 338.63 388.28 338.68C388.02 338.87 387.76 339.06 387.5 339.25C387.41 339.32 387.31 339.39 387.22 339.46C386.91 339.69 386.6 339.92 386.29 340.16C386.19 340.24 386.09 340.31 385.99 340.39C385.68 340.62 385.38 340.85 385.07 341.09C385.04 341.11 385.01 341.13 384.99 341.15C385.63 344.49 386.66 347.87 388.13 351.27L564.63 366.27C564.63 366.27 608.63 364.27 614.63 329.27C614.8 328.27 614.96 327.27 615.12 326.27C619.1 300.69 620.7 274.66 622.59 248.87C623.53 236 624.4 223.12 625.21 210.24C625.77 201.41 629.86 180.33 615.62 181.27C614.21 181.36 612.99 181.75 611.83 182.3C606.32 186.02 590.41 197.1 569.58 211.67C569.57 211.67 569.57 211.68 569.56 211.68C559.84 218.48 550.12 225.29 540.41 232.1C540.24 232.22 540.06 232.35 539.88 232.47C518.35 247.56 496.84 262.67 475.33 277.79C449.42 296 423.51 314.22 397.61 332.45C397.61 332.45 397.58 332.47 397.55 332.49C397.55 332.46 397.54 332.46 397.53 332.47Z" fill="#00A5F2"/>
<path id="Vector_77" opacity="0.5" d="M400.03 335.47C399.99 335.5 399.93 335.53 399.85 335.58C399.83 335.59 399.8 335.61 399.78 335.62C399.71 335.66 399.63 335.71 399.54 335.77C399.51 335.79 399.49 335.8 399.46 335.82C399.35 335.89 399.22 335.97 399.09 336.06C399.04 336.09 399 336.12 398.95 336.15C398.81 336.24 398.65 336.34 398.49 336.44C398.44 336.47 398.38 336.51 398.33 336.54C398.19 336.63 398.05 336.72 397.89 336.82C397.83 336.86 397.76 336.9 397.7 336.95C397.51 337.08 397.3 337.21 397.09 337.35C397.01 337.4 396.94 337.45 396.86 337.5C396.66 337.63 396.45 337.77 396.23 337.92C396.17 337.96 396.1 338 396.04 338.04C395.82 338.19 395.59 338.34 395.35 338.5C395.27 338.56 395.18 338.61 395.1 338.67C394.84 338.84 394.57 339.02 394.3 339.21C394.22 339.27 394.13 339.33 394.04 339.39C393.81 339.55 393.58 339.71 393.34 339.87C393.26 339.93 393.18 339.98 393.1 340.04C392.81 340.24 392.52 340.44 392.23 340.65C392.13 340.72 392.03 340.79 391.93 340.86C391.63 341.07 391.33 341.29 391.02 341.51C390.94 341.57 390.86 341.63 390.78 341.68C390.52 341.87 390.26 342.06 390 342.25C389.91 342.32 389.81 342.39 389.72 342.46C389.41 342.69 389.1 342.92 388.79 343.16C388.69 343.24 388.59 343.31 388.49 343.39C388.18 343.62 387.88 343.85 387.57 344.09C387.54 344.11 387.51 344.13 387.49 344.15C388.13 347.49 389.16 350.87 390.63 354.27L567.13 369.27C567.13 369.27 611.13 367.27 617.13 332.27C617.3 331.27 617.46 330.27 617.62 329.27C621.6 303.69 623.2 277.66 625.09 251.87C626.03 239 626.9 226.12 627.71 213.24C628.27 204.41 632.36 183.33 618.12 184.27C616.71 184.36 615.49 184.75 614.33 185.3C608.82 189.02 592.91 200.1 572.08 214.67C572.07 214.67 572.07 214.68 572.06 214.68C562.34 221.48 552.62 228.29 542.91 235.1C542.74 235.22 542.56 235.35 542.38 235.47C520.85 250.56 499.34 265.67 477.83 280.79C451.92 299 426.01 317.22 400.11 335.45C400.11 335.45 400.08 335.47 400.05 335.49C400.05 335.46 400.04 335.46 400.03 335.47Z" fill="url(#paint65_radial)"/>
<path id="Vector_78" opacity="0.2" d="M631.62 182.25C633.01 183.64 635.27 186.76 637.34 189.5C637.87 182.78 637.95 175.03 634.45 172.99C628.15 169.32 617.46 178.52 612.62 181.75C594.62 193.75 397.62 332.42 397.62 332.42C397.62 332.42 358.77 356.02 379.62 358.75C380.33 358.84 381.13 358.94 382.03 359.05C381.98 356.09 384.71 351.82 393.62 345.75C417.12 329.75 628.62 179.25 631.62 182.25Z" fill="white"/>
<path id="Vector_79" d="M634.45 172.99C628.15 169.32 617.46 178.52 612.62 181.75C594.62 193.75 397.62 332.42 397.62 332.42C397.62 332.42 397.32 332.6 396.79 332.93C395.96 333.51 395.52 333.82 395.52 333.82C395.52 333.82 394.01 334.74 391.74 336.23C383.22 342.04 369.04 352.87 374.81 357.17C375.41 354.17 378.56 350.08 386.71 344.53C411.07 327.94 630.29 171.89 633.4 175C634.19 175.79 635.25 177.12 636.39 178.62C636.72 178.46 636.98 178.35 637.22 178.25C636.8 175.81 635.96 173.87 634.45 172.99Z" fill="white"/>
<path id="Vector_80" d="M590.95 380.25C603.18 378.64 614.41 370.6 620.09 359.66C619.88 359.7 619.69 359.72 619.48 359.76C619.73 357.34 619.97 354.91 620.22 352.49C619.91 352.65 619.65 352.93 619.51 353.36C615.59 365.66 603.78 375.57 590.96 377.26C590.13 377.37 589.66 378.01 589.56 378.66C590.26 378.72 590.63 378.76 590.63 378.76L591.22 379.48C591.05 379.74 590.89 380 590.74 380.26C590.8 380.26 590.87 380.26 590.95 380.25Z" fill="#00A5F2"/>
<path id="Vector_81" opacity="0.5" d="M602.12 377.06L443.12 303.75L398.62 336.75C401.91 338.16 580.62 373.24 601.61 377.36C601.78 377.26 601.95 377.16 602.12 377.06Z" fill="url(#paint66_radial)"/>
<path id="Vector_82" opacity="0.5" d="M602.48 376.62C591.19 364.65 502.62 261.25 502.62 261.25L469.62 284.75C471.95 289.41 588.66 367.57 602.33 376.86C602.38 376.78 602.43 376.7 602.48 376.62Z" fill="url(#paint67_radial)"/>
<path id="Vector_83" opacity="0.5" d="M634.45 172.99C628.15 169.32 617.46 178.52 612.62 181.75C609.67 183.71 601.92 189.08 591.03 196.67C590.89 198.12 590.86 199.59 590.96 201.08L618.29 191.08L618.9 357.79L619.83 356.24C620.39 350.71 620.96 345.18 621.52 339.65C624.53 310.08 627.54 280.51 630.55 250.93C632.35 233.3 635.82 215.94 636.57 198.19C636.82 192.39 639.77 176.09 634.45 172.99Z" fill="url(#paint68_radial)"/>
<path id="Vector_84" d="M631.09 172.14C632.3 172.14 633.43 172.4 634.45 172.99C639.77 176.09 636.82 192.39 636.58 198.19C635.83 215.94 632.36 233.31 630.56 250.93C627.55 280.5 624.54 310.07 621.53 339.65C620.85 346.35 620.16 353.06 619.48 359.76C621.08 359.43 622.59 359.26 623.99 359.26C627.32 359.26 629.96 360.23 631.42 362.26C633.7 365.44 632.61 370.51 629.06 375.83L720.62 491.75L689.62 500.75L603.4 394.5C600.94 395.21 598.64 395.58 596.59 395.58C593.26 395.58 590.62 394.61 589.16 392.58C586.95 389.5 587.91 384.63 591.21 379.48L590.62 378.76C590.62 378.76 407.62 362.43 379.62 358.76C358.77 356.03 397.62 332.43 397.62 332.43C397.62 332.43 594.62 193.76 612.62 181.76C616.68 179.05 624.85 172.14 631.09 172.14ZM631.09 169.14C625.01 169.14 618.33 173.96 613.45 177.49C612.48 178.19 611.64 178.8 610.95 179.26C593.26 191.05 400.87 326.46 395.97 329.91C395.14 330.42 389.11 334.14 383.16 338.74C373.54 346.18 369.66 351.48 370.6 355.91C371.27 359.1 374.18 361.06 379.23 361.72C404.78 365.07 560.82 379.09 586.73 381.41C584.42 386.47 584.38 391.05 586.73 394.32C588.12 396.26 590.96 398.57 596.6 398.57C598.37 398.57 600.28 398.34 602.3 397.88L687.31 502.64L688.56 504.19L690.47 503.63L721.47 494.63L725.75 493.39L722.99 489.89L632.73 375.62C636.12 369.69 636.56 364.26 633.87 360.51C632.48 358.57 629.64 356.26 624 356.26C623.63 356.26 623.25 356.27 622.86 356.29L623.81 346.97L624.52 339.95L629.04 295.59L633.56 251.23C634.24 244.56 635.18 237.79 636.09 231.25C637.58 220.53 639.12 209.44 639.59 198.31C639.63 197.27 639.78 195.8 639.95 194.09C641.03 183.02 641.49 173.6 635.98 170.39C634.53 169.56 632.89 169.14 631.09 169.14Z" fill="#00A5F2"/>
<path id="Vector_85" d="M588.45 391.06C588.45 391.06 593.6 394.86 612.1 381.64C630.6 368.42 629.13 361.48 629.13 361.48C629.13 361.48 640.95 371.76 614.95 387.09C596.31 398.08 591.11 394.96 588.45 391.06Z" fill="url(#paint69_radial)"/>
</g>
</g>
<defs>
<radialGradient id="paint0_radial" cx="0" cy="0" r="1" gradientUnits="userSpaceOnUse" gradientTransform="translate(211.73 250.101) scale(36.3158)">
<stop offset="0.0279" stop-color="white" stop-opacity="0.6"/>
<stop offset="1" stop-color="white" stop-opacity="0.6"/>
</radialGradient>
<radialGradient id="paint1_radial" cx="0" cy="0" r="1" gradientUnits="userSpaceOnUse" gradientTransform="translate(209.347 248.158) scale(33.7199)">
<stop offset="0.0279" stop-color="white" stop-opacity="0.6"/>
<stop offset="1" stop-color="white" stop-opacity="0.6"/>
</radialGradient>
<radialGradient id="paint2_radial" cx="0" cy="0" r="1" gradientUnits="userSpaceOnUse" gradientTransform="translate(203.152 256.238) scale(22.7727)">
<stop offset="0.0279" stop-color="white" stop-opacity="0.6"/>
<stop offset="1" stop-color="white" stop-opacity="0.6"/>
</radialGradient>
<radialGradient id="paint3_radial" cx="0" cy="0" r="1" gradientUnits="userSpaceOnUse" gradientTransform="translate(203.152 256.238) scale(22.7719)">
<stop offset="0.0279" stop-color="white" stop-opacity="0.6"/>
<stop offset="1" stop-color="white" stop-opacity="0.6"/>
</radialGradient>
<radialGradient id="paint4_radial" cx="0" cy="0" r="1" gradientUnits="userSpaceOnUse" gradientTransform="translate(291.826 264.838) rotate(36.7794) scale(36.3158)">
<stop offset="0.0279" stop-color="white" stop-opacity="0.6"/>
<stop offset="1" stop-color="white" stop-opacity="0.6"/>
</radialGradient>
<radialGradient id="paint5_radial" cx="0" cy="0" r="1" gradientUnits="userSpaceOnUse" gradientTransform="translate(291.08 261.855) rotate(36.7794) scale(33.7198)">
<stop offset="0.0279" stop-color="white" stop-opacity="0.6"/>
<stop offset="1" stop-color="white" stop-opacity="0.6"/>
</radialGradient>
<radialGradient id="paint6_radial" cx="0" cy="0" r="1" gradientUnits="userSpaceOnUse" gradientTransform="translate(281.281 264.617) rotate(36.7794) scale(22.773)">
<stop offset="0.0279" stop-color="white" stop-opacity="0.6"/>
<stop offset="1" stop-color="white" stop-opacity="0.6"/>
</radialGradient>
<radialGradient id="paint7_radial" cx="0" cy="0" r="1" gradientUnits="userSpaceOnUse" gradientTransform="translate(281.282 264.618) rotate(36.7794) scale(22.7717)">
<stop offset="0.0279" stop-color="white" stop-opacity="0.6"/>
<stop offset="1" stop-color="white" stop-opacity="0.6"/>
</radialGradient>
<linearGradient id="paint8_linear" x1="183.421" y1="33.3648" x2="533.992" y2="399.379" gradientUnits="userSpaceOnUse">
<stop offset="0.00278549" stop-color="#FE31AC"/>
<stop offset="0.9833" stop-color="#00A6EF"/>
</linearGradient>
<linearGradient id="paint9_linear" x1="47.602" y1="233.209" x2="596.556" y2="233.209" gradientUnits="userSpaceOnUse">
<stop offset="0.0167" stop-color="#00A6EF"/>
<stop offset="0.9972" stop-color="#FE9DEF"/>
</linearGradient>
<linearGradient id="paint10_linear" x1="78.9491" y1="145.285" x2="419.434" y2="500.768" gradientUnits="userSpaceOnUse">
<stop offset="0.00278549" stop-color="#FE31AC"/>
<stop offset="0.9833" stop-color="#00A6EF"/>
</linearGradient>
<linearGradient id="paint11_linear" x1="78.9491" y1="145.285" x2="419.434" y2="500.768" gradientUnits="userSpaceOnUse">
<stop offset="0.00278549" stop-color="#FE31AC"/>
<stop offset="0.9833" stop-color="#00A6EF"/>
</linearGradient>
<radialGradient id="paint12_radial" cx="0" cy="0" r="1" gradientUnits="userSpaceOnUse" gradientTransform="translate(43.6193 49.751) scale(86.7304)">
<stop offset="0.0167" stop-color="white"/>
<stop offset="0.8663" stop-color="white" stop-opacity="0"/>
</radialGradient>
<linearGradient id="paint13_linear" x1="12.9425" y1="208.506" x2="353.423" y2="563.986" gradientUnits="userSpaceOnUse">
<stop offset="0.00278549" stop-color="#FE31AC"/>
<stop offset="0.9833" stop-color="#00A6EF"/>
</linearGradient>
<linearGradient id="paint14_linear" x1="116.419" y1="109.397" x2="456.9" y2="464.877" gradientUnits="userSpaceOnUse">
<stop offset="0.00278549" stop-color="#FE31AC"/>
<stop offset="0.9833" stop-color="#00A6EF"/>
</linearGradient>
<linearGradient id="paint15_linear" x1="385.529" y1="-49.6111" x2="659.692" y2="236.629" gradientUnits="userSpaceOnUse">
<stop offset="0.00278549" stop-color="#FE31AC"/>
<stop offset="0.9833" stop-color="#00A6EF"/>
</linearGradient>
<linearGradient id="paint16_linear" x1="223.882" y1="6.45483" x2="564.378" y2="361.95" gradientUnits="userSpaceOnUse">
<stop offset="0.00278549" stop-color="#FE31AC"/>
<stop offset="0.9833" stop-color="#00A6EF"/>
</linearGradient>
<radialGradient id="paint17_radial" cx="0" cy="0" r="1" gradientUnits="userSpaceOnUse" gradientTransform="translate(387.622 161.75) scale(58.1376)">
<stop offset="0.0167" stop-color="white"/>
<stop offset="0.8663" stop-color="white" stop-opacity="0"/>
</radialGradient>
<linearGradient id="paint18_linear" x1="328.964" y1="-96.1838" x2="669.45" y2="259.301" gradientUnits="userSpaceOnUse">
<stop offset="0.00278549" stop-color="#FE31AC"/>
<stop offset="0.9833" stop-color="#00A6EF"/>
</linearGradient>
<linearGradient id="paint19_linear" x1="380.285" y1="-143.343" x2="720.771" y2="212.142" gradientUnits="userSpaceOnUse">
<stop offset="0.00278549" stop-color="#FE31AC"/>
<stop offset="0.9833" stop-color="#00A6EF"/>
</linearGradient>
<linearGradient id="paint20_linear" x1="445.2" y1="-79.0988" x2="690.09" y2="176.579" gradientUnits="userSpaceOnUse">
<stop offset="0.0167" stop-color="#00A6EF"/>
<stop offset="0.9972" stop-color="#FE9DEF"/>
</linearGradient>
<linearGradient id="paint21_linear" x1="113.804" y1="63.6035" x2="460.923" y2="63.6035" gradientUnits="userSpaceOnUse">
<stop offset="0.0167" stop-color="#00A6EF"/>
<stop offset="0.9972" stop-color="#FE9DEF"/>
</linearGradient>
<linearGradient id="paint22_linear" x1="474.357" y1="63.4883" x2="611.736" y2="63.4883" gradientUnits="userSpaceOnUse">
<stop offset="0.0167" stop-color="#00A6EF"/>
<stop offset="0.9972" stop-color="#FE9DEF"/>
</linearGradient>
<radialGradient id="paint23_radial" cx="0" cy="0" r="1" gradientUnits="userSpaceOnUse" gradientTransform="translate(130.288 79.7505) scale(510.754)">
<stop offset="0.0167" stop-color="white"/>
<stop offset="0.8663" stop-color="white" stop-opacity="0"/>
</radialGradient>
<radialGradient id="paint24_radial" cx="0" cy="0" r="1" gradientUnits="userSpaceOnUse" gradientTransform="translate(538.462 175.035) scale(53.9081)">
<stop offset="0.0167" stop-color="white"/>
<stop offset="0.8663" stop-color="white" stop-opacity="0"/>
</radialGradient>
<radialGradient id="paint25_radial" cx="0" cy="0" r="1" gradientUnits="userSpaceOnUse" gradientTransform="translate(453.842 195.314) scale(133.59)">
<stop offset="0.0167" stop-color="white"/>
<stop offset="0.8663" stop-color="white" stop-opacity="0"/>
</radialGradient>
<radialGradient id="paint26_radial" cx="0" cy="0" r="1" gradientUnits="userSpaceOnUse" gradientTransform="translate(206.866 170.09) scale(309.184)">
<stop offset="0.0167" stop-color="white"/>
<stop offset="0.8663" stop-color="white" stop-opacity="0"/>
</radialGradient>
<radialGradient id="paint27_radial" cx="0" cy="0" r="1" gradientUnits="userSpaceOnUse" gradientTransform="translate(74.2872 111.084) scale(294.865)">
<stop offset="0.0167" stop-color="white"/>
<stop offset="0.8663" stop-color="white" stop-opacity="0"/>
</radialGradient>
<radialGradient id="paint28_radial" cx="0" cy="0" r="1" gradientUnits="userSpaceOnUse" gradientTransform="translate(404.288 56.4173) scale(192.899)">
<stop offset="0.0167" stop-color="white"/>
<stop offset="0.8663" stop-color="white" stop-opacity="0"/>
</radialGradient>
<radialGradient id="paint29_radial" cx="0" cy="0" r="1" gradientUnits="userSpaceOnUse" gradientTransform="translate(404.288 56.4166) scale(192.9)">
<stop offset="0.0167" stop-color="white"/>
<stop offset="0.8663" stop-color="white" stop-opacity="0"/>
</radialGradient>
<linearGradient id="paint30_linear" x1="569.345" y1="247.229" x2="580.506" y2="258.882" gradientUnits="userSpaceOnUse">
<stop offset="0.00278549" stop-color="#FE31AC"/>
<stop offset="0.9833" stop-color="#00A6EF"/>
</linearGradient>
<linearGradient id="paint31_linear" x1="577.581" y1="279.607" x2="582.303" y2="284.538" gradientUnits="userSpaceOnUse">
<stop offset="0.00278549" stop-color="#FE31AC"/>
<stop offset="0.9833" stop-color="#00A6EF"/>
</linearGradient>
<linearGradient id="paint32_linear" x1="533.894" y1="265.121" x2="544.626" y2="276.325" gradientUnits="userSpaceOnUse">
<stop offset="0.00278549" stop-color="#FE31AC"/>
<stop offset="0.9833" stop-color="#00A6EF"/>
</linearGradient>
<linearGradient id="paint33_linear" x1="562.247" y1="300.941" x2="566.969" y2="305.871" gradientUnits="userSpaceOnUse">
<stop offset="0.00278549" stop-color="#FE31AC"/>
<stop offset="0.9833" stop-color="#00A6EF"/>
</linearGradient>
<linearGradient id="paint34_linear" x1="600.012" y1="221.391" x2="603.876" y2="225.424" gradientUnits="userSpaceOnUse">
<stop offset="0.00278549" stop-color="#FE31AC"/>
<stop offset="0.9833" stop-color="#00A6EF"/>
</linearGradient>
<linearGradient id="paint35_linear" x1="518.208" y1="198.13" x2="527.651" y2="207.989" gradientUnits="userSpaceOnUse">
<stop offset="0.00278549" stop-color="#FE31AC"/>
<stop offset="0.9833" stop-color="#00A6EF"/>
</linearGradient>
<linearGradient id="paint36_linear" x1="542.914" y1="213.607" x2="547.637" y2="218.538" gradientUnits="userSpaceOnUse">
<stop offset="0.00278549" stop-color="#FE31AC"/>
<stop offset="0.9833" stop-color="#00A6EF"/>
</linearGradient>
<linearGradient id="paint37_linear" x1="436.678" y1="275.895" x2="447.839" y2="287.548" gradientUnits="userSpaceOnUse">
<stop offset="0.00278549" stop-color="#FE31AC"/>
<stop offset="0.9833" stop-color="#00A6EF"/>
</linearGradient>
<linearGradient id="paint38_linear" x1="430.561" y1="295.949" x2="433.995" y2="299.535" gradientUnits="userSpaceOnUse">
<stop offset="0.00278549" stop-color="#FE31AC"/>
<stop offset="0.9833" stop-color="#00A6EF"/>
</linearGradient>
<linearGradient id="paint39_linear" x1="392.09" y1="292.022" x2="401.105" y2="301.434" gradientUnits="userSpaceOnUse">
<stop offset="0.00278549" stop-color="#FE31AC"/>
<stop offset="0.9833" stop-color="#00A6EF"/>
</linearGradient>
<linearGradient id="paint40_linear" x1="411.816" y1="259.157" x2="417.396" y2="264.984" gradientUnits="userSpaceOnUse">
<stop offset="0.00278549" stop-color="#FE31AC"/>
<stop offset="0.9833" stop-color="#00A6EF"/>
</linearGradient>
<linearGradient id="paint41_linear" x1="211.855" y1="357.643" x2="227.308" y2="373.777" gradientUnits="userSpaceOnUse">
<stop offset="0.00278549" stop-color="#FE31AC"/>
<stop offset="0.9833" stop-color="#00A6EF"/>
</linearGradient>
<linearGradient id="paint42_linear" x1="243.856" y1="360.886" x2="248.363" y2="365.592" gradientUnits="userSpaceOnUse">
<stop offset="0.00278549" stop-color="#FE31AC"/>
<stop offset="0.9833" stop-color="#00A6EF"/>
</linearGradient>
<linearGradient id="paint43_linear" x1="204.443" y1="75.3455" x2="214.746" y2="86.1016" gradientUnits="userSpaceOnUse">
<stop offset="0.00278549" stop-color="#FE31AC"/>
<stop offset="0.9833" stop-color="#00A6EF"/>
</linearGradient>
<linearGradient id="paint44_linear" x1="228.856" y1="91.8861" x2="233.363" y2="96.5918" gradientUnits="userSpaceOnUse">
<stop offset="0.00278549" stop-color="#FE31AC"/>
<stop offset="0.9833" stop-color="#00A6EF"/>
</linearGradient>
<linearGradient id="paint45_linear" x1="157.973" y1="43.832" x2="170.207" y2="56.6049" gradientUnits="userSpaceOnUse">
<stop offset="0.00278549" stop-color="#FE31AC"/>
<stop offset="0.9833" stop-color="#00A6EF"/>
</linearGradient>
<linearGradient id="paint46_linear" x1="187.032" y1="44.0482" x2="192.183" y2="49.4262" gradientUnits="userSpaceOnUse">
<stop offset="0.00278549" stop-color="#FE31AC"/>
<stop offset="0.9833" stop-color="#00A6EF"/>
</linearGradient>
<linearGradient id="paint47_linear" x1="41.8549" y1="322.643" x2="57.308" y2="338.777" gradientUnits="userSpaceOnUse">
<stop offset="0.00278549" stop-color="#FE31AC"/>
<stop offset="0.9833" stop-color="#00A6EF"/>
</linearGradient>
<linearGradient id="paint48_linear" x1="74.0321" y1="352.048" x2="79.1831" y2="357.426" gradientUnits="userSpaceOnUse">
<stop offset="0.00278549" stop-color="#FE31AC"/>
<stop offset="0.9833" stop-color="#00A6EF"/>
</linearGradient>
<linearGradient id="paint49_linear" x1="494.267" y1="68.1833" x2="503.925" y2="78.2673" gradientUnits="userSpaceOnUse">
<stop offset="0.00278549" stop-color="#FE31AC"/>
<stop offset="0.9833" stop-color="#00A6EF"/>
</linearGradient>
<linearGradient id="paint50_linear" x1="516.032" y1="77.0482" x2="521.183" y2="82.4262" gradientUnits="userSpaceOnUse">
<stop offset="0.00278549" stop-color="#FE31AC"/>
<stop offset="0.9833" stop-color="#00A6EF"/>
</linearGradient>
<radialGradient id="paint51_radial" cx="0" cy="0" r="1" gradientUnits="userSpaceOnUse" gradientTransform="translate(148.133 143.744) scale(19.6724)">
<stop offset="0.0167" stop-color="white"/>
<stop offset="0.8663" stop-color="white" stop-opacity="0"/>
</radialGradient>
<linearGradient id="paint52_linear" x1="143.563" y1="143.807" x2="170.395" y2="143.807" gradientUnits="userSpaceOnUse">
<stop offset="0.0167" stop-color="#00A6EF"/>
<stop offset="0.9972" stop-color="#FE9DEF"/>
</linearGradient>
<linearGradient id="paint53_linear" x1="149.134" y1="123.857" x2="152.662" y2="123.857" gradientUnits="userSpaceOnUse">
<stop offset="0.0167" stop-color="#00A6EF"/>
<stop offset="0.9972" stop-color="#FE9DEF"/>
</linearGradient>
<linearGradient id="paint54_linear" x1="34.3519" y1="118.881" x2="70.0155" y2="118.881" gradientUnits="userSpaceOnUse">
<stop offset="0.0167" stop-color="#00A6EF"/>
<stop offset="0.9972" stop-color="#FE9DEF"/>
</linearGradient>
<radialGradient id="paint55_radial" cx="0" cy="0" r="1" gradientUnits="userSpaceOnUse" gradientTransform="translate(10.4119 212.66) scale(19.8683)">
<stop offset="0.0167" stop-color="white"/>
<stop offset="0.8663" stop-color="white" stop-opacity="0"/>
</radialGradient>
<radialGradient id="paint56_radial" cx="0" cy="0" r="1" gradientUnits="userSpaceOnUse" gradientTransform="translate(505.222 253.532) rotate(105.992) scale(32.1859)">
<stop offset="0.0279" stop-color="white" stop-opacity="0.6"/>
<stop offset="1" stop-color="white" stop-opacity="0.6"/>
</radialGradient>
<radialGradient id="paint57_radial" cx="0" cy="0" r="1" gradientUnits="userSpaceOnUse" gradientTransform="translate(504.148 251.027) rotate(105.992) scale(29.8851)">
<stop offset="0.0279" stop-color="white" stop-opacity="0.6"/>
<stop offset="1" stop-color="white" stop-opacity="0.6"/>
</radialGradient>
<radialGradient id="paint58_radial" cx="0" cy="0" r="1" gradientUnits="userSpaceOnUse" gradientTransform="translate(512.545 247.723) rotate(105.992) scale(20.183)">
<stop offset="0.0279" stop-color="white" stop-opacity="0.6"/>
<stop offset="1" stop-color="white" stop-opacity="0.6"/>
</radialGradient>
<radialGradient id="paint59_radial" cx="0" cy="0" r="1" gradientUnits="userSpaceOnUse" gradientTransform="translate(512.544 247.724) rotate(105.992) scale(20.1821)">
<stop offset="0.0279" stop-color="white" stop-opacity="0.6"/>
<stop offset="1" stop-color="white" stop-opacity="0.6"/>
</radialGradient>
<linearGradient id="paint60_linear" x1="272.536" y1="96.0843" x2="332.708" y2="96.0843" gradientUnits="userSpaceOnUse">
<stop offset="0.0167" stop-color="#00EF9A"/>
<stop offset="0.9972" stop-color="#FEFB9D"/>
</linearGradient>
<radialGradient id="paint61_radial" cx="0" cy="0" r="1" gradientUnits="userSpaceOnUse" gradientTransform="translate(601.621 355.251) scale(188.59)">
<stop offset="0.0167" stop-color="white"/>
<stop offset="0.8663" stop-color="white" stop-opacity="0"/>
</radialGradient>
<radialGradient id="paint62_radial" cx="0" cy="0" r="1" gradientUnits="userSpaceOnUse" gradientTransform="translate(659.539 436.903) scale(57.8409)">
<stop offset="0.0167" stop-color="white"/>
<stop offset="0.8663" stop-color="white" stop-opacity="0"/>
</radialGradient>
<radialGradient id="paint63_radial" cx="0" cy="0" r="1" gradientUnits="userSpaceOnUse" gradientTransform="translate(601.621 355.251) scale(188.59)">
<stop offset="0.0167" stop-color="white"/>
<stop offset="0.8663" stop-color="white" stop-opacity="0"/>
</radialGradient>
<radialGradient id="paint64_radial" cx="0" cy="0" r="1" gradientUnits="userSpaceOnUse" gradientTransform="translate(601.621 355.251) scale(188.59)">
<stop offset="0.0167" stop-color="white"/>
<stop offset="0.8663" stop-color="white" stop-opacity="0"/>
</radialGradient>
<radialGradient id="paint65_radial" cx="0" cy="0" r="1" gradientUnits="userSpaceOnUse" gradientTransform="translate(497.829 214.362) scale(307.107)">
<stop offset="0.0167" stop-color="white"/>
<stop offset="0.8663" stop-color="white" stop-opacity="0"/>
</radialGradient>
<radialGradient id="paint66_radial" cx="0" cy="0" r="1" gradientUnits="userSpaceOnUse" gradientTransform="translate(510.787 232.918) scale(253.197)">
<stop offset="0.0167" stop-color="white"/>
<stop offset="0.8663" stop-color="white" stop-opacity="0"/>
</radialGradient>
<radialGradient id="paint67_radial" cx="0" cy="0" r="1" gradientUnits="userSpaceOnUse" gradientTransform="translate(500.424 287.754) scale(200.288)">
<stop offset="0.0167" stop-color="white"/>
<stop offset="0.8663" stop-color="white" stop-opacity="0"/>
</radialGradient>
<radialGradient id="paint68_radial" cx="0" cy="0" r="1" gradientUnits="userSpaceOnUse" gradientTransform="translate(601.632 217.543) scale(231.559)">
<stop offset="0.0167" stop-color="white"/>
<stop offset="0.8663" stop-color="white" stop-opacity="0"/>
</radialGradient>
<radialGradient id="paint69_radial" cx="0" cy="0" r="1" gradientUnits="userSpaceOnUse" gradientTransform="translate(626.621 459.251) scale(113.487)">
<stop offset="0.0167" stop-color="white"/>
<stop offset="0.8663" stop-color="white" stop-opacity="0"/>
</radialGradient>
<clipPath id="clip0">
<rect width="725.74" height="504.19" fill="white"/>
</clipPath>
</defs>
</svg>
